<svg width="62" height="62" viewBox="0 0 62 62" version="1.1" xmlns="http://www.w3.org/2000/svg" xmlns:xlink="http://www.w3.org/1999/xlink">
<title>back</title>
<desc>Created using Figma</desc>
<g id="Canvas" transform="translate(909 237)">
<g id="back">
<g id="Vector">
<use xlink:href="#path0_stroke" transform="translate(-870.1 -209.1)" fill="#FFFFFF"/>
</g>
<g id="Vector">
<use xlink:href="#path1_stroke" transform="translate(-849.4 -215)" fill="#FFFFFF"/>
</g>
<g id="Vector">
<use xlink:href="#path2_stroke" transform="translate(-855.2 -225.6)" fill="#FFFFFF"/>
</g>
<g id="Vector">
<use xlink:href="#path3_stroke" transform="translate(-850.4 -217.7)" fill="#FFFFFF"/>
</g>
<g id="Vector">
<use xlink:href="#path4_stroke" transform="translate(-848.7 -212)" fill="#FFFFFF"/>
</g>
<g id="Vector">
<use xlink:href="#path5_stroke" transform="translate(-908 -236.3)" fill="#FFFFFF"/>
</g>
<g id="Vector">
<use xlink:href="#path6_stroke" transform="translate(-903.301 -225.6)" fill="#FFFFFF"/>
</g>
<g id="Vector">
<use xlink:href="#path7_stroke" transform="translate(-887.694 -217.7)" fill="#FFFFFF"/>
</g>
<g id="Vector">
<use xlink:href="#path8_stroke" transform="translate(-882.794 -212)" fill="#FFFFFF"/>
</g>
<g id="Vector">
<use xlink:href="#path9_stroke" transform="translate(-877.868 -204.061)" fill="#FFFFFF"/>
</g>
</g>
</g>
<defs>
<path id="path0_stroke" d="M 21.4031 0.0552188C 21.4994 0.922465 21.5 1.89331 21.5 2.9L 22.5 2.9C 22.5 1.90668 22.5006 0.877541 22.3969 -0.0552127L 21.4031 0.0552188ZM 21.5 2.9C 21.5 16.4692 12.356 27.8762 -0.132843 31.318L 0.132843 32.282C 13.044 28.7238 22.5 16.9308 22.5 2.9L 21.5 2.9Z"/>
<path id="path1_stroke" d="M -0.478916 0.143675C -0.186766 1.11751 0.00901084 2.0946 0.209704 3.09806L 1.19028 2.90194C 0.990977 1.90541 0.786759 0.882492 0.47891 -0.143672L -0.478916 0.143675Z"/>
<path id="path2_stroke" d="M -0.377309 0.328092C 1.58314 2.58261 3.1573 5.23633 4.34042 7.99696L 5.25957 7.60304C 4.0427 4.76367 2.41685 2.0174 0.377297 -0.328086L -0.377309 0.328092Z"/>
<path id="path3_stroke" d="M -0.456909 0.203066C -0.0682525 1.07754 0.22459 1.95492 0.525655 2.85812L 1.47434 2.54189C 1.1754 1.64508 0.868246 0.722451 0.456903 -0.203072L -0.456909 0.203066Z"/>
<path id="path4_stroke" d="M -0.490296 0.0980596C -0.295389 1.0726 -0.197283 1.95208 -0.0975155 2.94975L 0.897522 2.85025C 0.797289 1.84792 0.695377 0.927406 0.490284 -0.0980565L -0.490296 0.0980596Z"/>
<path id="path5_stroke" d="M 6.2 23.3L 6.06975 22.8172L 6.06618 22.8182L 6.2 23.3ZM 52.9 10.7L 53.0302 11.1827L 53.79 10.9778L 53.2817 10.377L 52.9 10.7ZM 38 58.9L 38.13 59.3828L 38.9696 59.1568L 38.3519 58.5448L 38 58.9ZM 5.7 26.9L 5.34645 27.2536L 5.3481 27.2552L 5.7 26.9ZM 6.33025 23.7827L 53.0302 11.1827L 52.7698 10.2173L 6.06976 22.8173L 6.33025 23.7827ZM 53.2817 10.377C 47.6927 3.77187 39.3562 -0.500002 30 -0.500002L 30 0.499998C 39.0439 0.499998 47.1073 4.62813 52.5183 11.023L 53.2817 10.377ZM 30 -0.500002C 13.1239 -0.500002 -0.499994 13.1239 -0.499994 30L 0.500006 30C 0.500006 13.6761 13.6761 0.499998 30 0.499998L 30 -0.500002ZM -0.499994 30C -0.499994 46.8761 13.1239 60.5 30 60.5L 30 59.5C 13.6761 59.5 0.500006 46.3239 0.500006 30L -0.499994 30ZM 30 60.5C 32.8498 60.5 35.4937 60.0926 38.13 59.3828L 37.87 58.4172C 35.3063 59.1074 32.7502 59.5 30 59.5L 30 60.5ZM 38.3519 58.5448L 6.0519 26.5448L 5.3481 27.2552L 37.6481 59.2552L 38.3519 58.5448ZM 6.05356 26.5464C 5.36051 25.8534 5.14968 25.2252 5.20803 24.7917C 5.26103 24.398 5.56298 23.9959 6.33383 23.7818L 6.06618 22.8182C 5.03702 23.1041 4.33898 23.752 4.21697 24.6583C 4.10033 25.5248 4.5395 26.4466 5.34645 27.2536L 6.05356 26.5464Z"/>
<path id="path6_stroke" d="M 55.1014 16.5L 55.6014 16.5L 55.6014 15.8472L 54.9711 16.0173L 55.1014 16.5ZM 23.6014 25L 23.7227 25.4852L 23.7317 25.4827L 23.6014 25ZM 21.2014 22.6L 21.3227 23.0851L 21.3311 23.0829L 21.2014 22.6ZM 54.7014 13.6L 54.8311 14.0829L 55.2836 13.9613L 55.1917 13.5019L 54.7014 13.6ZM 54.0014 10.6L 54.4803 10.4563L 54.3407 9.9909L 53.8715 10.1172L 54.0014 10.6ZM 18.7014 20.1L 18.8227 20.5852L 18.8313 20.5828L 18.7014 20.1ZM 16.3014 17.7L 16.4227 18.1852L 16.4316 18.1827L 16.3014 17.7ZM 53.0014 7.8L 53.1316 8.28274L 53.681 8.13456L 53.4634 7.60882L 53.0014 7.8ZM 48.2014 3.05176e-06L 48.5787 -0.328086L 48.3733 -0.564264L 48.0712 -0.482735L 48.2014 3.05176e-06ZM 1.50141 12.6L 1.37116 12.1173L 1.36759 12.1182L 1.50141 12.6ZM 1.00141 16.2L 0.647855 16.5536L 0.648405 16.5541L 1.00141 16.2ZM 33.2014 48.3L 32.8484 48.6541L 33.0542 48.8592L 33.3342 48.782L 33.2014 48.3ZM 26.1014 27.5L 26.2227 27.9852L 26.2315 27.9828L 26.1014 27.5ZM 48.0014 21.6L 47.8801 21.1149L 47.8713 21.1172L 48.0014 21.6ZM 50.4014 24L 50.2801 23.5149L 50.2713 23.5172L 50.4014 24ZM 28.5014 29.9L 28.6227 30.3851L 28.6315 30.3828L 28.5014 29.9ZM 55.7014 19.4C 55.7014 18.8848 55.6756 18.397 55.6507 17.9237C 55.6256 17.447 55.6014 16.9848 55.6014 16.5L 54.6014 16.5C 54.6014 17.0152 54.6272 17.503 54.6521 17.9763C 54.6772 18.453 54.7014 18.9152 54.7014 19.4L 55.7014 19.4ZM 54.9711 16.0173L 23.4711 24.5173L 23.7317 25.4827L 55.2317 16.9827L 54.9711 16.0173ZM 23.4801 24.5149C 23.2008 24.5848 22.826 24.5567 22.4182 24.4244C 22.0154 24.2938 21.6243 24.0754 21.3268 23.8204L 20.676 24.5796C 21.0785 24.9246 21.5874 25.2062 22.1097 25.3756C 22.6268 25.5433 23.202 25.6152 23.7227 25.4851L 23.4801 24.5149ZM 21.3268 23.8204C 21.0605 23.5921 21.0246 23.3955 21.035 23.312C 21.0418 23.258 21.0796 23.1458 21.3227 23.0851L 21.0801 22.1149C 20.5232 22.2542 20.111 22.642 20.0428 23.188C 19.9782 23.7045 20.2423 24.2079 20.676 24.5796L 21.3268 23.8204ZM 21.3311 23.0829L 54.8311 14.0829L 54.5717 13.1171L 21.0717 22.1171L 21.3311 23.0829ZM 55.1917 13.5019C 54.9924 12.5054 54.7882 11.4825 54.4803 10.4563L 53.5225 10.7437C 53.8146 11.7175 54.0104 12.6946 54.2111 13.6981L 55.1917 13.5019ZM 53.8715 10.1172L 18.5715 19.6172L 18.8313 20.5828L 54.1313 11.0828L 53.8715 10.1172ZM 18.5801 19.6149C 18.3008 19.6848 17.926 19.6567 17.5182 19.5244C 17.1154 19.3938 16.7243 19.1754 16.4268 18.9204L 15.776 19.6796C 16.1785 20.0246 16.6874 20.3062 17.2097 20.4756C 17.7268 20.6433 18.302 20.7152 18.8227 20.5851L 18.5801 19.6149ZM 16.4268 18.9204C 16.1605 18.6921 16.1246 18.4955 16.135 18.412C 16.1418 18.358 16.1796 18.2458 16.4227 18.1851L 16.1801 17.2149C 15.6232 17.3542 15.211 17.742 15.1428 18.288C 15.0782 18.8045 15.3423 19.3079 15.776 19.6796L 16.4268 18.9204ZM 16.4316 18.1827L 53.1316 8.28274L 52.8712 7.31725L 16.1712 17.2173L 16.4316 18.1827ZM 53.4634 7.60882C 52.2434 4.66041 50.6152 2.01388 48.5787 -0.328086L 47.8241 0.328092C 49.7876 2.58612 51.3594 5.13959 52.5394 7.99117L 53.4634 7.60882ZM 48.0712 -0.482735L 1.37116 12.1173L 1.63165 13.0827L 48.3317 0.482741L 48.0712 -0.482735ZM 1.36759 12.1182C 0.338429 12.4041 -0.359615 13.052 -0.481622 13.9583C -0.598264 14.8248 -0.159094 15.7466 0.647855 16.5536L 1.35496 15.8464C 0.661911 15.1534 0.451081 14.5252 0.509439 14.0917C 0.562432 13.698 0.864388 13.2959 1.63523 13.0818L 1.36759 12.1182ZM 0.648405 16.5541L 32.8484 48.6541L 33.5544 47.9459L 1.35441 15.8459L 0.648405 16.5541ZM 33.3342 48.782C 46.2454 45.2238 55.7014 33.4308 55.7014 19.4L 54.7014 19.4C 54.7014 32.9692 45.5574 44.3762 33.0686 47.818L 33.3342 48.782ZM 26.255 28.7464C 25.9559 28.4474 25.926 28.2437 25.9347 28.1772C 25.9372 28.1583 25.95 28.0532 26.2227 27.9851L 25.9801 27.0149C 25.4528 27.1468 25.0156 27.4917 24.9431 28.0478C 24.8768 28.5563 25.1469 29.0526 25.5479 29.4536L 26.255 28.7464ZM 26.2315 27.9828L 48.1315 22.0828L 47.8713 21.1172L 25.9713 27.0172L 26.2315 27.9828ZM 48.1227 22.0851C 48.402 22.0152 48.7768 22.0433 49.1847 22.1756C 49.5874 22.3062 49.9785 22.5246 50.276 22.7796L 50.9268 22.0204C 50.5243 21.6754 50.0154 21.3938 49.4932 21.2244C 48.976 21.0567 48.4008 20.9848 47.8801 21.1149L 48.1227 22.0851ZM 50.276 22.7796C 50.5423 23.0079 50.5782 23.2045 50.5678 23.288C 50.561 23.342 50.5232 23.4542 50.2801 23.5149L 50.5227 24.4851C 51.0796 24.3458 51.4918 23.958 51.56 23.412C 51.6246 22.8955 51.3605 22.3921 50.9268 22.0204L 50.276 22.7796ZM 50.2713 23.5172L 28.3713 29.4172L 28.6315 30.3828L 50.5315 24.4828L 50.2713 23.5172ZM 28.3801 29.4149C 28.1001 29.4849 27.6993 29.4566 27.277 29.3232C 26.8579 29.1909 26.4846 28.9761 26.255 28.7464L 25.5479 29.4536C 25.9182 29.8239 26.4449 30.1091 26.9758 30.2768C 27.5035 30.4434 28.1028 30.515 28.6227 30.3851L 28.3801 29.4149Z"/>
<path id="path7_stroke" d="M 2.99397 12.2L 3.11525 12.6852L 3.1239 12.6828L 2.99397 12.2ZM 38.294 2.7L 38.4239 3.18282L 38.936 3.045L 38.7683 2.54189L 38.294 2.7ZM 37.294 -3.05176e-06L 37.7412 -0.22361L 37.5584 -0.589203L 37.1637 -0.482747L 37.294 -3.05176e-06ZM 0.593971 9.9L 0.463734 9.4172L 0.456611 9.41924L 0.593971 9.9ZM 0.040421 11.7536C 0.854276 12.5674 2.13113 12.9311 3.11523 12.6851L 2.8727 11.7149C 2.2568 11.8689 1.33367 11.6326 0.747528 11.0464L 0.040421 11.7536ZM 3.1239 12.6828L 38.4239 3.18282L 38.164 2.21718L 2.86403 11.7172L 3.1239 12.6828ZM 38.7683 2.54189C 38.4769 1.66759 38.1618 0.61767 37.7412 -0.22361L 36.8468 0.223604C 37.2261 0.982324 37.5111 1.93241 37.8196 2.85812L 38.7683 2.54189ZM 37.1637 -0.482747L 0.463749 9.41725L 0.724194 10.3827L 37.4242 0.482741L 37.1637 -0.482747ZM 0.456611 9.41924C -0.0459538 9.56283 -0.419653 9.92431 -0.488942 10.4324C -0.554202 10.911 -0.329885 11.3832 0.040421 11.7536L 0.747528 11.0464C 0.517834 10.8168 0.492149 10.639 0.501888 10.5676C 0.507597 10.5257 0.533896 10.4372 0.731332 10.3808L 0.456611 9.41924Z"/>
<path id="path8_stroke" d="M 0.393968 10.6L 0.01434 10.9254L 0.0268367 10.94L 0.0404149 10.9536L 0.393968 10.6ZM 2.99397 11.4L 3.11526 11.8852L 3.12424 11.8827L 2.99397 11.4ZM 34.494 2.9L 34.6242 3.38274L 35.0337 3.27225L 34.9915 2.85025L 34.494 2.9ZM 34.094 1.52588e-06L 34.5843 -0.0980565L 34.4796 -0.621332L 33.9642 -0.482876L 34.094 1.52588e-06ZM 0.593965 9L 0.464221 8.51706L 0.456605 8.51924L 0.593965 9ZM 0.0404149 10.9536C 0.854271 11.7674 2.13114 12.1311 3.11524 11.8851L 2.87271 10.9149C 2.25681 11.0689 1.33367 10.8326 0.747522 10.2464L 0.0404149 10.9536ZM 3.12424 11.8827L 34.6242 3.38274L 34.3637 2.41727L 2.86371 10.9173L 3.12424 11.8827ZM 34.9915 2.85025C 34.8913 1.84792 34.7893 0.927406 34.5843 -0.0980565L 33.6037 0.0980596C 33.7986 1.0726 33.8967 1.95208 33.9965 2.94975L 34.9915 2.85025ZM 33.9642 -0.482876L 0.464237 8.51712L 0.723693 9.48288L 34.2237 0.482879L 33.9642 -0.482876ZM 0.456605 8.51924C -0.0506785 8.66418 -0.421696 9.02927 -0.489334 9.54783C -0.551765 10.0265 -0.338549 10.5137 0.01434 10.9254L 0.773597 10.2746C 0.526485 9.98631 0.4897 9.77352 0.502267 9.67717C 0.509628 9.62073 0.538609 9.53583 0.731326 9.48076L 0.456605 8.51924Z"/>
<path id="path9_stroke" d="M 25.1681 0.860822L 25.5477 0.535426L 25.5352 0.520847L 25.5217 0.507269L 25.1681 0.860822ZM 22.5681 0.0608265L 22.4468 -0.424325L 22.438 -0.42196L 22.5681 0.0608265ZM 0.668106 5.96083L 0.789394 6.44598L 0.798172 6.44361L 0.668106 5.96083ZM 3.06812 8.36082L 3.1894 8.84597L 3.19818 8.84361L 3.06812 8.36082ZM 24.9681 2.46083L 24.8468 1.97568L 24.838 1.97804L 24.9681 2.46083ZM 25.5217 0.507269C 24.7078 -0.306589 23.4309 -0.67027 22.4468 -0.424245L 22.6894 0.545898C 23.3053 0.391923 24.2284 0.628232 24.8146 1.21438L 25.5217 0.507269ZM 22.438 -0.42196L 0.538041 5.47804L 0.798172 6.44361L 22.6982 0.543613L 22.438 -0.42196ZM 0.546839 5.47576C 0.0194664 5.6076 -0.417661 5.95257 -0.490192 6.50866C -0.55651 7.0171 -0.286418 7.51341 0.114556 7.91438L 0.821663 7.20727C 0.522637 6.90825 0.492728 6.70455 0.501408 6.638C 0.503875 6.61908 0.516746 6.51406 0.789374 6.4459L 0.546839 5.47576ZM 0.114556 7.91438C 0.928414 8.72824 2.20528 9.09192 3.18938 8.84589L 2.94685 7.87575C 2.33095 8.02973 1.4078 7.79341 0.821663 7.20727L 0.114556 7.91438ZM 3.19818 8.84361L 25.0982 2.94361L 24.838 1.97804L 2.93805 7.87804L 3.19818 8.84361ZM 25.0894 2.9459C 25.3537 2.87981 25.594 2.76203 25.7774 2.57577C 25.966 2.38431 26.0691 2.14575 26.0912 1.89164C 26.1331 1.40967 25.8854 0.9294 25.5477 0.535426L 24.7885 1.18622C 25.0508 1.49224 25.1031 1.71198 25.095 1.80501C 25.0921 1.8384 25.0827 1.85609 25.065 1.87401C 25.0423 1.89713 24.9825 1.94184 24.8468 1.97576L 25.0894 2.9459Z"/>
</defs>
</svg>
