<svg width="90" height="25" viewBox="0 0 90 25" version="1.1" xmlns="http://www.w3.org/2000/svg" xmlns:xlink="http://www.w3.org/1999/xlink">
<title>get.android</title>
<desc>Created using Figma</desc>
<g id="Canvas" transform="translate(485 277)">
<g id="get.android">
<g id="Google Play">
<g id="google">
<g id="Shape">
<use xlink:href="#path0_fill" transform="translate(-428.264 -264.556)" fill="#FFFFFF"/>
</g>
<g id="Shape">
<use xlink:href="#path1_fill" transform="translate(-432.113 -268.199)" fill="#FFFFFF"/>
</g>
<g id="Shape">
<use xlink:href="#path2_fill" transform="translate(-439.332 -264.361)" fill="#FFFFFF"/>
</g>
<g id="Shape">
<use xlink:href="#path3_fill" transform="translate(-446.83 -264.556)" fill="#FFFFFF"/>
</g>
<g id="Shape">
<use xlink:href="#path4_fill" transform="translate(-454.954 -264.556)" fill="#FFFFFF"/>
</g>
<g id="Shape">
<use xlink:href="#path5_fill" transform="translate(-465.787 -267.576)" fill="#FFFFFF"/>
</g>
</g>
<g id="play">
<g id="Shape">
<use xlink:href="#path6_fill" transform="translate(-418.331 -264.588)" fill="#FFFFFF"/>
</g>
<g id="Shape">
<use xlink:href="#path7_fill" transform="translate(-410.808 -267.126)" fill="#FFFFFF"/>
</g>
<g id="Shape">
<use xlink:href="#path8_fill" transform="translate(-402.127 -264.41)" fill="#FFFFFF"/>
</g>
<g id="Shape">
<use xlink:href="#path9_fill" transform="translate(-408.839 -264.59)" fill="#FFFFFF"/>
</g>
</g>
</g>
<g id="get it on">
<g id="Shape">
<use xlink:href="#path10_fill" transform="translate(-465.806 -276.398)" fill="#FFFFFF"/>
</g>
<g id="Shape">
<use xlink:href="#path11_fill" transform="translate(-460.238 -276.319)" fill="#FFFFFF"/>
</g>
<g id="Shape">
<use xlink:href="#path12_fill" transform="translate(-456.047 -276.319)" fill="#FFFFFF"/>
</g>
<g id="Shape">
<use xlink:href="#path13_fill" transform="translate(-449.328 -276.319)" fill="#FFFFFF"/>
</g>
<g id="Shape">
<use xlink:href="#path14_fill" transform="translate(-447.584 -276.319)" fill="#FFFFFF"/>
</g>
<g id="Shape">
<use xlink:href="#path15_fill" transform="translate(-441.076 -276.398)" fill="#FFFFFF"/>
</g>
<g id="Shape">
<use xlink:href="#path16_fill" transform="translate(-435.146 -276.319)" fill="#FFFFFF"/>
</g>
</g>
<g id="google play">
<use xlink:href="#path17_fill" transform="translate(-484.6 -269.6)" fill="#FFFFFF"/>
</g>
</g>
</g>
<defs>
<path id="path0_fill" fill-rule="evenodd" d="M 6.30465 6.05201L 5.57437 6.7365C 5.40605 6.8287 5.23819 6.93573 5.07078 7.01174C 4.56356 7.24065 4.04775 7.29821 3.58941 7.29821C 3.10165 7.29821 2.33698 7.26718 1.55738 6.70637C 0.473731 5.94723 0 4.64346 0 3.50699C 0 1.15401 1.92705 0 3.49846 0C 4.04821 0 4.61243 0.136718 5.07123 0.424995C 5.83409 0.925993 6.03136 1.57765 6.14086 1.92709L 2.551 3.36848L 1.37549 3.45932C 1.75602 5.38821 3.06907 6.51029 4.52013 6.51029C 5.24498 6.51029 5.78296 6.27553 6.2766 6.03267C 6.27614 6.03312 6.37523 5.98185 6.30465 6.05201L 6.30465 6.05201ZM 4.13915 2.21451C 4.43099 2.10927 4.58212 2.01798 4.58212 1.80705C 4.58212 1.20082 3.89211 0.501038 3.06862 0.501038C 2.45824 0.501038 1.31351 0.973254 1.31351 2.61252C 1.31351 2.86841 1.34382 3.14095 1.35966 3.41349L 4.13915 2.21451L 4.13915 2.21451Z"/>
<path id="path1_fill" fill-rule="evenodd" d="M 2.64783 9.57654C 2.64783 10.1666 2.7537 10.2583 3.25549 10.3042C 3.51701 10.3348 3.77763 10.3487 4.03599 10.3789L 3.47131 10.713L 0.780502 10.713C 1.13343 10.2579 1.19406 10.2129 1.19406 9.90935L 1.19406 9.5707L 1.18817 0.547771L 0 0.547771L 1.14338 0L 3.32698 0C 2.8537 0.272086 2.71253 0.438486 2.65145 0.969168L 2.64783 9.57654L 2.64783 9.57654Z"/>
<path id="path2_fill" fill-rule="evenodd" d="M 5.69427 0.54912C 6.04448 0.835598 6.77657 1.44318 6.77657 2.59674C 6.77657 3.72061 6.13905 4.2504 5.49609 4.75184C 5.29882 4.94928 5.06851 5.16335 5.06851 5.49435C 5.06851 5.82985 5.29927 6.01199 5.46533 6.1478L 6.01688 6.571C 6.68743 7.13361 7.29871 7.64945 7.29871 8.69732C 7.29871 10.1252 5.90874 11.5644 3.28218 11.5644C 1.06963 11.5644 0 10.5174 0 9.3944C 0 8.84753 0.273289 8.07355 1.17686 7.54377C 2.12342 6.96856 3.40616 6.89166 4.09255 6.84668C 3.87808 6.57145 3.63329 6.28317 3.63329 5.81276C 3.63329 5.55551 3.71112 5.40215 3.78623 5.22136C 3.61927 5.2371 3.45095 5.25329 3.29802 5.25329C 1.67865 5.25329 0.762856 4.05251 0.762856 2.86883C 0.762856 2.17085 1.0832 1.39686 1.74109 0.835148C 2.61163 0.122776 3.64958 0 4.47443 0L 7.62087 0L 6.64264 0.54912L 5.69427 0.54912L 5.69427 0.54912ZM 4.612 7.28648C 4.48712 7.27029 4.41201 7.27029 4.26088 7.27029C 4.12243 7.27029 3.29759 7.29998 2.65871 7.51315C 2.32071 7.63592 1.34384 7.99886 1.34384 9.07731C 1.34384 10.1531 2.39854 10.9284 4.03058 10.9284C 5.49611 10.9284 6.27481 10.23 6.27481 9.28958C 6.27435 8.5156 5.77076 8.10724 4.612 7.28648L 4.612 7.28648ZM 5.05131 4.40286C 5.40424 4.05297 5.435 3.56906 5.435 3.29382C 5.435 2.20233 4.78029 0.50235 3.51112 0.50235C 3.11521 0.50235 2.68628 0.700231 2.44285 1.00515C 2.18495 1.32131 2.10757 1.73146 2.10757 2.12587C 2.10757 3.14226 2.70347 4.82785 4.01562 4.82785C 4.39795 4.82785 4.8097 4.64301 5.05131 4.40286L 5.05131 4.40286Z"/>
<path id="path3_fill" fill-rule="evenodd" d="M 3.7256 7.26718C 1.29857 7.26718 0 5.38821 0 3.68778C 0 1.70043 1.63249 0 3.95454 0C 6.19922 0 7.60503 1.74675 7.60503 3.58075C 7.60503 5.37157 6.21551 7.26718 3.7256 7.26718L 3.7256 7.26718ZM 5.635 6.03941C 6.00421 5.5537 6.0938 4.94747 6.0938 4.35652C 6.0938 3.01992 5.45311 0.470856 3.55955 0.470856C 3.05595 0.470856 2.54874 0.666488 2.18315 0.986246C 1.5868 1.51738 1.48047 2.18433 1.48047 2.83913C 1.48047 4.33853 2.22568 6.8116 4.07626 6.8116C 4.67397 6.8116 5.28344 6.52422 5.635 6.03941L 5.635 6.03941Z"/>
<path id="path4_fill" fill-rule="evenodd" d="M 3.72424 7.26718C 1.29677 7.26718 0 5.38821 0 3.68778C 0 1.70043 1.63295 0 3.95409 0C 6.19741 0 7.60187 1.74675 7.60187 3.58075C 7.60232 5.37157 6.21461 7.26718 3.72424 7.26718L 3.72424 7.26718ZM 5.6341 6.03941C 6.0006 5.5537 6.092 4.94747 6.092 4.35652C 6.092 3.01992 5.4495 0.470856 3.55774 0.470856C 3.05234 0.470856 2.55055 0.666488 2.18406 0.986246C 1.5868 1.51738 1.48093 2.18433 1.48093 2.83913C 1.48093 4.33853 2.2293 6.8116 4.07672 6.8116C 4.67307 6.8116 5.28163 6.52422 5.6341 6.03941L 5.6341 6.03941Z"/>
<path id="path5_fill" fill-rule="evenodd" d="M 9.86238 9.76003L 7.81543 10.2255C 6.98606 10.3555 6.2413 10.4702 5.45266 10.4702C 1.50399 10.4702 0 7.58109 0 5.32075C 0 2.55941 2.13156 0 5.7816 0C 6.55396 0 7.29736 0.112882 7.97425 0.295922C 9.04704 0.595892 9.54837 0.96467 9.86238 1.18144L 8.6733 2.30397L 8.17197 2.4155L 8.52942 1.84884C 8.04528 1.37887 7.15528 0.511343 5.46623 0.511343C 3.20798 0.511343 1.50399 2.21762 1.50399 4.70867C 1.50399 7.38411 3.44959 9.9008 6.56889 9.9008C 7.48558 9.9008 7.9575 9.71776 8.38599 9.54686L 8.38599 7.25324L 6.22502 7.36882L 7.37066 6.75719L 10.4035 6.75719L 10.033 7.11203C 9.93251 7.19658 9.91939 7.22536 9.89134 7.33869C 9.87641 7.46821 9.86283 7.88016 9.86283 8.02498L 9.86283 9.76003L 9.86238 9.76003Z"/>
<path id="path6_fill" fill-rule="evenodd" d="M 0.772358 6.1487L 0.772358 10.0146L 0 10.0146L 0 0.178093L 0.772358 0.178093L 0.772358 1.29792C 1.27505 0.574305 2.19446 0 3.26273 0C 5.17756 0 6.46799 1.44408 6.46799 3.73006C 6.46799 6.00074 5.17756 7.47496 3.26273 7.47496C 2.25463 7.47541 1.35151 6.95867 0.772358 6.1487L 0.772358 6.1487ZM 5.63815 3.73048C 5.63815 2.00756 4.73458 0.693451 3.1324 0.693451C 2.13743 0.693451 1.18589 1.47103 0.772339 2.14833L 0.772339 5.29688C 1.18589 5.97598 2.13743 6.78144 3.1324 6.78144C 4.73458 6.78144 5.63815 5.45609 5.63815 3.73048L 5.63815 3.73048Z"/>
<path id="path7_fill" fill-rule="evenodd" d="M 0 9.83604L 0 0L 0.771906 0L 0.771906 9.83604L 0 9.83604L 0 9.83604Z"/>
<path id="path8_fill" fill-rule="evenodd" d="M 0.756974 9.20012C 0.921671 9.27298 1.20356 9.3184 1.38273 9.3184C 1.85511 9.3184 2.18405 9.12637 2.47951 8.44772L 3.04283 7.17949L 0 3.19552e-15L 0.861494 3.19552e-15L 3.47131 6.22156L 6.05579 0L 6.9295 0L 3.21884 8.68563C 2.83379 9.58059 2.22794 10.011 1.39585 10.011C 1.14609 10.011 0.817152 9.96646 0.623949 9.908L 0.756974 9.20012L 0.756974 9.20012Z"/>
<path id="path9_fill" fill-rule="evenodd" d="M 5.2133 7.27888C 5.16172 7.03197 5.12281 6.81475 5.09431 6.63261C 5.07032 6.45137 5.0572 6.26608 5.0572 6.07765C 4.79206 6.46397 4.41696 6.78552 3.9378 7.03917C 3.45819 7.29372 3.00301 7.41919 2.3777 7.41919C 1.62525 7.41919 1.04157 7.23525 0.624402 6.86198C 0.209039 6.48915 0 5.9841 0 5.34504C 0 4.70687 0.302699 4.18878 0.906288 3.79257C 1.50988 3.39456 2.29038 3.19713 3.25549 3.19713L 5.05675 3.19713L 5.05675 2.31206C 5.05675 1.80252 4.88165 1.40226 4.53325 1.11128C 4.18304 0.820757 3.69166 0.673245 3.05414 0.673245C 2.47182 0.673245 1.99944 0.807715 1.63973 1.06946C 1.28319 1.3366 1.10401 1.6676 1.10401 2.06651L 0.313558 2.06651L 0.29727 2.02828C 0.268312 1.49085 0.516263 1.01864 1.04248 0.611632C 1.56598 0.204627 2.25282 0 3.09758 0C 3.93916 0 4.62057 0.201479 5.13457 0.603537C 5.64767 1.00155 5.90512 1.57675 5.90512 2.3287L 5.90512 5.84154C 5.90512 6.09384 5.91689 6.33759 5.94901 6.57505C 5.98159 6.81296 6.03362 7.05041 6.10285 7.27978L 5.2133 7.27978L 5.2133 7.27888ZM 2.47271 6.71939C 3.12878 6.71939 3.60025 6.57368 4.08258 6.2854C 4.56129 5.99848 4.88661 5.62475 5.05764 5.17232L 5.05764 3.80515L 3.24778 3.80515C 2.55642 3.80515 1.98405 3.95715 1.53385 4.26432C 1.08274 4.57014 0.85379 4.94026 0.85379 5.37065C 0.85379 5.77631 0.998579 6.10147 1.2868 6.34747C 1.57502 6.59617 1.96957 6.71939 2.47271 6.71939L 2.47271 6.71939Z"/>
<path id="path10_fill" fill-rule="evenodd" d="M 0 2.48341C 0 0.971866 1.12981 0 2.53516 0C 3.47674 0 4.09209 0.446132 4.47624 0.993453L 3.78804 1.38966C 3.52742 1.02943 3.07088 0.7488 2.53516 0.7488C 1.57956 0.7488 0.869186 1.46882 0.869186 2.48341C 0.869186 3.48406 1.5791 4.21802 2.53516 4.21802C 3.0279 4.21802 3.46226 3.99495 3.67945 3.78627L 3.67945 3.04467L 2.23111 3.04467L 2.23111 2.30352L 4.51967 2.30352L 4.51967 4.09569C 4.04911 4.62142 3.36815 4.97401 2.53516 4.97401C 1.12981 4.97401 0 3.9882 0 2.48341L 0 2.48341Z"/>
<path id="path11_fill" fill-rule="evenodd" d="M 0 4.80176L 0 0L 3.30933 0L 3.30933 0.741604L 0.847015 0.741604L 0.847015 1.97971L 3.25911 1.97971L 3.25911 2.72131L 0.847015 2.72131L 0.847015 4.06061L 3.30933 4.06061L 3.30933 4.80176L 0 4.80176L 0 4.80176Z"/>
<path id="path12_fill" fill-rule="evenodd" d="M 1.46282 4.80131L 1.46282 0.741604L 0 0.741604L 0 0L 3.77311 0L 3.77311 0.741604L 2.31074 0.741604L 2.31074 4.80131L 1.46282 4.80131L 1.46282 4.80131Z"/>
<path id="path13_fill" fill-rule="evenodd" d="M 0 4.80176L 0 0L 0.847015 0L 0.847015 4.80176L 0 4.80176L 0 4.80176Z"/>
<path id="path14_fill" fill-rule="evenodd" d="M 1.46282 4.80131L 1.46282 0.741604L 0 0.741604L 0 0L 3.77311 0L 3.77311 0.741604L 2.31029 0.741604L 2.31029 4.80131L 1.46282 4.80131L 1.46282 4.80131Z"/>
<path id="path15_fill" fill-rule="evenodd" d="M 0 2.48341C 0 1.05057 1.02121 0 2.47001 0C 3.91066 0 4.93956 1.05102 4.93956 2.48341C 4.93956 3.9158 3.91066 4.96681 2.47001 4.96681C 1.02076 4.96681 0 3.9158 0 2.48341L 0 2.48341ZM 4.07037 2.48342C 4.07037 1.48996 3.44009 0.748809 2.47 0.748809C 1.49222 0.748809 0.86918 1.48996 0.86918 2.48342C 0.86918 3.46922 1.49222 4.21802 2.47 4.21802C 3.44009 4.21802 4.07037 3.46922 4.07037 2.48342L 4.07037 2.48342Z"/>
<path id="path16_fill" fill-rule="evenodd" d="M 3.36725 4.80176L 0.847015 1.36808L 0.847015 4.80176L 0 4.80176L 0 0L 0.869185 0L 3.33874 3.3262L 3.33874 0L 4.18621 0L 4.18621 4.80176L 3.36725 4.80176L 3.36725 4.80176Z"/>
<path id="path17_fill" fill-rule="evenodd" d="M 0.459795 15.6196C 0.181283 15.5448 0 15.2691 0 14.8424L 0 0.758571C 0 0.363407 0.153495 0.0968976 0.396814 0L 0.396814 0L 7.33767 7.84872L 0.459795 15.6196L 0.459795 15.6196ZM 1.41528 15.3207L 9.76989 10.599L 7.73501 8.298L 1.41528 15.3207L 1.41528 15.3207ZM 9.82741 5.03572L 1.58923 0.378815L 7.74704 7.38619L 9.82741 5.03572L 9.82741 5.03572ZM 10.3864 5.35172L 13.6136 7.17603C 14.2247 7.52144 14.2302 8.07825 13.6136 8.42674L 10.3047 10.2968L 8.14645 7.84076L 10.3864 5.35172L 10.3864 5.35172Z"/>
</defs>
</svg>
