<svg width="80" height="24" viewBox="0 0 80 24" version="1.1" xmlns="http://www.w3.org/2000/svg" xmlns:xlink="http://www.w3.org/1999/xlink">
<title>get.ios</title>
<desc>Created using Figma</desc>
<g id="Canvas" transform="translate(594 276)">
<g id="get.ios">
<g id="Available on the">
<use xlink:href="#path0_fill" transform="translate(-576.456 -275.842)" fill="#FFFFFF"/>
<use xlink:href="#path1_fill" transform="translate(-576.456 -275.842)" fill="#FFFFFF"/>
<use xlink:href="#path2_fill" transform="translate(-576.456 -275.842)" fill="#FFFFFF"/>
<use xlink:href="#path3_fill" transform="translate(-576.456 -275.842)" fill="#FFFFFF"/>
<use xlink:href="#path4_fill" transform="translate(-576.456 -275.842)" fill="#FFFFFF"/>
<use xlink:href="#path5_fill" transform="translate(-576.456 -275.842)" fill="#FFFFFF"/>
<use xlink:href="#path6_fill" transform="translate(-576.456 -275.842)" fill="#FFFFFF"/>
<use xlink:href="#path7_fill" transform="translate(-576.456 -275.842)" fill="#FFFFFF"/>
<use xlink:href="#path8_fill" transform="translate(-576.456 -275.842)" fill="#FFFFFF"/>
<use xlink:href="#path9_fill" transform="translate(-576.456 -275.842)" fill="#FFFFFF"/>
<use xlink:href="#path10_fill" transform="translate(-576.456 -275.842)" fill="#FFFFFF"/>
<use xlink:href="#path11_fill" transform="translate(-576.456 -275.842)" fill="#FFFFFF"/>
<use xlink:href="#path12_fill" transform="translate(-576.456 -275.842)" fill="#FFFFFF"/>
<use xlink:href="#path13_fill" transform="translate(-576.456 -275.842)" fill="#FFFFFF"/>
</g>
<g id="App Store">
<use xlink:href="#path14_fill" transform="translate(-576.27 -266.623)" fill="#FFFFFF"/>
<use xlink:href="#path15_fill" transform="translate(-576.27 -266.623)" fill="#FFFFFF"/>
<use xlink:href="#path16_fill" transform="translate(-576.27 -266.623)" fill="#FFFFFF"/>
<use xlink:href="#path17_fill" transform="translate(-576.27 -266.623)" fill="#FFFFFF"/>
<use xlink:href="#path18_fill" transform="translate(-576.27 -266.623)" fill="#FFFFFF"/>
<use xlink:href="#path19_fill" transform="translate(-576.27 -266.623)" fill="#FFFFFF"/>
<use xlink:href="#path20_fill" transform="translate(-576.27 -266.623)" fill="#FFFFFF"/>
<use xlink:href="#path21_fill" transform="translate(-576.27 -266.623)" fill="#FFFFFF"/>
</g>
<g id="iPhone">
<use xlink:href="#path22_fill" transform="translate(-593.32 -275.88)" fill="#FFFFFF"/>
</g>
</g>
</g>
<defs>
<path id="path0_fill" d="M 3.57504 4.46208L 4.22016 6.3616L 5.05344 6.3616L 2.99264 0.32256L 2.05184 0.32256L 0 6.3616L 0.8064 6.3616L 1.4336 4.46208L 3.57504 4.46208ZM 1.59488 3.8528L 2.18624 2.1056C 2.30272 1.73824 2.40128 1.37088 2.49088 1.01248L 2.5088 1.01248C 2.5984 1.36192 2.688 1.72032 2.8224 2.11456L 3.41376 3.8528L 1.59488 3.8528Z"/>
<path id="path1_fill" d="M 5.26303 2.02496L 6.91167 6.3616L 7.66431 6.3616L 9.36671 2.02496L 8.54239 2.02496L 7.70015 4.46208C 7.55679 4.85632 7.43135 5.21472 7.33279 5.57312L 7.30591 5.57312C 7.21631 5.21472 7.09983 4.85632 6.95647 4.46208L 6.10527 2.02496L 5.26303 2.02496Z"/>
<path id="path2_fill" d="M 13.2743 6.3616C 13.2205 6.06592 13.2026 5.69856 13.2026 5.32224L 13.2026 3.70048C 13.2026 2.83136 12.88 1.9264 11.5539 1.9264C 11.0074 1.9264 10.4877 2.07872 10.1293 2.31168L 10.3085 2.83136C 10.6131 2.63424 11.0343 2.5088 11.4375 2.5088C 12.3245 2.5088 12.4231 3.15392 12.4231 3.51232L 12.4231 3.60192C 10.7475 3.59296 9.8157 4.1664 9.8157 5.21472C 9.8157 5.84192 10.2637 6.46016 11.1418 6.46016C 11.76 6.46016 12.2259 6.15552 12.4679 5.81504L 12.4947 5.81504L 12.5575 6.3616L 13.2743 6.3616ZM 12.441 4.90112C 12.441 4.98176 12.4231 5.07136 12.3962 5.152C 12.2707 5.51936 11.9123 5.87776 11.3479 5.87776C 10.9447 5.87776 10.6042 5.63584 10.6042 5.12512C 10.6042 4.28288 11.5808 4.13056 12.441 4.14848L 12.441 4.90112Z"/>
<path id="path3_fill" d="M 15.344 6.3616L 15.344 2.02496L 14.5555 2.02496L 14.5555 6.3616L 15.344 6.3616ZM 14.9497 0.3136C 14.663 0.3136 14.4569 0.52864 14.4569 0.8064C 14.4569 1.0752 14.654 1.29024 14.9318 1.29024C 15.2454 1.29024 15.4425 1.0752 15.4336 0.8064C 15.4336 0.52864 15.2454 0.3136 14.9497 0.3136Z"/>
<path id="path4_fill" d="M 16.7323 6.3616L 17.5208 6.3616L 17.5208 0L 16.7323 0L 16.7323 6.3616Z"/>
<path id="path5_fill" d="M 22.0447 6.3616C 21.9909 6.06592 21.973 5.69856 21.973 5.32224L 21.973 3.70048C 21.973 2.83136 21.6504 1.9264 20.3243 1.9264C 19.7778 1.9264 19.2581 2.07872 18.8997 2.31168L 19.0789 2.83136C 19.3835 2.63424 19.8047 2.5088 20.2079 2.5088C 21.0949 2.5088 21.1935 3.15392 21.1935 3.51232L 21.1935 3.60192C 19.5179 3.59296 18.5861 4.1664 18.5861 5.21472C 18.5861 5.84192 19.0341 6.46016 19.9122 6.46016C 20.5304 6.46016 20.9963 6.15552 21.2383 5.81504L 21.2651 5.81504L 21.3279 6.3616L 22.0447 6.3616ZM 21.2114 4.90112C 21.2114 4.98176 21.1935 5.07136 21.1666 5.152C 21.0411 5.51936 20.6827 5.87776 20.1183 5.87776C 19.7151 5.87776 19.3746 5.63584 19.3746 5.12512C 19.3746 4.28288 20.3512 4.13056 21.2114 4.14848L 21.2114 4.90112Z"/>
<path id="path6_fill" d="M 23.971 6.3616L 24.0068 5.6448L 24.0337 5.6448C 24.3563 6.21824 24.858 6.46016 25.4852 6.46016C 26.4529 6.46016 27.4296 5.6896 27.4296 4.13952C 27.4385 2.8224 26.6769 1.9264 25.6017 1.9264C 24.9028 1.9264 24.4011 2.24 24.1233 2.72384L 24.1054 2.72384L 24.1054 0L 23.3259 0L 23.3259 5.2416C 23.3259 5.62688 23.308 6.06592 23.29 6.3616L 23.971 6.3616ZM 24.1054 3.84384C 24.1054 3.7184 24.1323 3.61088 24.1502 3.52128C 24.3115 2.92096 24.8132 2.5536 25.3508 2.5536C 26.1931 2.5536 26.6411 3.29728 26.6411 4.1664C 26.6411 5.16096 26.1483 5.83296 25.324 5.83296C 24.7505 5.83296 24.2936 5.45664 24.1412 4.91008C 24.1233 4.82048 24.1054 4.72192 24.1054 4.62336L 24.1054 3.84384Z"/>
<path id="path7_fill" d="M 28.5039 6.3616L 29.2924 6.3616L 29.2924 0L 28.5039 0L 28.5039 6.3616Z"/>
<path id="path8_fill" d="M 34.1837 4.33664C 34.1926 4.256 34.2105 4.13056 34.2105 3.96928C 34.2105 3.17184 33.8342 1.9264 32.4186 1.9264C 31.1552 1.9264 30.3846 2.9568 30.3846 4.26496C 30.3846 5.57312 31.1821 6.4512 32.5171 6.4512C 33.207 6.4512 33.6819 6.30784 33.9597 6.1824L 33.8253 5.61792C 33.5296 5.74336 33.1891 5.84192 32.6246 5.84192C 31.8362 5.84192 31.1552 5.40288 31.1373 4.33664L 34.1837 4.33664ZM 31.1462 3.77216C 31.209 3.2256 31.5584 2.49088 32.3558 2.49088C 33.2429 2.49088 33.4579 3.2704 33.449 3.77216L 31.1462 3.77216Z"/>
<path id="path9_fill" d="M 39.0761 1.9264C 37.8755 1.9264 36.9257 2.7776 36.9257 4.22912C 36.9257 5.6 37.8307 6.46016 39.0044 6.46016C 40.0528 6.46016 41.1638 5.76128 41.1638 4.15744C 41.1638 2.83136 40.3216 1.9264 39.0761 1.9264ZM 39.0582 2.51776C 39.99 2.51776 40.3574 3.4496 40.3574 4.18432C 40.3574 5.16096 39.7929 5.8688 39.0403 5.8688C 38.2697 5.8688 37.7232 5.152 37.7232 4.20224C 37.7232 3.37792 38.1264 2.51776 39.0582 2.51776Z"/>
<path id="path10_fill" d="M 42.2336 6.3616L 43.0221 6.3616L 43.0221 3.75424C 43.0221 3.61984 43.04 3.48544 43.0759 3.38688C 43.2103 2.94784 43.6135 2.58048 44.1332 2.58048C 44.8768 2.58048 45.1367 3.16288 45.1367 3.86176L 45.1367 6.3616L 45.9252 6.3616L 45.9252 3.77216C 45.9252 2.2848 44.9933 1.9264 44.393 1.9264C 43.6762 1.9264 43.1744 2.3296 42.9594 2.74176L 42.9415 2.74176L 42.8967 2.02496L 42.1978 2.02496C 42.2247 2.38336 42.2336 2.75072 42.2336 3.19872L 42.2336 6.3616Z"/>
<path id="path11_fill" d="M 49.4352 0.9856L 49.4352 2.02496L 48.7632 2.02496L 48.7632 2.62528L 49.4352 2.62528L 49.4352 4.99072C 49.4352 5.50144 49.5158 5.88672 49.7398 6.11968C 49.928 6.33472 50.2237 6.4512 50.591 6.4512C 50.8957 6.4512 51.1376 6.4064 51.2899 6.34368L 51.2541 5.75232C 51.1555 5.7792 51.0032 5.80608 50.7971 5.80608C 50.3581 5.80608 50.2057 5.50144 50.2057 4.96384L 50.2057 2.62528L 51.3347 2.62528L 51.3347 2.02496L 50.2057 2.02496L 50.2057 0.77952L 49.4352 0.9856Z"/>
<path id="path12_fill" d="M 52.299 6.3616L 53.0875 6.3616L 53.0875 3.74528C 53.0875 3.59296 53.0965 3.47648 53.1413 3.36896C 53.2846 2.93888 53.6878 2.58048 54.1986 2.58048C 54.9422 2.58048 55.2021 3.17184 55.2021 3.87072L 55.2021 6.3616L 55.9906 6.3616L 55.9906 3.78112C 55.9906 2.2848 55.0587 1.9264 54.4763 1.9264C 54.1806 1.9264 53.9029 2.016 53.6699 2.1504C 53.428 2.2848 53.2309 2.48192 53.1054 2.70592L 53.0875 2.70592L 53.0875 0L 52.299 0L 52.299 6.3616Z"/>
<path id="path13_fill" d="M 60.8313 4.33664C 60.8402 4.256 60.8582 4.13056 60.8582 3.96928C 60.8582 3.17184 60.4818 1.9264 59.0661 1.9264C 57.8028 1.9264 57.0322 2.9568 57.0322 4.26496C 57.0322 5.57312 57.8297 6.4512 59.1647 6.4512C 59.8546 6.4512 60.3295 6.30784 60.6073 6.1824L 60.4729 5.61792C 60.1772 5.74336 59.8367 5.84192 59.2722 5.84192C 58.4837 5.84192 57.8028 5.40288 57.7849 4.33664L 60.8313 4.33664ZM 57.7938 3.77216C 57.8565 3.2256 58.206 2.49088 59.0034 2.49088C 59.8905 2.49088 60.1055 3.2704 60.0965 3.77216L 57.7938 3.77216Z"/>
<path id="path14_fill" d="M 6.53722 7.74963L 7.71686 11.223L 9.24058 11.223L 5.47226 0.180224L 3.75194 0.180224L 0 11.223L 1.47456 11.223L 2.62144 7.74963L 6.53722 7.74963ZM 2.91635 6.63552L 3.9977 3.44064C 4.21069 2.7689 4.39091 2.09715 4.55475 1.44179L 4.58752 1.44179C 4.75136 2.08077 4.9152 2.73613 5.16096 3.45702L 6.2423 6.63552L 2.91635 6.63552Z"/>
<path id="path15_fill" d="M 10.1944 14.4671L 11.6198 14.4671L 11.6198 10.1581L 11.6526 10.1581C 12.1277 10.9445 13.0452 11.4033 14.0938 11.4033C 15.9616 11.4033 17.6983 9.99424 17.6983 7.14342C 17.6983 4.73498 16.2565 3.11296 14.3396 3.11296C 13.0452 3.11296 12.1114 3.6864 11.5215 4.65306L 11.4888 4.65306L 11.4232 3.29318L 10.1289 3.29318C 10.1617 4.04685 10.1944 4.86605 10.1944 5.88186L 10.1944 14.4671ZM 11.6198 6.63552C 11.6198 6.43891 11.669 6.22592 11.7181 6.0457C 11.9967 4.96435 12.9142 4.25984 13.8972 4.25984C 15.4209 4.25984 16.2565 5.61971 16.2565 7.20896C 16.2565 9.02758 15.3718 10.2728 13.8481 10.2728C 12.8159 10.2728 11.9475 9.58464 11.6854 8.58522C 11.6526 8.40499 11.6198 8.20838 11.6198 7.99539L 11.6198 6.63552Z"/>
<path id="path16_fill" d="M 18.9464 14.4671L 20.3718 14.4671L 20.3718 10.1581L 20.4046 10.1581C 20.8797 10.9445 21.7972 11.4033 22.8458 11.4033C 24.7136 11.4033 26.4503 9.99424 26.4503 7.14342C 26.4503 4.73498 25.0085 3.11296 23.0916 3.11296C 21.7972 3.11296 20.8634 3.6864 20.2735 4.65306L 20.2408 4.65306L 20.1752 3.29318L 18.8809 3.29318C 18.9137 4.04685 18.9464 4.86605 18.9464 5.88186L 18.9464 14.4671ZM 20.3718 6.63552C 20.3718 6.43891 20.421 6.22592 20.4701 6.0457C 20.7487 4.96435 21.6662 4.25984 22.6492 4.25984C 24.1729 4.25984 25.0085 5.61971 25.0085 7.20896C 25.0085 9.02758 24.1238 10.2728 22.6001 10.2728C 21.5679 10.2728 20.6995 9.58464 20.4374 8.58522C 20.4046 8.40499 20.3718 8.20838 20.3718 7.99539L 20.3718 6.63552Z"/>
<path id="path17_fill" d="M 30.0865 10.6824C 30.6764 11.0756 31.8396 11.3869 32.9046 11.3869C 35.5096 11.3869 36.7712 9.91232 36.7712 8.20838C 36.7712 6.58637 35.8209 5.68525 33.9532 4.96435C 32.4294 4.37453 31.7577 3.86662 31.7577 2.83443C 31.7577 2.08077 32.3311 1.17965 33.8385 1.17965C 34.8379 1.17965 35.5752 1.50733 35.9356 1.70394L 36.3288 0.540672C 35.8373 0.262144 35.0181 0 33.8876 0C 31.7413 0 30.3159 1.27795 30.3159 2.99827C 30.3159 4.55475 31.43 5.48864 33.2323 6.12762C 34.7232 6.70106 35.313 7.29088 35.313 8.32307C 35.313 9.43718 34.4611 10.2072 33.0029 10.2072C 32.0198 10.2072 31.086 9.87955 30.447 9.48634L 30.0865 10.6824Z"/>
<path id="path18_fill" d="M 38.3781 1.39264L 38.3781 3.29318L 37.1493 3.29318L 37.1493 4.39091L 38.3781 4.39091L 38.3781 8.71629C 38.3781 9.65018 38.5256 10.3547 38.9352 10.7807C 39.2792 11.1739 39.8199 11.3869 40.4917 11.3869C 41.0487 11.3869 41.4911 11.305 41.7696 11.1903L 41.7041 10.1089C 41.5238 10.1581 41.2453 10.2072 40.8685 10.2072C 40.0657 10.2072 39.7871 9.65018 39.7871 8.66714L 39.7871 4.39091L 41.8515 4.39091L 41.8515 3.29318L 39.7871 3.29318L 39.7871 1.01581L 38.3781 1.39264Z"/>
<path id="path19_fill" d="M 46.1612 3.11296C 43.9657 3.11296 42.229 4.66944 42.229 7.32365C 42.229 9.8304 43.8838 11.4033 46.0301 11.4033C 47.947 11.4033 49.9786 10.1253 49.9786 7.19258C 49.9786 4.76774 48.4385 3.11296 46.1612 3.11296ZM 46.1284 4.1943C 47.8323 4.1943 48.5041 5.89824 48.5041 7.24173C 48.5041 9.02758 47.4719 10.3219 46.0956 10.3219C 44.6866 10.3219 43.6872 9.0112 43.6872 7.2745C 43.6872 5.76717 44.4244 4.1943 46.1284 4.1943Z"/>
<path id="path20_fill" d="M 51.2184 11.223L 52.6438 11.223L 52.6438 6.99597C 52.6438 6.75021 52.6766 6.52083 52.7094 6.32422C 52.906 5.24288 53.6269 4.47283 54.6427 4.47283C 54.8393 4.47283 54.9868 4.48922 55.1342 4.52198L 55.1342 3.16211C 55.0031 3.12934 54.8884 3.11296 54.7246 3.11296C 53.758 3.11296 52.8896 3.7847 52.5292 4.84966L 52.4636 4.84966L 52.4145 3.29318L 51.1529 3.29318C 51.2021 4.03046 51.2184 4.83328 51.2184 5.76717L 51.2184 11.223Z"/>
<path id="path21_fill" d="M 62.2158 7.52026C 62.2322 7.3728 62.265 7.14342 62.265 6.84851C 62.265 5.39034 61.5768 3.11296 58.9882 3.11296C 56.678 3.11296 55.269 4.99712 55.269 7.38918C 55.269 9.78125 56.7272 11.3869 59.1684 11.3869C 60.43 11.3869 61.2983 11.1247 61.8062 10.8954L 61.5604 9.86317C 61.0198 10.0925 60.3972 10.2728 59.365 10.2728C 57.9232 10.2728 56.678 9.46995 56.6452 7.52026L 62.2158 7.52026ZM 56.6616 6.48806C 56.7763 5.48864 57.4153 4.14515 58.8735 4.14515C 60.4955 4.14515 60.8887 5.57056 60.8723 6.48806L 56.6616 6.48806Z"/>
<path id="path22_fill" fill-rule="evenodd" d="M 1.65054 0C 0.73897 0 0 0.833617 0 1.86594L 0 21.1741C 0 22.2046 0.738152 23.04 1.65054 23.04L 9.86947 23.04C 10.781 23.04 11.52 22.2064 11.52 21.1741L 11.52 1.86594C 11.52 0.835411 10.7818 0 9.86947 0L 1.65054 0L 1.65054 0ZM 1.08002 3.02164L 1.08002 20.0184L 10.44 20.0184L 10.44 3.02164L 1.08002 3.02164L 1.08002 3.02164ZM 5.75998 22.2846C 6.15762 22.2846 6.47998 21.9464 6.47998 21.5292C 6.47998 21.112 6.15762 20.7738 5.75998 20.7738C 5.36233 20.7738 5.03998 21.112 5.03998 21.5292C 5.03998 21.9464 5.36233 22.2846 5.75998 22.2846L 5.75998 22.2846ZM 4.32001 1.51082C 4.32001 1.71942 4.44376 1.88853 4.60668 1.88853L 6.91333 1.88853C 7.07166 1.88853 7.20001 1.71332 7.20001 1.51082C 7.20001 1.30222 7.07626 1.13312 6.91333 1.13312L 4.60668 1.13312C 4.44836 1.13312 4.32001 1.30832 4.32001 1.51082Z"/>
</defs>
</svg>
