<?xml version="1.0" encoding="UTF-8"?>
<svg width="19px" height="16px" viewBox="0 0 19 16" version="1.1" xmlns="http://www.w3.org/2000/svg" xmlns:xlink="http://www.w3.org/1999/xlink">
    <!-- Generator: Sketch 48.1 (47250) - http://www.bohemiancoding.com/sketch -->
    <title>github</title>
    <desc>Created with Sketch.</desc>
    <defs></defs>
    <g id="ico" stroke="none" stroke-width="1" fill="none" fill-rule="evenodd">
        <path d="M7.14286566,10.7142985 C7.14286566,11.5290316 6.71875801,12.8571582 5.71429253,12.8571582 C4.70982704,12.8571582 4.28571939,11.5290316 4.28571939,10.7142985 C4.28571939,9.89956537 4.70982704,8.57143879 5.71429253,8.57143879 C6.71875801,8.57143879 7.14286566,9.89956537 7.14286566,10.7142985 Z M14.2857313,10.7142985 C14.2857313,11.5290316 13.8616237,12.8571582 12.8571582,12.8571582 C11.8526927,12.8571582 11.4285851,11.5290316 11.4285851,10.7142985 C11.4285851,9.89956537 11.8526927,8.57143879 12.8571582,8.57143879 C13.8616237,8.57143879 14.2857313,9.89956537 14.2857313,10.7142985 Z M16.0714477,10.7142985 C16.0714477,9.00670717 15.0335001,7.50000894 13.2143015,7.50000894 C12.4776934,7.50000894 11.7745676,7.63393767 11.0379596,7.73438422 C10.4576018,7.82367004 9.87724392,7.85715222 9.28572536,7.85715222 C8.69420679,7.85715222 8.11384896,7.82367004 7.53349112,7.73438422 C6.80804383,7.63393767 6.09375726,7.50000894 5.35714924,7.50000894 C3.53795065,7.50000894 2.50000298,9.00670717 2.50000298,10.7142985 C2.50000298,14.1294811 5.62500671,14.6540353 8.34822424,14.6540353 L10.2232265,14.6540353 C12.946444,14.6540353 16.0714477,14.1294811 16.0714477,10.7142985 Z M18.5714507,8.75001043 C18.5714507,9.98885119 18.4486827,11.305817 17.8906463,12.4442113 C16.4174303,15.4241255 12.3660862,15.7143044 9.464297,15.7143044 C6.51786491,15.7143044 2.22098479,15.4576077 0.691965111,12.4442113 C0.122768003,11.3169778 0,9.98885119 0,8.75001043 C0,7.1205442 0.446429104,5.5803638 1.51785895,4.33036231 C1.31696586,3.71652229 1.21651931,3.06920009 1.21651931,2.43303861 C1.21651931,1.59598405 1.40625168,0.758929476 1.78571641,0 C3.54911137,0 4.67634486,0.770090204 6.01563217,1.8191986 C7.14286566,1.55134114 8.30358133,1.42857313 9.464297,1.42857313 C10.5134054,1.42857313 11.5736745,1.54018041 12.5893007,1.78571641 C13.9174273,0.747768749 15.0446608,0 16.7857343,0 C17.165199,0.758929476 17.3549314,1.59598405 17.3549314,2.43303861 C17.3549314,3.06920009 17.2544849,3.70536156 17.0535918,4.30804085 C18.1250216,5.56920307 18.5714507,7.1205442 18.5714507,8.75001043 Z" id="github" fill="#AFBBBF"></path>
    </g>
</svg>