<?xml version="1.0" encoding="UTF-8"?>
<svg width="18px" height="17px" viewBox="0 0 18 17" version="1.1" xmlns="http://www.w3.org/2000/svg" xmlns:xlink="http://www.w3.org/1999/xlink">
    <!-- Generator: Sketch 48.1 (47250) - http://www.bohemiancoding.com/sketch -->
    <title>linkedin</title>
    <desc>Created with Sketch.</desc>
    <defs></defs>
    <g id="ico" stroke="none" stroke-width="1" fill="none" fill-rule="evenodd">
        <path d="M3.89509393,5.83257717 L3.89509393,16.8928582 L0.212053824,16.8928582 L0.212053824,5.83257717 L3.89509393,5.83257717 Z M4.12946921,2.41739452 C4.14062994,3.47766364 3.33705755,4.32587894 2.05357388,4.32587894 L2.03125242,4.32587894 C0.792411659,4.32587894 0,3.47766364 0,2.41739452 C0,1.33480395 0.825893842,0.508910105 2.07589533,0.508910105 C3.33705755,0.508910105 4.11830848,1.33480395 4.12946921,2.41739452 Z M9.59822573,7.40462334 C10.0827352,6.64721633 10.9567698,5.57588043 12.9129618,5.57588043 C15.3348397,5.57588043 17.1428776,7.16070375 17.1428776,10.5535649 L17.1428776,16.8928582 L13.4709982,16.8928582 L13.4709982,10.9776726 C13.4709982,9.49329581 12.9352833,8.4776696 11.6071567,8.4776696 C10.5915305,8.4776696 9.98885119,9.15847399 9.72099373,9.81695691 C9.63170791,10.0624929 9.59822573,10.386154 9.59822573,10.7209758 L9.59822573,16.8928582 L5.92634635,16.8928582 C5.97098926,6.87052483 5.92634635,5.83257717 5.92634635,5.83257717 L9.59822573,5.83257717 L9.59822573,7.40462334 Z" id="linkedin" fill="#AFBBBF"></path>
    </g>
</svg>