<svg width="102" height="19" viewBox="0 0 102 19" version="1.1" xmlns="http://www.w3.org/2000/svg" xmlns:xlink="http://www.w3.org/1999/xlink">
<title>logo.inline</title>
<desc>Created using Figma</desc>
<g id="Canvas" transform="translate(228 572)">
<g id="logo.inline">
<g id="miskre">
<use xlink:href="#path0_fill" transform="translate(-199 -572)" fill="#FFFFFF"/>
<use xlink:href="#path1_fill" transform="translate(-199 -572)" fill="#FFFFFF"/>
<use xlink:href="#path2_fill" transform="translate(-199 -572)" fill="#FFFFFF"/>
<use xlink:href="#path3_fill" transform="translate(-199 -572)" fill="#FFFFFF"/>
<use xlink:href="#path4_fill" transform="translate(-199 -572)" fill="#FFFFFF"/>
<use xlink:href="#path5_fill" transform="translate(-199 -572)" fill="#FFFFFF"/>
</g>
<g id="Group">
<g id="Vector">
<use xlink:href="#path6_fill" transform="translate(-228 -572)" fill="url(#paint6_linear)"/>
</g>
<g id="Vector" opacity="0.9">
<use xlink:href="#path7_fill" transform="translate(-224.932 -572)" fill="url(#paint7_linear)"/>
</g>
</g>
</g>
</g>
<defs>
<linearGradient id="paint6_linear" x1="0" y1="0" x2="1" y2="0" gradientUnits="userSpaceOnUse" gradientTransform="matrix(15.7867 9.00154 -9.11443 15.5911 0.909453 -1.17935)">
<stop offset="0" stop-color="#0CE4E1"/>
<stop offset="1" stop-color="#D855FF"/>
</linearGradient>
<linearGradient id="paint7_linear" x1="0" y1="0" x2="1" y2="0" gradientUnits="userSpaceOnUse" gradientTransform="matrix(-7.96337 -13.6221 -13.7929 7.86474 22.5649 13.9957)">
<stop offset="0" stop-color="#D20471"/>
<stop offset="1" stop-color="#770C7E" stop-opacity="0.75"/>
</linearGradient>
<path id="path0_fill" d="M 3.192 17.664L 3.192 10.752C 3.192 9.456 4.008 8.424 5.4 8.424C 6.84 8.424 7.488 9.384 7.488 10.656L 7.488 17.664L 10.656 17.664L 10.656 10.752C 10.656 9.48 11.472 8.424 12.84 8.424C 14.304 8.424 14.928 9.384 14.928 10.656L 14.928 17.664L 18.024 17.664L 18.024 10.008C 18.024 6.84 15.936 5.52 13.752 5.52C 12.192 5.52 10.944 6.048 10.008 7.488C 9.408 6.216 8.112 5.52 6.504 5.52C 5.208 5.52 3.696 6.144 3.048 7.296L 3.048 5.856L 0 5.856L 0 17.664L 3.192 17.664Z"/>
<path id="path1_fill" d="M 24.4498 17.664L 24.4498 5.856L 21.2578 5.856L 21.2578 17.664L 24.4498 17.664ZM 20.8738 1.992C 20.8738 3.048 21.7618 3.936 22.8418 3.936C 23.9458 3.936 24.8098 3.048 24.8098 1.992C 24.8098 0.888 23.9458 0 22.8418 0C 21.7618 0 20.8738 0.888 20.8738 1.992Z"/>
<path id="path2_fill" d="M 26.8592 14.376C 27.0032 15.72 28.2272 18.024 31.7792 18.024C 34.8752 18.024 36.3632 16.056 36.3632 14.136C 36.3632 12.408 35.1872 10.992 32.8592 10.512L 31.1792 10.152C 30.5312 10.032 30.0992 9.672 30.0992 9.096C 30.0992 8.424 30.7712 7.92 31.6112 7.92C 32.9552 7.92 33.4592 8.808 33.5552 9.504L 36.2192 8.904C 36.0752 7.632 34.9472 5.496 31.5872 5.496C 29.0432 5.496 27.1712 7.248 27.1712 9.36C 27.1712 11.016 28.2032 12.384 30.4832 12.888L 32.0432 13.248C 32.9552 13.44 33.3152 13.872 33.3152 14.4C 33.3152 15.024 32.8112 15.576 31.7552 15.576C 30.3632 15.576 29.6672 14.712 29.5952 13.776L 26.8592 14.376Z"/>
<path id="path3_fill" d="M 50.3777 5.856L 46.2017 5.856L 42.1217 10.248L 42.1217 0.288001L 38.9297 0.288001L 38.9297 17.664L 42.1217 17.664L 42.1217 14.544L 43.4417 13.152L 46.5617 17.664L 50.4737 17.664L 45.6497 10.824L 50.3777 5.856Z"/>
<path id="path4_fill" d="M 59.5359 5.808C 59.2959 5.784 59.0559 5.76 58.7919 5.76C 57.7839 5.76 56.1519 6.048 55.4319 7.608L 55.4319 5.856L 52.3359 5.856L 52.3359 17.664L 55.5279 17.664L 55.5279 12.264C 55.5279 9.72 56.9439 8.928 58.5759 8.928C 58.8639 8.928 59.1759 8.952 59.5359 9.024L 59.5359 5.808Z"/>
<path id="path5_fill" d="M 63.9921 10.416C 64.0641 9.336 64.9761 8.088 66.6321 8.088C 68.4561 8.088 69.2241 9.24 69.2721 10.416L 63.9921 10.416ZM 69.5841 13.488C 69.2001 14.544 68.3841 15.288 66.8961 15.288C 65.3121 15.288 63.9921 14.16 63.9201 12.6L 72.3681 12.6C 72.3681 12.552 72.4161 12.072 72.4161 11.616C 72.4161 7.824 70.2321 5.496 66.5841 5.496C 63.5601 5.496 60.7761 7.944 60.7761 11.712C 60.7761 15.696 63.6321 18.024 66.8721 18.024C 69.7761 18.024 71.6481 16.32 72.2481 14.28L 69.5841 13.488Z"/>
<path id="path6_fill" d="M 15.675 8.54391L 0.791667 0.0737532C 0.448611 -0.134743 0 0.125877 0 0.516808L 0 17.4832C 0 17.8741 0.448611 18.1347 0.791667 17.9262L 15.675 9.45609C 16.0181 9.24759 16.0181 8.75241 15.675 8.54391Z"/>
<path id="path7_fill" d="M 0.257292 8.54391L 15.1406 0.0737532C 15.4837 -0.134743 15.9323 0.125877 15.9323 0.516808L 15.9323 17.4832C 15.9323 17.8741 15.4837 18.1347 15.1406 17.9262L 0.257292 9.45609C -0.0857638 9.24759 -0.0857638 8.75241 0.257292 8.54391Z"/>
</defs>
</svg>
