<?xml version="1.0" encoding="UTF-8"?>
<svg width="294px" height="108px" viewBox="0 0 294 108" version="1.1" xmlns="http://www.w3.org/2000/svg" xmlns:xlink="http://www.w3.org/1999/xlink">
    <!-- Generator: Sketch 48.1 (47250) - http://www.bohemiancoding.com/sketch -->
    <title>logo.light</title>
    <desc>Created with Sketch.</desc>
    <defs></defs>
    <g id="home" stroke="none" stroke-width="1" fill="none" fill-rule="evenodd" transform="translate(-573.000000, -105.000000)">
        <g id="hero" fill="#FFFFFF">
            <path d="M589.584,176 L576.816,176 L576.816,128.768 L589.008,128.768 L589.008,134.528 C591.6,129.92 597.648,127.424 602.832,127.424 C609.264,127.424 614.448,130.208 616.848,135.296 C620.592,129.536 625.584,127.424 631.824,127.424 C640.56,127.424 648.912,132.704 648.912,145.376 L648.912,176 L636.528,176 L636.528,147.968 C636.528,142.88 634.032,139.04 628.176,139.04 C622.704,139.04 619.44,143.264 619.44,148.352 L619.44,176 L606.768,176 L606.768,147.968 C606.768,142.88 604.176,139.04 598.416,139.04 C592.848,139.04 589.584,143.168 589.584,148.352 L589.584,176 Z M674.64,176 L661.872,176 L661.872,128.768 L674.64,128.768 L674.64,176 Z M660.336,113.312 C660.336,108.896 663.888,105.344 668.208,105.344 C672.624,105.344 676.08,108.896 676.08,113.312 C676.08,117.536 672.624,121.088 668.208,121.088 C663.888,121.088 660.336,117.536 660.336,113.312 Z M684.24,162.848 L695.184,160.448 C695.472,164.192 698.256,167.648 703.824,167.648 C708.048,167.648 710.064,165.44 710.064,162.944 C710.064,160.832 708.624,159.104 704.976,158.336 L698.736,156.896 C689.616,154.88 685.488,149.408 685.488,142.784 C685.488,134.336 692.976,127.328 703.152,127.328 C716.592,127.328 721.104,135.872 721.68,140.96 L711.024,143.36 C710.64,140.576 708.624,137.024 703.248,137.024 C699.888,137.024 697.2,139.04 697.2,141.728 C697.2,144.032 698.928,145.472 701.52,145.952 L708.24,147.392 C717.552,149.312 722.256,154.976 722.256,161.888 C722.256,169.568 716.304,177.44 703.92,177.44 C689.712,177.44 684.816,168.224 684.24,162.848 Z M778.32,128.768 L759.408,148.64 L778.704,176 L763.056,176 L750.576,157.952 L745.296,163.52 L745.296,176 L732.528,176 L732.528,106.496 L745.296,106.496 L745.296,146.336 L761.616,128.768 L778.32,128.768 Z M814.992,128.576 L814.992,141.44 C813.552,141.152 812.304,141.056 811.152,141.056 C804.624,141.056 798.96,144.224 798.96,154.4 L798.96,176 L786.192,176 L786.192,128.768 L798.576,128.768 L798.576,135.776 C801.456,129.536 807.984,128.384 812.016,128.384 C813.072,128.384 814.032,128.48 814.992,128.576 Z M833.04,147.008 L854.16,147.008 C853.968,142.304 850.896,137.696 843.6,137.696 C836.976,137.696 833.328,142.688 833.04,147.008 Z M855.408,159.296 L866.064,162.464 C863.664,170.624 856.176,177.44 844.56,177.44 C831.6,177.44 820.176,168.128 820.176,152.192 C820.176,137.12 831.312,127.328 843.408,127.328 C858,127.328 866.736,136.64 866.736,151.808 C866.736,153.632 866.544,155.552 866.544,155.744 L832.752,155.744 C833.04,161.984 838.32,166.496 844.656,166.496 C850.608,166.496 853.872,163.52 855.408,159.296 Z M575.283001,203.78 L580.017001,203.78 C579.981001,202.538 579.171001,201.566 577.641001,201.566 C576.219001,201.566 575.355001,202.664 575.283001,203.78 Z M580.269001,206.03 L581.727001,206.534 C581.241001,208.064 579.855001,209.27 577.839001,209.27 C575.517001,209.27 573.483001,207.578 573.483001,204.644 C573.483001,201.926 575.445001,200.072 577.623001,200.072 C580.287001,200.072 581.781001,201.908 581.781001,204.608 C581.781001,204.824 581.763001,205.04 581.745001,205.148 L575.229001,205.148 C575.265001,206.696 576.381001,207.776 577.839001,207.776 C579.243001,207.776 579.945001,207.002 580.269001,206.03 Z M592.177001,201.638 C590.809001,201.638 589.549001,202.646 589.549001,204.662 C589.549001,206.642 590.791001,207.704 592.195001,207.704 C593.815001,207.704 594.409001,206.606 594.607001,205.922 L596.101001,206.57 C595.687001,207.812 594.445001,209.27 592.195001,209.27 C589.675001,209.27 587.821001,207.29 587.821001,204.662 C587.821001,201.962 589.711001,200.072 592.177001,200.072 C594.481001,200.072 595.669001,201.512 596.029001,202.826 L594.499001,203.474 C594.283001,202.628 593.653001,201.638 592.177001,201.638 Z M606.299001,207.758 C607.739001,207.758 608.999001,206.678 608.999001,204.662 C608.999001,202.664 607.739001,201.584 606.299001,201.584 C604.859001,201.584 603.599001,202.664 603.599001,204.662 C603.599001,206.678 604.859001,207.758 606.299001,207.758 Z M606.299001,200.072 C608.891001,200.072 610.727001,202.034 610.727001,204.662 C610.727001,207.308 608.891001,209.27 606.299001,209.27 C603.707001,209.27 601.871001,207.308 601.871001,204.662 C601.871001,202.034 603.707001,200.072 606.299001,200.072 Z M619.161001,209 L617.487001,209 L617.487001,200.342 L619.107001,200.342 L619.107001,201.494 C619.647001,200.54 620.727001,200.09 621.735001,200.09 C622.815001,200.09 623.859001,200.612 624.327001,201.728 C625.011001,200.486 626.127001,200.09 627.225001,200.09 C628.737001,200.09 630.213001,201.116 630.213001,203.384 L630.213001,209 L628.539001,209 L628.539001,203.564 C628.539001,202.43 627.981001,201.584 626.703001,201.584 C625.515001,201.584 624.705001,202.52 624.705001,203.762 L624.705001,209 L623.013001,209 L623.013001,203.564 C623.013001,202.448 622.473001,201.584 621.177001,201.584 C619.971001,201.584 619.161001,202.484 619.161001,203.78 L619.161001,209 Z M639.187001,209 L637.513001,209 L637.513001,200.342 L639.133001,200.342 L639.133001,201.494 C639.673001,200.54 640.753001,200.09 641.761001,200.09 C642.841001,200.09 643.885001,200.612 644.353001,201.728 C645.037001,200.486 646.153001,200.09 647.251001,200.09 C648.763001,200.09 650.239001,201.116 650.239001,203.384 L650.239001,209 L648.565001,209 L648.565001,203.564 C648.565001,202.43 648.007001,201.584 646.729001,201.584 C645.541001,201.584 644.731001,202.52 644.731001,203.762 L644.731001,209 L643.039001,209 L643.039001,203.564 C643.039001,202.448 642.499001,201.584 641.203001,201.584 C639.997001,201.584 639.187001,202.484 639.187001,203.78 L639.187001,209 Z M658.637001,203.78 L663.371001,203.78 C663.335001,202.538 662.525001,201.566 660.995001,201.566 C659.573001,201.566 658.709001,202.664 658.637001,203.78 Z M663.623001,206.03 L665.081001,206.534 C664.595001,208.064 663.209001,209.27 661.193001,209.27 C658.871001,209.27 656.837001,207.578 656.837001,204.644 C656.837001,201.926 658.799001,200.072 660.977001,200.072 C663.641001,200.072 665.135001,201.908 665.135001,204.608 C665.135001,204.824 665.117001,205.04 665.099001,205.148 L658.583001,205.148 C658.619001,206.696 659.735001,207.776 661.193001,207.776 C662.597001,207.776 663.299001,207.002 663.623001,206.03 Z M676.701,200.252 L676.701,202.052 C676.449,202.016 676.197,201.998 675.963,201.998 C674.541,201.998 673.587,202.754 673.587,204.662 L673.587,209 L671.895,209 L671.895,200.342 L673.551,200.342 L673.551,201.854 C674.181,200.522 675.261,200.198 676.143,200.198 C676.377,200.198 676.611,200.234 676.701,200.252 Z M686.647,201.638 C685.279,201.638 684.019,202.646 684.019,204.662 C684.019,206.642 685.261,207.704 686.665,207.704 C688.285,207.704 688.879,206.606 689.077,205.922 L690.571,206.57 C690.157,207.812 688.915,209.27 686.665,209.27 C684.145,209.27 682.291,207.29 682.291,204.662 C682.291,201.962 684.181,200.072 686.647,200.072 C688.951,200.072 690.139,201.512 690.499,202.826 L688.969,203.474 C688.753,202.628 688.123,201.638 686.647,201.638 Z M698.159,203.78 L702.893,203.78 C702.857,202.538 702.047,201.566 700.517,201.566 C699.095,201.566 698.231,202.664 698.159,203.78 Z M703.145,206.03 L704.603,206.534 C704.117,208.064 702.731,209.27 700.715,209.27 C698.393,209.27 696.359,207.578 696.359,204.644 C696.359,201.926 698.321,200.072 700.499,200.072 C703.163,200.072 704.657,201.908 704.657,204.608 C704.657,204.824 704.639,205.04 704.621,205.148 L698.105,205.148 C698.141,206.696 699.257,207.776 700.715,207.776 C702.119,207.776 702.821,207.002 703.145,206.03 Z M725.323,200.252 L725.323,202.052 C725.071,202.016 724.819,201.998 724.585,201.998 C723.163,201.998 722.209,202.754 722.209,204.662 L722.209,209 L720.517,209 L720.517,200.342 L722.173,200.342 L722.173,201.854 C722.803,200.522 723.883,200.198 724.765,200.198 C724.999,200.198 725.233,200.234 725.323,200.252 Z M732.731,203.78 L737.465,203.78 C737.429,202.538 736.619,201.566 735.089,201.566 C733.667,201.566 732.803,202.664 732.731,203.78 Z M737.717,206.03 L739.175,206.534 C738.689,208.064 737.303,209.27 735.287,209.27 C732.965,209.27 730.931,207.578 730.931,204.644 C730.931,201.926 732.893,200.072 735.071,200.072 C737.735,200.072 739.229,201.908 739.229,204.608 C739.229,204.824 739.211,205.04 739.193,205.148 L732.677,205.148 C732.713,206.696 733.829,207.776 735.287,207.776 C736.691,207.776 737.393,207.002 737.717,206.03 Z M750.237,204.572 L745.359,204.572 L745.359,203.096 L750.237,203.096 L750.237,204.572 Z M758.761,209 L757.087,209 L757.087,200.342 L758.761,200.342 L758.761,209 Z M756.709,197.066 C756.709,196.382 757.249,195.842 757.915,195.842 C758.599,195.842 759.139,196.382 759.139,197.066 C759.139,197.732 758.599,198.272 757.915,198.272 C757.249,198.272 756.709,197.732 756.709,197.066 Z M767.915,209 L766.241,209 L766.241,200.342 L767.861,200.342 L767.861,201.494 C768.401,200.54 769.481,200.09 770.489,200.09 C771.569,200.09 772.613,200.612 773.081,201.728 C773.765,200.486 774.881,200.09 775.979,200.09 C777.491,200.09 778.967,201.116 778.967,203.384 L778.967,209 L777.293,209 L777.293,203.564 C777.293,202.43 776.735,201.584 775.457,201.584 C774.269,201.584 773.459,202.52 773.459,203.762 L773.459,209 L771.767,209 L771.767,203.564 C771.767,202.448 771.227,201.584 769.931,201.584 C768.725,201.584 767.915,202.484 767.915,203.78 L767.915,209 Z M785.727,206.678 C785.727,205.13 786.861,204.266 788.355,204.05 L790.695,203.708 C791.217,203.636 791.361,203.366 791.361,203.06 C791.361,202.214 790.803,201.512 789.489,201.512 C788.301,201.512 787.635,202.25 787.527,203.258 L785.907,202.88 C786.087,201.224 787.581,200.072 789.453,200.072 C792.045,200.072 793.053,201.548 793.053,203.24 L793.053,207.578 C793.053,208.334 793.125,208.784 793.161,209 L791.505,209 C791.469,208.784 791.415,208.46 791.415,207.83 C791.037,208.442 790.173,209.27 788.625,209.27 C786.861,209.27 785.727,208.046 785.727,206.678 Z M788.859,207.848 C790.245,207.848 791.361,207.182 791.361,205.292 L791.361,204.896 L788.715,205.292 C787.995,205.4 787.455,205.814 787.455,206.588 C787.455,207.236 787.995,207.848 788.859,207.848 Z M799.650999,209.468 L801.288999,209.09 C801.414999,210.296 802.332999,211.214 803.646999,211.214 C805.464999,211.214 806.292999,210.278 806.292999,208.406 L806.292999,207.164 C805.878999,207.956 804.942999,208.586 803.646999,208.586 C801.342999,208.586 799.668999,206.84 799.668999,204.392 C799.668999,202.052 801.270999,200.18 803.646999,200.18 C804.978999,200.18 805.878999,200.684 806.310999,201.548 L806.310999,200.342 L807.984999,200.342 L807.984999,208.352 C807.984999,210.548 806.904999,212.69 803.646999,212.69 C801.486999,212.69 799.866999,211.322 799.650999,209.468 Z M803.898999,207.164 C805.356999,207.164 806.364999,206.066 806.364999,204.392 C806.364999,202.718 805.356999,201.62 803.898999,201.62 C802.404999,201.62 801.396999,202.718 801.396999,204.392 C801.396999,206.084 802.368999,207.164 803.898999,207.164 Z M816.958999,209 L815.284999,209 L815.284999,200.342 L816.958999,200.342 L816.958999,209 Z M814.906999,197.066 C814.906999,196.382 815.446999,195.842 816.112999,195.842 C816.796999,195.842 817.336999,196.382 817.336999,197.066 C817.336999,197.732 816.796999,198.272 816.112999,198.272 C815.446999,198.272 814.906999,197.732 814.906999,197.066 Z M826.130999,203.996 L826.130999,209 L824.438999,209 L824.438999,200.342 L826.094999,200.342 L826.094999,201.584 C826.724999,200.504 827.750999,200.09 828.758999,200.09 C830.828999,200.09 831.854999,201.584 831.854999,203.51 L831.854999,209 L830.162999,209 L830.162999,203.798 C830.162999,202.592 829.658999,201.62 828.146999,201.62 C826.814999,201.62 826.130999,202.682 826.130999,203.996 Z M840.252999,203.78 L844.986999,203.78 C844.950999,202.538 844.140999,201.566 842.610999,201.566 C841.188999,201.566 840.324999,202.664 840.252999,203.78 Z M845.238999,206.03 L846.696999,206.534 C846.210999,208.064 844.824999,209.27 842.808999,209.27 C840.486999,209.27 838.452999,207.578 838.452999,204.644 C838.452999,201.926 840.414999,200.072 842.592999,200.072 C845.256999,200.072 846.750999,201.908 846.750999,204.608 C846.750999,204.824 846.732999,205.04 846.714999,205.148 L840.198999,205.148 C840.234999,206.696 841.350999,207.776 842.808999,207.776 C844.212999,207.776 844.914999,207.002 845.238999,206.03 Z M854.518999,204.644 C854.518999,206.426 855.436999,207.74 857.056999,207.74 C858.604999,207.74 859.558999,206.39 859.558999,204.608 C859.558999,202.826 858.622999,201.602 857.074999,201.602 C855.526999,201.602 854.518999,202.862 854.518999,204.644 Z M859.576999,207.83 L859.576999,207.686 C859.162999,208.514 858.244999,209.234 856.894999,209.234 C854.356999,209.234 852.790999,207.218 852.790999,204.644 C852.790999,202.196 854.446999,200.108 856.894999,200.108 C858.424999,200.108 859.252999,200.864 859.540999,201.566 L859.540999,195.968 L861.214999,195.968 L861.214999,207.398 C861.214999,208.226 861.286999,208.856 861.304999,209 L859.666999,209 C859.630999,208.802 859.576999,208.352 859.576999,207.83 Z" id="logo.light"></path>
        </g>
    </g>
</svg>