<svg width="16" height="14" viewBox="0 0 16 14" version="1.1" xmlns="http://www.w3.org/2000/svg" xmlns:xlink="http://www.w3.org/1999/xlink">
<g id="Canvas" fill="none">
<g id="medium">
<g id="Vector">
<path d="M 5.33036 2.52679L 5.33036 13C 5.33036 13.1488 5.29315 13.2753 5.21875 13.3795C 5.14435 13.4836 5.03571 13.5357 4.89286 13.5357C 4.79167 13.5357 4.69345 13.5119 4.59821 13.4643L 0.446429 11.3839C 0.321429 11.3244 0.215774 11.2247 0.129464 11.0848C 0.0431548 10.9449 0 10.8065 0 10.6696L 0 0.491071C 0 0.372024 0.0297619 0.270833 0.0892857 0.1875C 0.14881 0.104167 0.235119 0.0625 0.348214 0.0625C 0.431548 0.0625 0.5625 0.107143 0.741071 0.196429L 5.30357 2.48214C 5.32143 2.5 5.33036 2.51488 5.33036 2.52679ZM 5.90179 3.42857L 10.6696 11.1607L 5.90179 8.78571L 5.90179 3.42857ZM 16 3.58929L 16 13C 16 13.1488 15.9583 13.2693 15.875 13.3616C 15.7917 13.4539 15.6786 13.5 15.5357 13.5C 15.3929 13.5 15.253 13.4613 15.1161 13.3839L 11.1786 11.4196L 16 3.58929ZM 15.9732 2.51786C 15.9732 2.53571 15.2098 3.78423 13.683 6.26339C 12.1562 8.74256 11.2619 10.1935 11 10.6161L 7.51786 4.95536L 10.4107 0.25C 10.5119 0.0833333 10.6667 0 10.875 0C 10.9583 0 11.0357 0.0178571 11.1071 0.0535714L 15.9375 2.46429C 15.9613 2.47619 15.9732 2.49405 15.9732 2.51786Z" fill="#666666"/>
</g>
</g>
</g>
</svg>

