<?xml version="1.0" encoding="UTF-8"?>
<svg width="24px" height="20px" viewBox="0 0 24 20" version="1.1" xmlns="http://www.w3.org/2000/svg" xmlns:xlink="http://www.w3.org/1999/xlink">
    <!-- Generator: Sketch 48.1 (47250) - http://www.bohemiancoding.com/sketch -->
    <title>medium</title>
    <desc>Created with Sketch.</desc>
    <defs></defs>
    <g id="home" stroke="none" stroke-width="1" fill="none" fill-rule="evenodd" transform="translate(-701.000000, -5107.000000)">
        <g id="footer" transform="translate(0.000000, 4854.000000)" fill="#AFBBBF" fill-rule="nonzero">
            <g id="items" transform="translate(572.000000, 251.000000)">
                <path d="M136.81173,5.73350923 L136.81173,21.2084433 C136.81173,21.4283201 136.75721,21.6152155 136.648168,21.7691293 C136.539127,21.9230431 136.379926,22 136.170567,22 C136.02227,22 135.878335,21.9648197 135.738762,21.8944591 L129.654249,18.8205805 C129.471059,18.7326297 129.31622,18.5853122 129.189732,18.378628 C129.063244,18.1719437 129,17.9674582 129,17.7651715 L129,2.72559367 C129,2.54969217 129.043617,2.4001759 129.13085,2.27704485 C129.218083,2.15391381 129.344571,2.09234828 129.510314,2.09234828 C129.63244,2.09234828 129.824353,2.15831135 130.086053,2.29023747 L136.772475,5.66754617 C136.798645,5.6939314 136.81173,5.71591909 136.81173,5.73350923 Z M137.649169,7.06596306 L144.636546,18.4907652 L137.649169,14.9815303 L137.649169,7.06596306 Z M152.448276,7.30343008 L152.448276,21.2084433 C152.448276,21.4283201 152.387213,21.6064204 152.265086,21.7427441 C152.14296,21.8790677 151.977217,21.9472296 151.767857,21.9472296 C151.558498,21.9472296 151.3535,21.8900616 151.152863,21.7757256 L145.382389,18.8733509 L152.448276,7.30343008 Z M152.409021,5.72031662 C152.409021,5.74670185 151.290256,7.59146878 149.052725,11.2546174 C146.815194,14.9177661 145.504516,17.0615655 145.12069,17.6860158 L140.017549,9.32189974 L144.257081,2.36939314 C144.405378,2.12313105 144.632184,2 144.9375,2 C145.059626,2 145.17303,2.02638522 145.277709,2.07915567 L152.356681,5.64116095 C152.391574,5.6587511 152.409021,5.68513632 152.409021,5.72031662 Z" id="medium"></path>
            </g>
        </g>
    </g>
</svg>