<svg width="16" height="16" viewBox="0 0 16 16" version="1.1" xmlns="http://www.w3.org/2000/svg" xmlns:xlink="http://www.w3.org/1999/xlink">
<title>miskre</title>
<desc>Created using Figma</desc>
<g id="Canvas" transform="translate(332 617)">
<g id="miskre">
<g id="Vector">
<use xlink:href="#path0_fill" transform="translate(-332 -617)" fill="url(#paint0_linear)"/>
</g>
<g id="Vector" opacity="0.9">
<use xlink:href="#path1_fill" transform="translate(-329.417 -617)" fill="url(#paint1_linear)"/>
</g>
</g>
</g>
<defs>
<linearGradient id="paint0_linear" x1="0" y1="0" x2="1" y2="0" gradientUnits="userSpaceOnUse" gradientTransform="matrix(13.294 8.00137 -7.67531 13.8588 0.765856 -1.04831)">
<stop offset="0" stop-color="#0CE4E1"/>
<stop offset="1" stop-color="#D855FF"/>
</linearGradient>
<linearGradient id="paint1_linear" x1="0" y1="0" x2="1" y2="0" gradientUnits="userSpaceOnUse" gradientTransform="matrix(-6.706 -12.1085 -11.6151 6.99088 19.002 12.4406)">
<stop offset="0" stop-color="#D20471"/>
<stop offset="1" stop-color="#770C7E" stop-opacity="0.75"/>
</linearGradient>
<path id="path0_fill" d="M 13.2 7.59459L 0.666667 0.0655584C 0.377778 -0.119772 0 0.111891 0 0.459385L 0 15.5406C 0 15.8881 0.377778 16.1198 0.666667 15.9344L 13.2 8.40541C 13.4889 8.22008 13.4889 7.77992 13.2 7.59459Z"/>
<path id="path1_fill" d="M 0.216667 7.59459L 12.75 0.0655584C 13.0389 -0.119772 13.4167 0.111891 13.4167 0.459385L 13.4167 15.5406C 13.4167 15.8881 13.0389 16.1198 12.75 15.9344L 0.216667 8.40541C -0.0722221 8.22008 -0.0722221 7.77992 0.216667 7.59459Z"/>
</defs>
</svg>
