<svg width="16" height="14" viewBox="0 0 16 14" version="1.1" xmlns="http://www.w3.org/2000/svg" xmlns:xlink="http://www.w3.org/1999/xlink">
<g id="Canvas" fill="none">
<g id="reddit">
<g id="x36  stroke">
<g id="Reddit">
<g id="Reddit 1">
<path fill-rule="evenodd" clip-rule="evenodd" d="M 16 6.5235C 16 5.47263 15.1375 4.618 14.077 4.618C 13.618 4.618 13.1965 4.7785 12.8655 5.04563C 11.693 4.31538 10.205 3.87537 8.61 3.78225L 9.442 1.17575L 11.7285 1.70937C 11.7885 2.53425 12.4845 3.18725 13.332 3.18725C 14.2185 3.18725 14.94 2.47237 14.94 1.59337C 14.94 0.715 14.2185 -2.28882e-08 13.332 -2.28882e-08C 12.712 -2.28882e-08 12.173 0.34975 11.9045 0.860625L 9.2475 0.24075C 9.025 0.18875 8.8 0.315625 8.731 0.531625L 7.698 3.76687C 5.9795 3.8085 4.364 4.24987 3.1055 5.02287C 2.779 4.76975 2.3685 4.61812 1.923 4.61812C 0.8625 4.618 0 5.47263 0 6.5235C 0 7.173 0.33 7.74725 0.8325 8.09113C 0.8115 8.24225 0.8005 8.39438 0.8005 8.54838C 0.8005 9.86175 1.571 11.0835 2.97 11.9882C 4.311 12.8557 6.086 13.3334 7.9675 13.3334C 9.849 13.3334 11.624 12.8557 12.965 11.9882C 14.364 11.0836 15.1345 9.86188 15.1345 8.54838C 15.1345 8.40813 15.125 8.269 15.1075 8.13075C 15.6435 7.79225 16 7.19825 16 6.5235ZM 13.332 0.866C 13.737 0.866 14.0665 1.1925 14.0665 1.59325C 14.0665 1.9945 13.737 2.321 13.332 2.321C 12.927 2.321 12.5975 1.9945 12.5975 1.59325C 12.5975 1.1925 12.927 0.866 13.332 0.866ZM 4.537 7.70212C 4.537 7.11012 5.0385 6.61312 5.636 6.61312C 6.234 6.61312 6.719 7.11 6.719 7.70212C 6.719 8.29462 6.234 8.77525 5.636 8.77525C 5.0385 8.77525 4.537 8.29462 4.537 7.70212ZM 10.634 10.8581C 10.077 11.4095 9.218 11.6776 8.008 11.6776C 8.0055 11.6776 8.0025 11.6771 7.9995 11.6771C 7.997 11.6771 7.994 11.6776 7.991 11.6776C 6.781 11.6776 5.9225 11.4096 5.366 10.8581C 5.195 10.6886 5.195 10.4148 5.366 10.2458C 5.5365 10.0768 5.813 10.0768 5.984 10.2458C 6.368 10.6263 7.0245 10.8115 7.991 10.8115C 7.994 10.8115 7.997 10.812 7.9995 10.812C 8.0025 10.812 8.0055 10.8115 8.008 10.8115C 8.9745 10.8115 9.6315 10.6263 10.016 10.2458C 10.187 10.0763 10.4635 10.0768 10.634 10.2458C 10.8045 10.4151 10.8045 10.6891 10.634 10.8581ZM 10.38 8.77525C 9.782 8.77525 9.2795 8.29462 9.2795 7.70212C 9.2795 7.10962 9.782 6.61312 10.38 6.61312C 10.978 6.61312 11.463 7.1095 11.463 7.70212C 11.463 8.29462 10.978 8.77525 10.38 8.77525Z" transform="translate(0 0.333374)" fill="#666666"/>
</g>
</g>
</g>
</g>
</g>
</svg>

