<svg width="18" height="16" viewBox="0 0 18 16" version="1.1" xmlns="http://www.w3.org/2000/svg" xmlns:xlink="http://www.w3.org/1999/xlink">
<title>scholar</title>
<desc>Created using Figma</desc>
<g id="Canvas" transform="translate(22 434)">
<g id="scholar">
<g id="Group">
<g id="Group">
<g id="Vector">
<use xlink:href="#path0_fill" transform="translate(-22 -434)" fill="#AFBBBF"/>
</g>
<g id="Vector">
<use xlink:href="#path1_fill" transform="translate(-19.203 -431.183)" fill="#AFBBBF"/>
</g>
<g id="Vector">
<use xlink:href="#path2_fill" transform="translate(-14.8126 -431.183)" fill="#AFBBBF"/>
</g>
<g id="Vector">
<use xlink:href="#path3_fill" transform="translate(-19.6761 -426.581)" fill="#AFBBBF"/>
</g>
<g id="Vector">
<use xlink:href="#path4_fill" transform="translate(-19.6761 -424.48)" fill="#AFBBBF"/>
</g>
<g id="Vector">
<use xlink:href="#path5_fill" transform="translate(-19.6761 -422.378)" fill="#AFBBBF"/>
</g>
</g>
</g>
</g>
</g>
<defs>
<path id="path0_fill" d="M 17.0759 15.5027L 0.924051 15.5027C 0.413653 15.5027 3.21424e-07 15.089 3.21424e-07 14.5787L 3.21424e-07 0.92405C 3.21424e-07 0.413652 0.413738 4.14741e-08 0.924051 4.14741e-08L 17.0759 4.14741e-08C 17.5863 4.14741e-08 18 0.413737 18 0.92405L 18 14.5787C 18 15.089 17.5863 15.5027 17.0759 15.5027ZM 1.8481 13.6545L 16.1518 13.6545L 16.1518 1.84802L 1.8481 1.84802L 1.8481 13.6545Z"/>
<path id="path1_fill" d="M 1.79238 1.02674C 2.21461 1.02674 2.55802 1.37023 2.55802 1.79247C 2.55802 2.2147 2.21453 2.55811 1.79238 2.55811C 1.37015 2.55811 1.02674 2.21461 1.02674 1.79247C 1.02666 1.37023 1.37015 1.02674 1.79238 1.02674ZM 1.79238 7.25796e-08C 0.802418 7.25796e-08 -3.00687e-07 0.802503 -3.00687e-07 1.79238C -3.00687e-07 2.78234 0.802503 3.58476 1.79238 3.58476C 2.78234 3.58476 3.58476 2.78226 3.58476 1.79238C 3.58476 0.802503 2.78226 7.25796e-08 1.79238 7.25796e-08Z"/>
<path id="path2_fill" d="M 6.74712 1.02674L 6.74712 2.43724L 1.02674 2.43724L 1.02674 1.02674L 6.74712 1.02674ZM 7.77386 7.25796e-08L 0 7.25796e-08L 0 3.46398L 7.77386 3.46398L 7.77386 7.25796e-08Z"/>
<path id="path3_fill" d="M 12.6776 1.02674L 0.51337 1.02674C 0.229844 1.02674 3.73267e-07 0.796897 3.73267e-07 0.513371C 3.73267e-07 0.229845 0.229844 5.18426e-08 0.51337 5.18426e-08L 12.6776 5.18426e-08C 12.9612 5.18426e-08 13.191 0.229845 13.191 0.513371C 13.191 0.796897 12.9611 1.02674 12.6776 1.02674Z"/>
<path id="path4_fill" d="M 12.6776 1.02674L 0.51337 1.02674C 0.229844 1.02674 3.73267e-07 0.796897 3.73267e-07 0.513371C 3.73267e-07 0.229845 0.229844 -6.84322e-07 0.51337 -6.84322e-07L 12.6776 -6.84322e-07C 12.9612 -6.84322e-07 13.191 0.229845 13.191 0.513371C 13.191 0.796897 12.9611 1.02674 12.6776 1.02674Z"/>
<path id="path5_fill" d="M 12.6776 1.02674L 0.51337 1.02674C 0.229844 1.02674 3.73267e-07 0.796897 3.73267e-07 0.513371C 3.73267e-07 0.229845 0.229844 -1.24422e-07 0.51337 -1.24422e-07L 12.6776 -1.24422e-07C 12.9612 -1.24422e-07 13.191 0.229845 13.191 0.513371C 13.191 0.796897 12.9611 1.02674 12.6776 1.02674Z"/>
</defs>
</svg>
