<svg width="62" height="62" viewBox="0 0 62 62" version="1.1" xmlns="http://www.w3.org/2000/svg" xmlns:xlink="http://www.w3.org/1999/xlink">
<title>selfie</title>
<desc>Created using Figma</desc>
<g id="Canvas" transform="translate(1068 317)">
<g id="selfie">
<g id="Vector">
<use xlink:href="#path0_stroke" transform="translate(-1056.5 -271.4)" fill="#FFFFFF"/>
</g>
<g id="Vector">
<use xlink:href="#path1_stroke" transform="translate(-1045.1 -304.9)" fill="#FFFFFF"/>
</g>
<g id="Vector">
<use xlink:href="#path2_stroke" transform="translate(-1059.9 -286.6)" fill="#FFFFFF"/>
</g>
<g id="Vector">
<use xlink:href="#path3_stroke" transform="translate(-1067 -315.9)" fill="#FFFFFF"/>
</g>
<g id="Vector">
<use xlink:href="#path4_stroke" transform="translate(-1056.5 -285.6)" fill="#FFFFFF"/>
</g>
</g>
</g>
<defs>
<path id="path0_stroke" d="M 45.2616 -0.240416C 40.2474 8.9032 30.5133 15 19.4 15L 19.4 16C 30.8867 16 40.9526 9.6968 46.1384 0.240416L 45.2616 -0.240416ZM 19.4 15C 12.123 15 5.43642 12.3451 0.322972 8.01831L -0.322971 8.78169C 4.96358 13.2549 11.877 16 19.4 16L 19.4 15Z"/>
<path id="path1_stroke" d="M 2.4 19.2L 1.99999 19.5L 2.00165 19.5022L 2.4 19.2ZM 21.6 19.2L 21.9984 19.5022L 22 19.5L 21.6 19.2ZM 12 -0.5C 5.12386 -0.5 -0.5 5.12386 -0.5 12L 0.5 12C 0.5 5.67614 5.67614 0.5 12 0.5L 12 -0.5ZM -0.5 12C -0.5 14.8125 0.437715 17.417 2 19.5L 2.8 18.9C 1.36228 16.983 0.5 14.5875 0.5 12L -0.5 12ZM 2.00165 19.5022C 4.28935 22.5178 7.83261 24.5 12 24.5L 12 23.5C 8.16739 23.5 4.91065 21.6822 2.79835 18.8978L 2.00165 19.5022ZM 12 24.5C 16.1674 24.5 19.7107 22.5178 21.9983 19.5022L 21.2017 18.8978C 19.0893 21.6822 15.8326 23.5 12 23.5L 12 24.5ZM 22 19.5C 23.5623 17.417 24.5 14.8125 24.5 12L 23.5 12C 23.5 14.5875 22.6377 16.983 21.2 18.9L 22 19.5ZM 24.5 12C 24.5 5.12386 18.8761 -0.5 12 -0.5L 12 0.5C 18.3239 0.5 23.5 5.67614 23.5 12L 24.5 12Z"/>
<path id="path2_stroke" d="M 12.5 -0.500001L 1.4 -0.500001L 1.4 0.499999L 12.5 0.499999L 12.5 -0.500001ZM 1.4 -0.500001C 0.323857 -0.500001 -0.5 0.323859 -0.5 1.4L 0.5 1.4C 0.5 0.876143 0.876143 0.499999 1.4 0.499999L 1.4 -0.500001ZM -0.5 1.4L -0.5 7.6L 0.5 7.6L 0.5 1.4L -0.5 1.4ZM -0.5 7.6C -0.5 8.67615 0.323859 9.5 1.4 9.5L 1.4 8.5C 0.876141 8.5 0.5 8.12386 0.5 7.6L -0.5 7.6ZM 1.4 9.5L 7.6 9.5L 7.6 8.5L 1.4 8.5L 1.4 9.5ZM 7.6 9.5L 12.5 9.5L 12.5 8.5L 7.6 8.5L 7.6 9.5ZM 12.5 9.5C 13.5761 9.5 14.4 8.67614 14.4 7.6L 13.4 7.6C 13.4 8.12386 13.0239 8.5 12.5 8.5L 12.5 9.5ZM 14.4 7.6L 14.4 2.8L 13.4 2.8L 13.4 7.6L 14.4 7.6ZM 14.4 2.8L 14.4 1.4L 13.4 1.4L 13.4 2.8L 14.4 2.8ZM 14.4 1.4C 14.4 0.323859 13.5761 -0.500001 12.5 -0.500001L 12.5 0.499999C 13.0239 0.499999 13.4 0.876142 13.4 1.4L 14.4 1.4Z"/>
<path id="path3_stroke" d="M 14.7 38.3L 15.1076 38.5896L 15.6686 37.8L 14.7 37.8L 14.7 38.3ZM 21.1 32.1L 20.6 32.1L 20.6 33.0108L 21.3684 32.5218L 21.1 32.1ZM 24.4 30.3L 24.6069 30.7552L 25.1733 30.4977L 24.8 30L 24.4 30.3ZM 43.6 30.3L 43.2 30L 42.8253 30.4997L 43.3948 30.756L 43.6 30.3ZM 56.3 44.5L 55.8234 44.6513L 56.1732 45.7531L 56.7366 44.7437L 56.3 44.5ZM 10.6 52.9L 10.277 53.2817L 11.1 53.9781L 11.1 52.9L 10.6 52.9ZM 10.6 51.7L 11.1001 51.7L 11.0999 51.69L 10.6 51.7ZM 14.7 37.8L 8.5 37.8L 8.5 38.8L 14.7 38.8L 14.7 37.8ZM 8.5 37.8C 7.97614 37.8 7.6 37.4239 7.6 36.9L 6.6 36.9C 6.6 37.9761 7.42386 38.8 8.5 38.8L 8.5 37.8ZM 7.6 36.9L 7.6 30.7L 6.6 30.7L 6.6 36.9L 7.6 36.9ZM 7.6 30.7C 7.6 30.1761 7.97614 29.8 8.5 29.8L 8.5 28.8C 7.42386 28.8 6.6 29.6239 6.6 30.7L 7.6 30.7ZM 8.5 29.8L 19.7 29.8L 19.7 28.8L 8.5 28.8L 8.5 29.8ZM 19.7 29.8C 20.2239 29.8 20.6 30.1761 20.6 30.7L 21.6 30.7C 21.6 29.6239 20.7761 28.8 19.7 28.8L 19.7 29.8ZM 20.6 30.7L 20.6 32.1L 21.6 32.1L 21.6 30.7L 20.6 30.7ZM 21.3684 32.5218C 22.4503 31.8334 23.5298 31.2448 24.6069 30.7552L 24.1931 29.8448C 23.0702 30.3552 21.9497 30.9666 20.8316 31.6782L 21.3684 32.5218ZM 24.8 30C 23.3623 28.083 22.5 25.6875 22.5 23.1L 21.5 23.1C 21.5 25.9125 22.4377 28.517 24 30.6L 24.8 30ZM 22.5 23.1C 22.5 16.7761 27.6761 11.6 34 11.6L 34 10.6C 27.1239 10.6 21.5 16.2239 21.5 23.1L 22.5 23.1ZM 34 11.6C 40.3239 11.6 45.5 16.7761 45.5 23.1L 46.5 23.1C 46.5 16.2239 40.8761 10.6 34 10.6L 34 11.6ZM 45.5 23.1C 45.5 25.6875 44.6377 28.083 43.2 30L 44 30.6C 45.5623 28.517 46.5 25.9125 46.5 23.1L 45.5 23.1ZM 43.3948 30.756C 49.2674 33.3986 53.8672 38.4892 55.8234 44.6513L 56.7766 44.3487C 54.7328 37.9108 49.9326 32.6014 43.8052 29.844L 43.3948 30.756ZM 56.7366 44.7437C 59.1789 40.3678 60.5 35.3837 60.5 30L 59.5 30C 59.5 35.2163 58.2211 40.0322 55.8634 44.2563L 56.7366 44.7437ZM 60.5 30C 60.5 13.1239 46.8761 -0.5 30 -0.5L 30 0.5C 46.3239 0.5 59.5 13.6761 59.5 30L 60.5 30ZM 30 -0.5C 13.1239 -0.5 -0.5 13.1239 -0.5 30L 0.5 30C 0.5 13.6761 13.6761 0.5 30 0.5L 30 -0.5ZM -0.5 30C -0.5 39.3524 3.66887 47.6902 10.277 53.2817L 10.923 52.5183C 4.53113 47.1098 0.5 39.0476 0.5 30L -0.5 30ZM 11.1 52.9C 11.1 52.8992 11.1 52.8984 11.1 52.8977C 11.1 52.8969 11.1 52.8961 11.1 52.8953C 11.1 52.8945 11.1 52.8938 11.1 52.893C 11.1 52.8922 11.1 52.8914 11.1 52.8906C 11.1 52.8898 11.1 52.8891 11.1 52.8883C 11.1 52.8875 11.1 52.8867 11.1 52.8859C 11.1 52.8852 11.1 52.8844 11.1 52.8836C 11.1 52.8828 11.1 52.882 11.1 52.8813C 11.1 52.8805 11.1 52.8797 11.1 52.8789C 11.1 52.8781 11.1 52.8773 11.1 52.8766C 11.1 52.8758 11.1 52.875 11.1 52.8742C 11.1 52.8734 11.1 52.8727 11.1 52.8719C 11.1 52.8711 11.1 52.8703 11.1 52.8695C 11.1 52.8688 11.1 52.868 11.1 52.8672C 11.1 52.8664 11.1 52.8656 11.1 52.8648C 11.1 52.8641 11.1 52.8633 11.1 52.8625C 11.1 52.8617 11.1 52.8609 11.1 52.8602C 11.1 52.8594 11.1 52.8586 11.1 52.8578C 11.1 52.857 11.1 52.8563 11.1 52.8555C 11.1 52.8547 11.1 52.8539 11.1 52.8531C 11.1 52.8523 11.1 52.8516 11.1 52.8508C 11.1 52.85 11.1 52.8492 11.1 52.8484C 11.1 52.8477 11.1 52.8469 11.1 52.8461C 11.1 52.8453 11.1 52.8445 11.1 52.8438C 11.1 52.843 11.1 52.8422 11.1 52.8414C 11.1 52.8406 11.1 52.8398 11.1 52.8391C 11.1 52.8383 11.1 52.8375 11.1 52.8367C 11.1 52.8359 11.1 52.8352 11.1 52.8344C 11.1 52.8336 11.1 52.8328 11.1 52.832C 11.1 52.8313 11.1 52.8305 11.1 52.8297C 11.1 52.8289 11.1 52.8281 11.1 52.8273C 11.1 52.8266 11.1 52.8258 11.1 52.825C 11.1 52.8242 11.1 52.8234 11.1 52.8227C 11.1 52.8219 11.1 52.8211 11.1 52.8203C 11.1 52.8195 11.1 52.8188 11.1 52.818C 11.1 52.8172 11.1 52.8164 11.1 52.8156C 11.1 52.8148 11.1 52.8141 11.1 52.8133C 11.1 52.8125 11.1 52.8117 11.1 52.8109C 11.1 52.8102 11.1 52.8094 11.1 52.8086C 11.1 52.8078 11.1 52.807 11.1 52.8063C 11.1 52.8055 11.1 52.8047 11.1 52.8039C 11.1 52.8031 11.1 52.8023 11.1 52.8016C 11.1 52.8008 11.1 52.8 11.1 52.7992C 11.1 52.7984 11.1 52.7977 11.1 52.7969C 11.1 52.7961 11.1 52.7953 11.1 52.7945C 11.1 52.7938 11.1 52.793 11.1 52.7922C 11.1 52.7914 11.1 52.7906 11.1 52.7898C 11.1 52.7891 11.1 52.7883 11.1 52.7875C 11.1 52.7867 11.1 52.7859 11.1 52.7852C 11.1 52.7844 11.1 52.7836 11.1 52.7828C 11.1 52.782 11.1 52.7813 11.1 52.7805C 11.1 52.7797 11.1 52.7789 11.1 52.7781C 11.1 52.7773 11.1 52.7766 11.1 52.7758C 11.1 52.775 11.1 52.7742 11.1 52.7734C 11.1 52.7727 11.1 52.7719 11.1 52.7711C 11.1 52.7703 11.1 52.7695 11.1 52.7688C 11.1 52.768 11.1 52.7672 11.1 52.7664C 11.1 52.7656 11.1 52.7648 11.1 52.7641C 11.1 52.7633 11.1 52.7625 11.1 52.7617C 11.1 52.7609 11.1 52.7602 11.1 52.7594C 11.1 52.7586 11.1 52.7578 11.1 52.757C 11.1 52.7563 11.1 52.7555 11.1 52.7547C 11.1 52.7539 11.1 52.7531 11.1 52.7523C 11.1 52.7516 11.1 52.7508 11.1 52.75C 11.1 52.7492 11.1 52.7484 11.1 52.7477C 11.1 52.7469 11.1 52.7461 11.1 52.7453C 11.1 52.7445 11.1 52.7438 11.1 52.743C 11.1 52.7422 11.1 52.7414 11.1 52.7406C 11.1 52.7398 11.1 52.7391 11.1 52.7383C 11.1 52.7375 11.1 52.7367 11.1 52.7359C 11.1 52.7352 11.1 52.7344 11.1 52.7336C 11.1 52.7328 11.1 52.732 11.1 52.7313C 11.1 52.7305 11.1 52.7297 11.1 52.7289C 11.1 52.7281 11.1 52.7273 11.1 52.7266C 11.1 52.7258 11.1 52.725 11.1 52.7242C 11.1 52.7234 11.1 52.7227 11.1 52.7219C 11.1 52.7211 11.1 52.7203 11.1 52.7195C 11.1 52.7188 11.1 52.718 11.1 52.7172C 11.1 52.7164 11.1 52.7156 11.1 52.7148C 11.1 52.7141 11.1 52.7133 11.1 52.7125C 11.1 52.7117 11.1 52.7109 11.1 52.7102C 11.1 52.7094 11.1 52.7086 11.1 52.7078C 11.1 52.707 11.1 52.7063 11.1 52.7055C 11.1 52.7047 11.1 52.7039 11.1 52.7031C 11.1 52.7023 11.1 52.7016 11.1 52.7008C 11.1 52.7 11.1 52.6992 11.1 52.6984C 11.1 52.6977 11.1 52.6969 11.1 52.6961C 11.1 52.6953 11.1 52.6945 11.1 52.6938C 11.1 52.693 11.1 52.6922 11.1 52.6914C 11.1 52.6906 11.1 52.6898 11.1 52.6891C 11.1 52.6883 11.1 52.6875 11.1 52.6867C 11.1 52.6859 11.1 52.6852 11.1 52.6844C 11.1 52.6836 11.1 52.6828 11.1 52.682C 11.1 52.6813 11.1 52.6805 11.1 52.6797C 11.1 52.6789 11.1 52.6781 11.1 52.6773C 11.1 52.6766 11.1 52.6758 11.1 52.675C 11.1 52.6742 11.1 52.6734 11.1 52.6727C 11.1 52.6719 11.1 52.6711 11.1 52.6703C 11.1 52.6695 11.1 52.6688 11.1 52.668C 11.1 52.6672 11.1 52.6664 11.1 52.6656C 11.1 52.6648 11.1 52.6641 11.1 52.6633C 11.1 52.6625 11.1 52.6617 11.1 52.6609C 11.1 52.6602 11.1 52.6594 11.1 52.6586C 11.1 52.6578 11.1 52.657 11.1 52.6563C 11.1 52.6555 11.1 52.6547 11.1 52.6539C 11.1 52.6531 11.1 52.6523 11.1 52.6516C 11.1 52.6508 11.1 52.65 11.1 52.6492C 11.1 52.6484 11.1 52.6477 11.1 52.6469C 11.1 52.6461 11.1 52.6453 11.1 52.6445C 11.1 52.6438 11.1 52.643 11.1 52.6422C 11.1 52.6414 11.1 52.6406 11.1 52.6398C 11.1 52.6391 11.1 52.6383 11.1 52.6375C 11.1 52.6367 11.1 52.6359 11.1 52.6352C 11.1 52.6344 11.1 52.6336 11.1 52.6328C 11.1 52.632 11.1 52.6313 11.1 52.6305C 11.1 52.6297 11.1 52.6289 11.1 52.6281C 11.1 52.6273 11.1 52.6266 11.1 52.6258C 11.1 52.625 11.1 52.6242 11.1 52.6234C 11.1 52.6227 11.1 52.6219 11.1 52.6211C 11.1 52.6203 11.1 52.6195 11.1 52.6188C 11.1 52.618 11.1 52.6172 11.1 52.6164C 11.1 52.6156 11.1 52.6148 11.1 52.6141C 11.1 52.6133 11.1 52.6125 11.1 52.6117C 11.1 52.6109 11.1 52.6102 11.1 52.6094C 11.1 52.6086 11.1 52.6078 11.1 52.607C 11.1 52.6063 11.1 52.6055 11.1 52.6047C 11.1 52.6039 11.1 52.6031 11.1 52.6023C 11.1 52.6016 11.1 52.6008 11.1 52.6C 11.1 52.5992 11.1 52.5984 11.1 52.5977C 11.1 52.5969 11.1 52.5961 11.1 52.5953C 11.1 52.5945 11.1 52.5938 11.1 52.593C 11.1 52.5922 11.1 52.5914 11.1 52.5906C 11.1 52.5898 11.1 52.5891 11.1 52.5883C 11.1 52.5875 11.1 52.5867 11.1 52.5859C 11.1 52.5852 11.1 52.5844 11.1 52.5836C 11.1 52.5828 11.1 52.582 11.1 52.5813C 11.1 52.5805 11.1 52.5797 11.1 52.5789C 11.1 52.5781 11.1 52.5773 11.1 52.5766C 11.1 52.5758 11.1 52.575 11.1 52.5742C 11.1 52.5734 11.1 52.5727 11.1 52.5719C 11.1 52.5711 11.1 52.5703 11.1 52.5695C 11.1 52.5688 11.1 52.568 11.1 52.5672C 11.1 52.5664 11.1 52.5656 11.1 52.5648C 11.1 52.5641 11.1 52.5633 11.1 52.5625C 11.1 52.5617 11.1 52.5609 11.1 52.5602C 11.1 52.5594 11.1 52.5586 11.1 52.5578C 11.1 52.557 11.1 52.5563 11.1 52.5555C 11.1 52.5547 11.1 52.5539 11.1 52.5531C 11.1 52.5523 11.1 52.5516 11.1 52.5508C 11.1 52.55 11.1 52.5492 11.1 52.5484C 11.1 52.5477 11.1 52.5469 11.1 52.5461C 11.1 52.5453 11.1 52.5445 11.1 52.5438C 11.1 52.543 11.1 52.5422 11.1 52.5414C 11.1 52.5406 11.1 52.5398 11.1 52.5391C 11.1 52.5383 11.1 52.5375 11.1 52.5367C 11.1 52.5359 11.1 52.5352 11.1 52.5344C 11.1 52.5336 11.1 52.5328 11.1 52.532C 11.1 52.5313 11.1 52.5305 11.1 52.5297C 11.1 52.5289 11.1 52.5281 11.1 52.5273C 11.1 52.5266 11.1 52.5258 11.1 52.525C 11.1 52.5242 11.1 52.5234 11.1 52.5227C 11.1 52.5219 11.1 52.5211 11.1 52.5203C 11.1 52.5195 11.1 52.5188 11.1 52.518C 11.1 52.5172 11.1 52.5164 11.1 52.5156C 11.1 52.5148 11.1 52.5141 11.1 52.5133C 11.1 52.5125 11.1 52.5117 11.1 52.5109C 11.1 52.5102 11.1 52.5094 11.1 52.5086C 11.1 52.5078 11.1 52.507 11.1 52.5063C 11.1 52.5055 11.1 52.5047 11.1 52.5039C 11.1 52.5031 11.1 52.5023 11.1 52.5016C 11.1 52.5008 11.1 52.5 11.1 52.4992C 11.1 52.4984 11.1 52.4977 11.1 52.4969C 11.1 52.4961 11.1 52.4953 11.1 52.4945C 11.1 52.4938 11.1 52.493 11.1 52.4922C 11.1 52.4914 11.1 52.4906 11.1 52.4898C 11.1 52.4891 11.1 52.4883 11.1 52.4875C 11.1 52.4867 11.1 52.4859 11.1 52.4852C 11.1 52.4844 11.1 52.4836 11.1 52.4828C 11.1 52.482 11.1 52.4813 11.1 52.4805C 11.1 52.4797 11.1 52.4789 11.1 52.4781C 11.1 52.4773 11.1 52.4766 11.1 52.4758C 11.1 52.475 11.1 52.4742 11.1 52.4734C 11.1 52.4727 11.1 52.4719 11.1 52.4711C 11.1 52.4703 11.1 52.4695 11.1 52.4688C 11.1 52.468 11.1 52.4672 11.1 52.4664C 11.1 52.4656 11.1 52.4648 11.1 52.4641C 11.1 52.4633 11.1 52.4625 11.1 52.4617C 11.1 52.4609 11.1 52.4602 11.1 52.4594C 11.1 52.4586 11.1 52.4578 11.1 52.457C 11.1 52.4563 11.1 52.4555 11.1 52.4547C 11.1 52.4539 11.1 52.4531 11.1 52.4523C 11.1 52.4516 11.1 52.4508 11.1 52.45C 11.1 52.4492 11.1 52.4484 11.1 52.4477C 11.1 52.4469 11.1 52.4461 11.1 52.4453C 11.1 52.4445 11.1 52.4438 11.1 52.443C 11.1 52.4422 11.1 52.4414 11.1 52.4406C 11.1 52.4398 11.1 52.4391 11.1 52.4383C 11.1 52.4375 11.1 52.4367 11.1 52.4359C 11.1 52.4352 11.1 52.4344 11.1 52.4336C 11.1 52.4328 11.1 52.432 11.1 52.4313C 11.1 52.4305 11.1 52.4297 11.1 52.4289C 11.1 52.4281 11.1 52.4273 11.1 52.4266C 11.1 52.4258 11.1 52.425 11.1 52.4242C 11.1 52.4234 11.1 52.4227 11.1 52.4219C 11.1 52.4211 11.1 52.4203 11.1 52.4195C 11.1 52.4188 11.1 52.418 11.1 52.4172C 11.1 52.4164 11.1 52.4156 11.1 52.4148C 11.1 52.4141 11.1 52.4133 11.1 52.4125C 11.1 52.4117 11.1 52.4109 11.1 52.4102C 11.1 52.4094 11.1 52.4086 11.1 52.4078C 11.1 52.407 11.1 52.4063 11.1 52.4055C 11.1 52.4047 11.1 52.4039 11.1 52.4031C 11.1 52.4023 11.1 52.4016 11.1 52.4008C 11.1 52.4 11.1 52.3992 11.1 52.3984C 11.1 52.3977 11.1 52.3969 11.1 52.3961C 11.1 52.3953 11.1 52.3945 11.1 52.3938C 11.1 52.393 11.1 52.3922 11.1 52.3914C 11.1 52.3906 11.1 52.3898 11.1 52.3891C 11.1 52.3883 11.1 52.3875 11.1 52.3867C 11.1 52.3859 11.1 52.3852 11.1 52.3844C 11.1 52.3836 11.1 52.3828 11.1 52.382C 11.1 52.3813 11.1 52.3805 11.1 52.3797C 11.1 52.3789 11.1 52.3781 11.1 52.3773C 11.1 52.3766 11.1 52.3758 11.1 52.375C 11.1 52.3742 11.1 52.3734 11.1 52.3727C 11.1 52.3719 11.1 52.3711 11.1 52.3703C 11.1 52.3695 11.1 52.3688 11.1 52.368C 11.1 52.3672 11.1 52.3664 11.1 52.3656C 11.1 52.3648 11.1 52.3641 11.1 52.3633C 11.1 52.3625 11.1 52.3617 11.1 52.3609C 11.1 52.3602 11.1 52.3594 11.1 52.3586C 11.1 52.3578 11.1 52.357 11.1 52.3563C 11.1 52.3555 11.1 52.3547 11.1 52.3539C 11.1 52.3531 11.1 52.3523 11.1 52.3516C 11.1 52.3508 11.1 52.35 11.1 52.3492C 11.1 52.3484 11.1 52.3477 11.1 52.3469C 11.1 52.3461 11.1 52.3453 11.1 52.3445C 11.1 52.3438 11.1 52.343 11.1 52.3422C 11.1 52.3414 11.1 52.3406 11.1 52.3398C 11.1 52.3391 11.1 52.3383 11.1 52.3375C 11.1 52.3367 11.1 52.3359 11.1 52.3352C 11.1 52.3344 11.1 52.3336 11.1 52.3328C 11.1 52.332 11.1 52.3313 11.1 52.3305C 11.1 52.3297 11.1 52.3289 11.1 52.3281C 11.1 52.3273 11.1 52.3266 11.1 52.3258C 11.1 52.325 11.1 52.3242 11.1 52.3234C 11.1 52.3227 11.1 52.3219 11.1 52.3211C 11.1 52.3203 11.1 52.3195 11.1 52.3188C 11.1 52.318 11.1 52.3172 11.1 52.3164C 11.1 52.3156 11.1 52.3148 11.1 52.3141C 11.1 52.3133 11.1 52.3125 11.1 52.3117C 11.1 52.3109 11.1 52.3102 11.1 52.3094C 11.1 52.3086 11.1 52.3078 11.1 52.307C 11.1 52.3063 11.1 52.3055 11.1 52.3047C 11.1 52.3039 11.1 52.3031 11.1 52.3023C 11.1 52.3016 11.1 52.3008 11.1 52.3C 11.1 52.2992 11.1 52.2984 11.1 52.2977C 11.1 52.2969 11.1 52.2961 11.1 52.2953C 11.1 52.2945 11.1 52.2938 11.1 52.293C 11.1 52.2922 11.1 52.2914 11.1 52.2906C 11.1 52.2898 11.1 52.2891 11.1 52.2883C 11.1 52.2875 11.1 52.2867 11.1 52.2859C 11.1 52.2852 11.1 52.2844 11.1 52.2836C 11.1 52.2828 11.1 52.282 11.1 52.2813C 11.1 52.2805 11.1 52.2797 11.1 52.2789C 11.1 52.2781 11.1 52.2773 11.1 52.2766C 11.1 52.2758 11.1 52.275 11.1 52.2742C 11.1 52.2734 11.1 52.2727 11.1 52.2719C 11.1 52.2711 11.1 52.2703 11.1 52.2695C 11.1 52.2688 11.1 52.268 11.1 52.2672C 11.1 52.2664 11.1 52.2656 11.1 52.2648C 11.1 52.2641 11.1 52.2633 11.1 52.2625C 11.1 52.2617 11.1 52.2609 11.1 52.2602C 11.1 52.2594 11.1 52.2586 11.1 52.2578C 11.1 52.257 11.1 52.2563 11.1 52.2555C 11.1 52.2547 11.1 52.2539 11.1 52.2531C 11.1 52.2523 11.1 52.2516 11.1 52.2508C 11.1 52.25 11.1 52.2492 11.1 52.2484C 11.1 52.2477 11.1 52.2469 11.1 52.2461C 11.1 52.2453 11.1 52.2445 11.1 52.2438C 11.1 52.243 11.1 52.2422 11.1 52.2414C 11.1 52.2406 11.1 52.2398 11.1 52.2391C 11.1 52.2383 11.1 52.2375 11.1 52.2367C 11.1 52.2359 11.1 52.2352 11.1 52.2344C 11.1 52.2336 11.1 52.2328 11.1 52.232C 11.1 52.2313 11.1 52.2305 11.1 52.2297C 11.1 52.2289 11.1 52.2281 11.1 52.2273C 11.1 52.2266 11.1 52.2258 11.1 52.225C 11.1 52.2242 11.1 52.2234 11.1 52.2227C 11.1 52.2219 11.1 52.2211 11.1 52.2203C 11.1 52.2195 11.1 52.2188 11.1 52.218C 11.1 52.2172 11.1 52.2164 11.1 52.2156C 11.1 52.2148 11.1 52.2141 11.1 52.2133C 11.1 52.2125 11.1 52.2117 11.1 52.2109C 11.1 52.2102 11.1 52.2094 11.1 52.2086C 11.1 52.2078 11.1 52.207 11.1 52.2063C 11.1 52.2055 11.1 52.2047 11.1 52.2039C 11.1 52.2031 11.1 52.2023 11.1 52.2016C 11.1 52.2008 11.1 52.2 11.1 52.1992C 11.1 52.1984 11.1 52.1977 11.1 52.1969C 11.1 52.1961 11.1 52.1953 11.1 52.1945C 11.1 52.1938 11.1 52.193 11.1 52.1922C 11.1 52.1914 11.1 52.1906 11.1 52.1898C 11.1 52.1891 11.1 52.1883 11.1 52.1875C 11.1 52.1867 11.1 52.1859 11.1 52.1852C 11.1 52.1844 11.1 52.1836 11.1 52.1828C 11.1 52.182 11.1 52.1813 11.1 52.1805C 11.1 52.1797 11.1 52.1789 11.1 52.1781C 11.1 52.1773 11.1 52.1766 11.1 52.1758C 11.1 52.175 11.1 52.1742 11.1 52.1734C 11.1 52.1727 11.1 52.1719 11.1 52.1711C 11.1 52.1703 11.1 52.1695 11.1 52.1688C 11.1 52.168 11.1 52.1672 11.1 52.1664C 11.1 52.1656 11.1 52.1648 11.1 52.1641C 11.1 52.1633 11.1 52.1625 11.1 52.1617C 11.1 52.1609 11.1 52.1602 11.1 52.1594C 11.1 52.1586 11.1 52.1578 11.1 52.157C 11.1 52.1563 11.1 52.1555 11.1 52.1547C 11.1 52.1539 11.1 52.1531 11.1 52.1523C 11.1 52.1516 11.1 52.1508 11.1 52.15C 11.1 52.1492 11.1 52.1484 11.1 52.1477C 11.1 52.1469 11.1 52.1461 11.1 52.1453C 11.1 52.1445 11.1 52.1438 11.1 52.143C 11.1 52.1422 11.1 52.1414 11.1 52.1406C 11.1 52.1398 11.1 52.1391 11.1 52.1383C 11.1 52.1375 11.1 52.1367 11.1 52.1359C 11.1 52.1352 11.1 52.1344 11.1 52.1336C 11.1 52.1328 11.1 52.132 11.1 52.1313C 11.1 52.1305 11.1 52.1297 11.1 52.1289C 11.1 52.1281 11.1 52.1273 11.1 52.1266C 11.1 52.1258 11.1 52.125 11.1 52.1242C 11.1 52.1234 11.1 52.1227 11.1 52.1219C 11.1 52.1211 11.1 52.1203 11.1 52.1195C 11.1 52.1188 11.1 52.118 11.1 52.1172C 11.1 52.1164 11.1 52.1156 11.1 52.1148C 11.1 52.1141 11.1 52.1133 11.1 52.1125C 11.1 52.1117 11.1 52.1109 11.1 52.1102C 11.1 52.1094 11.1 52.1086 11.1 52.1078C 11.1 52.107 11.1 52.1063 11.1 52.1055C 11.1 52.1047 11.1 52.1039 11.1 52.1031C 11.1 52.1023 11.1 52.1016 11.1 52.1008C 11.1 52.1 11.1 52.0992 11.1 52.0984C 11.1 52.0977 11.1 52.0969 11.1 52.0961C 11.1 52.0953 11.1 52.0945 11.1 52.0938C 11.1 52.093 11.1 52.0922 11.1 52.0914C 11.1 52.0906 11.1 52.0898 11.1 52.0891C 11.1 52.0883 11.1 52.0875 11.1 52.0867C 11.1 52.0859 11.1 52.0852 11.1 52.0844C 11.1 52.0836 11.1 52.0828 11.1 52.082C 11.1 52.0813 11.1 52.0805 11.1 52.0797C 11.1 52.0789 11.1 52.0781 11.1 52.0773C 11.1 52.0766 11.1 52.0758 11.1 52.075C 11.1 52.0742 11.1 52.0734 11.1 52.0727C 11.1 52.0719 11.1 52.0711 11.1 52.0703C 11.1 52.0695 11.1 52.0688 11.1 52.068C 11.1 52.0672 11.1 52.0664 11.1 52.0656C 11.1 52.0648 11.1 52.0641 11.1 52.0633C 11.1 52.0625 11.1 52.0617 11.1 52.0609C 11.1 52.0602 11.1 52.0594 11.1 52.0586C 11.1 52.0578 11.1 52.057 11.1 52.0563C 11.1 52.0555 11.1 52.0547 11.1 52.0539C 11.1 52.0531 11.1 52.0523 11.1 52.0516C 11.1 52.0508 11.1 52.05 11.1 52.0492C 11.1 52.0484 11.1 52.0477 11.1 52.0469C 11.1 52.0461 11.1 52.0453 11.1 52.0445C 11.1 52.0438 11.1 52.043 11.1 52.0422C 11.1 52.0414 11.1 52.0406 11.1 52.0398C 11.1 52.0391 11.1 52.0383 11.1 52.0375C 11.1 52.0367 11.1 52.0359 11.1 52.0352C 11.1 52.0344 11.1 52.0336 11.1 52.0328C 11.1 52.032 11.1 52.0313 11.1 52.0305C 11.1 52.0297 11.1 52.0289 11.1 52.0281C 11.1 52.0273 11.1 52.0266 11.1 52.0258C 11.1 52.025 11.1 52.0242 11.1 52.0234C 11.1 52.0227 11.1 52.0219 11.1 52.0211C 11.1 52.0203 11.1 52.0195 11.1 52.0188C 11.1 52.018 11.1 52.0172 11.1 52.0164C 11.1 52.0156 11.1 52.0148 11.1 52.0141C 11.1 52.0133 11.1 52.0125 11.1 52.0117C 11.1 52.0109 11.1 52.0102 11.1 52.0094C 11.1 52.0086 11.1 52.0078 11.1 52.007C 11.1 52.0063 11.1 52.0055 11.1 52.0047C 11.1 52.0039 11.1 52.0031 11.1 52.0023C 11.1 52.0016 11.1 52.0008 11.1 52C 11.1 51.9992 11.1 51.9984 11.1 51.9977C 11.1 51.9969 11.1 51.9961 11.1 51.9953C 11.1 51.9945 11.1 51.9938 11.1 51.993C 11.1 51.9922 11.1 51.9914 11.1 51.9906C 11.1 51.9898 11.1 51.9891 11.1 51.9883C 11.1 51.9875 11.1 51.9867 11.1 51.9859C 11.1 51.9852 11.1 51.9844 11.1 51.9836C 11.1 51.9828 11.1 51.982 11.1 51.9813C 11.1 51.9805 11.1 51.9797 11.1 51.9789C 11.1 51.9781 11.1 51.9773 11.1 51.9766C 11.1 51.9758 11.1 51.975 11.1 51.9742C 11.1 51.9734 11.1 51.9727 11.1 51.9719C 11.1 51.9711 11.1 51.9703 11.1 51.9695C 11.1 51.9688 11.1 51.968 11.1 51.9672C 11.1 51.9664 11.1 51.9656 11.1 51.9648C 11.1 51.9641 11.1 51.9633 11.1 51.9625C 11.1 51.9617 11.1 51.9609 11.1 51.9602C 11.1 51.9594 11.1 51.9586 11.1 51.9578C 11.1 51.957 11.1 51.9563 11.1 51.9555C 11.1 51.9547 11.1 51.9539 11.1 51.9531C 11.1 51.9523 11.1 51.9516 11.1 51.9508C 11.1 51.95 11.1 51.9492 11.1 51.9484C 11.1 51.9477 11.1 51.9469 11.1 51.9461C 11.1 51.9453 11.1 51.9445 11.1 51.9438C 11.1 51.943 11.1 51.9422 11.1 51.9414C 11.1 51.9406 11.1 51.9398 11.1 51.9391C 11.1 51.9383 11.1 51.9375 11.1 51.9367C 11.1 51.9359 11.1 51.9352 11.1 51.9344C 11.1 51.9336 11.1 51.9328 11.1 51.932C 11.1 51.9313 11.1 51.9305 11.1 51.9297C 11.1 51.9289 11.1 51.9281 11.1 51.9273C 11.1 51.9266 11.1 51.9258 11.1 51.925C 11.1 51.9242 11.1 51.9234 11.1 51.9227C 11.1 51.9219 11.1 51.9211 11.1 51.9203C 11.1 51.9195 11.1 51.9188 11.1 51.918C 11.1 51.9172 11.1 51.9164 11.1 51.9156C 11.1 51.9148 11.1 51.9141 11.1 51.9133C 11.1 51.9125 11.1 51.9117 11.1 51.9109C 11.1 51.9102 11.1 51.9094 11.1 51.9086C 11.1 51.9078 11.1 51.907 11.1 51.9063C 11.1 51.9055 11.1 51.9047 11.1 51.9039C 11.1 51.9031 11.1 51.9023 11.1 51.9016C 11.1 51.9008 11.1 51.9 11.1 51.8992C 11.1 51.8984 11.1 51.8977 11.1 51.8969C 11.1 51.8961 11.1 51.8953 11.1 51.8945C 11.1 51.8938 11.1 51.893 11.1 51.8922C 11.1 51.8914 11.1 51.8906 11.1 51.8898C 11.1 51.8891 11.1 51.8883 11.1 51.8875C 11.1 51.8867 11.1 51.8859 11.1 51.8852C 11.1 51.8844 11.1 51.8836 11.1 51.8828C 11.1 51.882 11.1 51.8813 11.1 51.8805C 11.1 51.8797 11.1 51.8789 11.1 51.8781C 11.1 51.8773 11.1 51.8766 11.1 51.8758C 11.1 51.875 11.1 51.8742 11.1 51.8734C 11.1 51.8727 11.1 51.8719 11.1 51.8711C 11.1 51.8703 11.1 51.8695 11.1 51.8688C 11.1 51.868 11.1 51.8672 11.1 51.8664C 11.1 51.8656 11.1 51.8648 11.1 51.8641C 11.1 51.8633 11.1 51.8625 11.1 51.8617C 11.1 51.8609 11.1 51.8602 11.1 51.8594C 11.1 51.8586 11.1 51.8578 11.1 51.857C 11.1 51.8563 11.1 51.8555 11.1 51.8547C 11.1 51.8539 11.1 51.8531 11.1 51.8523C 11.1 51.8516 11.1 51.8508 11.1 51.85C 11.1 51.8492 11.1 51.8484 11.1 51.8477C 11.1 51.8469 11.1 51.8461 11.1 51.8453C 11.1 51.8445 11.1 51.8438 11.1 51.843C 11.1 51.8422 11.1 51.8414 11.1 51.8406C 11.1 51.8398 11.1 51.8391 11.1 51.8383C 11.1 51.8375 11.1 51.8367 11.1 51.8359C 11.1 51.8352 11.1 51.8344 11.1 51.8336C 11.1 51.8328 11.1 51.832 11.1 51.8313C 11.1 51.8305 11.1 51.8297 11.1 51.8289C 11.1 51.8281 11.1 51.8273 11.1 51.8266C 11.1 51.8258 11.1 51.825 11.1 51.8242C 11.1 51.8234 11.1 51.8227 11.1 51.8219C 11.1 51.8211 11.1 51.8203 11.1 51.8195C 11.1 51.8188 11.1 51.818 11.1 51.8172C 11.1 51.8164 11.1 51.8156 11.1 51.8148C 11.1 51.8141 11.1 51.8133 11.1 51.8125C 11.1 51.8117 11.1 51.8109 11.1 51.8102C 11.1 51.8094 11.1 51.8086 11.1 51.8078C 11.1 51.807 11.1 51.8063 11.1 51.8055C 11.1 51.8047 11.1 51.8039 11.1 51.8031C 11.1 51.8023 11.1 51.8016 11.1 51.8008C 11.1 51.8 11.1 51.7992 11.1 51.7984C 11.1 51.7977 11.1 51.7969 11.1 51.7961C 11.1 51.7953 11.1 51.7945 11.1 51.7938C 11.1 51.793 11.1 51.7922 11.1 51.7914C 11.1 51.7906 11.1 51.7898 11.1 51.7891C 11.1 51.7883 11.1 51.7875 11.1 51.7867C 11.1 51.7859 11.1 51.7852 11.1 51.7844C 11.1 51.7836 11.1 51.7828 11.1 51.782C 11.1 51.7813 11.1 51.7805 11.1 51.7797C 11.1 51.7789 11.1 51.7781 11.1 51.7773C 11.1 51.7766 11.1 51.7758 11.1 51.775C 11.1 51.7742 11.1 51.7734 11.1 51.7727C 11.1 51.7719 11.1 51.7711 11.1 51.7703C 11.1 51.7695 11.1 51.7688 11.1 51.768C 11.1 51.7672 11.1 51.7664 11.1 51.7656C 11.1 51.7648 11.1 51.7641 11.1 51.7633C 11.1 51.7625 11.1 51.7617 11.1 51.7609C 11.1 51.7602 11.1 51.7594 11.1 51.7586C 11.1 51.7578 11.1 51.757 11.1 51.7563C 11.1 51.7555 11.1 51.7547 11.1 51.7539C 11.1 51.7531 11.1 51.7523 11.1 51.7516C 11.1 51.7508 11.1 51.75 11.1 51.7492C 11.1 51.7484 11.1 51.7477 11.1 51.7469C 11.1 51.7461 11.1 51.7453 11.1 51.7445C 11.1 51.7438 11.1 51.743 11.1 51.7422C 11.1 51.7414 11.1 51.7406 11.1 51.7398C 11.1 51.7391 11.1 51.7383 11.1 51.7375C 11.1 51.7367 11.1 51.7359 11.1 51.7352C 11.1 51.7344 11.1 51.7336 11.1 51.7328C 11.1 51.732 11.1 51.7313 11.1 51.7305C 11.1 51.7297 11.1 51.7289 11.1 51.7281C 11.1 51.7273 11.1 51.7266 11.1 51.7258C 11.1 51.725 11.1 51.7242 11.1 51.7234C 11.1 51.7227 11.1 51.7219 11.1 51.7211C 11.1 51.7203 11.1 51.7195 11.1 51.7188C 11.1 51.718 11.1 51.7172 11.1 51.7164C 11.1 51.7156 11.1 51.7148 11.1 51.7141C 11.1 51.7133 11.1 51.7125 11.1 51.7117C 11.1 51.7109 11.1 51.7102 11.1 51.7094C 11.1 51.7086 11.1 51.7078 11.1 51.707C 11.1 51.7063 11.1 51.7055 11.1 51.7047C 11.1 51.7039 11.1 51.7031 11.1 51.7023C 11.1 51.7016 11.1 51.7008 11.1 51.7L 10.1 51.7C 10.1 51.7008 10.1 51.7016 10.1 51.7023C 10.1 51.7031 10.1 51.7039 10.1 51.7047C 10.1 51.7055 10.1 51.7063 10.1 51.707C 10.1 51.7078 10.1 51.7086 10.1 51.7094C 10.1 51.7102 10.1 51.7109 10.1 51.7117C 10.1 51.7125 10.1 51.7133 10.1 51.7141C 10.1 51.7148 10.1 51.7156 10.1 51.7164C 10.1 51.7172 10.1 51.718 10.1 51.7188C 10.1 51.7195 10.1 51.7203 10.1 51.7211C 10.1 51.7219 10.1 51.7227 10.1 51.7234C 10.1 51.7242 10.1 51.725 10.1 51.7258C 10.1 51.7266 10.1 51.7273 10.1 51.7281C 10.1 51.7289 10.1 51.7297 10.1 51.7305C 10.1 51.7313 10.1 51.732 10.1 51.7328C 10.1 51.7336 10.1 51.7344 10.1 51.7352C 10.1 51.7359 10.1 51.7367 10.1 51.7375C 10.1 51.7383 10.1 51.7391 10.1 51.7398C 10.1 51.7406 10.1 51.7414 10.1 51.7422C 10.1 51.743 10.1 51.7438 10.1 51.7445C 10.1 51.7453 10.1 51.7461 10.1 51.7469C 10.1 51.7477 10.1 51.7484 10.1 51.7492C 10.1 51.75 10.1 51.7508 10.1 51.7516C 10.1 51.7523 10.1 51.7531 10.1 51.7539C 10.1 51.7547 10.1 51.7555 10.1 51.7563C 10.1 51.757 10.1 51.7578 10.1 51.7586C 10.1 51.7594 10.1 51.7602 10.1 51.7609C 10.1 51.7617 10.1 51.7625 10.1 51.7633C 10.1 51.7641 10.1 51.7648 10.1 51.7656C 10.1 51.7664 10.1 51.7672 10.1 51.768C 10.1 51.7688 10.1 51.7695 10.1 51.7703C 10.1 51.7711 10.1 51.7719 10.1 51.7727C 10.1 51.7734 10.1 51.7742 10.1 51.775C 10.1 51.7758 10.1 51.7766 10.1 51.7773C 10.1 51.7781 10.1 51.7789 10.1 51.7797C 10.1 51.7805 10.1 51.7813 10.1 51.782C 10.1 51.7828 10.1 51.7836 10.1 51.7844C 10.1 51.7852 10.1 51.7859 10.1 51.7867C 10.1 51.7875 10.1 51.7883 10.1 51.7891C 10.1 51.7898 10.1 51.7906 10.1 51.7914C 10.1 51.7922 10.1 51.793 10.1 51.7938C 10.1 51.7945 10.1 51.7953 10.1 51.7961C 10.1 51.7969 10.1 51.7977 10.1 51.7984C 10.1 51.7992 10.1 51.8 10.1 51.8008C 10.1 51.8016 10.1 51.8023 10.1 51.8031C 10.1 51.8039 10.1 51.8047 10.1 51.8055C 10.1 51.8063 10.1 51.807 10.1 51.8078C 10.1 51.8086 10.1 51.8094 10.1 51.8102C 10.1 51.8109 10.1 51.8117 10.1 51.8125C 10.1 51.8133 10.1 51.8141 10.1 51.8148C 10.1 51.8156 10.1 51.8164 10.1 51.8172C 10.1 51.818 10.1 51.8188 10.1 51.8195C 10.1 51.8203 10.1 51.8211 10.1 51.8219C 10.1 51.8227 10.1 51.8234 10.1 51.8242C 10.1 51.825 10.1 51.8258 10.1 51.8266C 10.1 51.8273 10.1 51.8281 10.1 51.8289C 10.1 51.8297 10.1 51.8305 10.1 51.8313C 10.1 51.832 10.1 51.8328 10.1 51.8336C 10.1 51.8344 10.1 51.8352 10.1 51.8359C 10.1 51.8367 10.1 51.8375 10.1 51.8383C 10.1 51.8391 10.1 51.8398 10.1 51.8406C 10.1 51.8414 10.1 51.8422 10.1 51.843C 10.1 51.8438 10.1 51.8445 10.1 51.8453C 10.1 51.8461 10.1 51.8469 10.1 51.8477C 10.1 51.8484 10.1 51.8492 10.1 51.85C 10.1 51.8508 10.1 51.8516 10.1 51.8523C 10.1 51.8531 10.1 51.8539 10.1 51.8547C 10.1 51.8555 10.1 51.8563 10.1 51.857C 10.1 51.8578 10.1 51.8586 10.1 51.8594C 10.1 51.8602 10.1 51.8609 10.1 51.8617C 10.1 51.8625 10.1 51.8633 10.1 51.8641C 10.1 51.8648 10.1 51.8656 10.1 51.8664C 10.1 51.8672 10.1 51.868 10.1 51.8688C 10.1 51.8695 10.1 51.8703 10.1 51.8711C 10.1 51.8719 10.1 51.8727 10.1 51.8734C 10.1 51.8742 10.1 51.875 10.1 51.8758C 10.1 51.8766 10.1 51.8773 10.1 51.8781C 10.1 51.8789 10.1 51.8797 10.1 51.8805C 10.1 51.8813 10.1 51.882 10.1 51.8828C 10.1 51.8836 10.1 51.8844 10.1 51.8852C 10.1 51.8859 10.1 51.8867 10.1 51.8875C 10.1 51.8883 10.1 51.8891 10.1 51.8898C 10.1 51.8906 10.1 51.8914 10.1 51.8922C 10.1 51.893 10.1 51.8938 10.1 51.8945C 10.1 51.8953 10.1 51.8961 10.1 51.8969C 10.1 51.8977 10.1 51.8984 10.1 51.8992C 10.1 51.9 10.1 51.9008 10.1 51.9016C 10.1 51.9023 10.1 51.9031 10.1 51.9039C 10.1 51.9047 10.1 51.9055 10.1 51.9063C 10.1 51.907 10.1 51.9078 10.1 51.9086C 10.1 51.9094 10.1 51.9102 10.1 51.9109C 10.1 51.9117 10.1 51.9125 10.1 51.9133C 10.1 51.9141 10.1 51.9148 10.1 51.9156C 10.1 51.9164 10.1 51.9172 10.1 51.918C 10.1 51.9188 10.1 51.9195 10.1 51.9203C 10.1 51.9211 10.1 51.9219 10.1 51.9227C 10.1 51.9234 10.1 51.9242 10.1 51.925C 10.1 51.9258 10.1 51.9266 10.1 51.9273C 10.1 51.9281 10.1 51.9289 10.1 51.9297C 10.1 51.9305 10.1 51.9313 10.1 51.932C 10.1 51.9328 10.1 51.9336 10.1 51.9344C 10.1 51.9352 10.1 51.9359 10.1 51.9367C 10.1 51.9375 10.1 51.9383 10.1 51.9391C 10.1 51.9398 10.1 51.9406 10.1 51.9414C 10.1 51.9422 10.1 51.943 10.1 51.9438C 10.1 51.9445 10.1 51.9453 10.1 51.9461C 10.1 51.9469 10.1 51.9477 10.1 51.9484C 10.1 51.9492 10.1 51.95 10.1 51.9508C 10.1 51.9516 10.1 51.9523 10.1 51.9531C 10.1 51.9539 10.1 51.9547 10.1 51.9555C 10.1 51.9563 10.1 51.957 10.1 51.9578C 10.1 51.9586 10.1 51.9594 10.1 51.9602C 10.1 51.9609 10.1 51.9617 10.1 51.9625C 10.1 51.9633 10.1 51.9641 10.1 51.9648C 10.1 51.9656 10.1 51.9664 10.1 51.9672C 10.1 51.968 10.1 51.9688 10.1 51.9695C 10.1 51.9703 10.1 51.9711 10.1 51.9719C 10.1 51.9727 10.1 51.9734 10.1 51.9742C 10.1 51.975 10.1 51.9758 10.1 51.9766C 10.1 51.9773 10.1 51.9781 10.1 51.9789C 10.1 51.9797 10.1 51.9805 10.1 51.9813C 10.1 51.982 10.1 51.9828 10.1 51.9836C 10.1 51.9844 10.1 51.9852 10.1 51.9859C 10.1 51.9867 10.1 51.9875 10.1 51.9883C 10.1 51.9891 10.1 51.9898 10.1 51.9906C 10.1 51.9914 10.1 51.9922 10.1 51.993C 10.1 51.9938 10.1 51.9945 10.1 51.9953C 10.1 51.9961 10.1 51.9969 10.1 51.9977C 10.1 51.9984 10.1 51.9992 10.1 52C 10.1 52.0008 10.1 52.0016 10.1 52.0023C 10.1 52.0031 10.1 52.0039 10.1 52.0047C 10.1 52.0055 10.1 52.0063 10.1 52.007C 10.1 52.0078 10.1 52.0086 10.1 52.0094C 10.1 52.0102 10.1 52.0109 10.1 52.0117C 10.1 52.0125 10.1 52.0133 10.1 52.0141C 10.1 52.0148 10.1 52.0156 10.1 52.0164C 10.1 52.0172 10.1 52.018 10.1 52.0188C 10.1 52.0195 10.1 52.0203 10.1 52.0211C 10.1 52.0219 10.1 52.0227 10.1 52.0234C 10.1 52.0242 10.1 52.025 10.1 52.0258C 10.1 52.0266 10.1 52.0273 10.1 52.0281C 10.1 52.0289 10.1 52.0297 10.1 52.0305C 10.1 52.0313 10.1 52.032 10.1 52.0328C 10.1 52.0336 10.1 52.0344 10.1 52.0352C 10.1 52.0359 10.1 52.0367 10.1 52.0375C 10.1 52.0383 10.1 52.0391 10.1 52.0398C 10.1 52.0406 10.1 52.0414 10.1 52.0422C 10.1 52.043 10.1 52.0438 10.1 52.0445C 10.1 52.0453 10.1 52.0461 10.1 52.0469C 10.1 52.0477 10.1 52.0484 10.1 52.0492C 10.1 52.05 10.1 52.0508 10.1 52.0516C 10.1 52.0523 10.1 52.0531 10.1 52.0539C 10.1 52.0547 10.1 52.0555 10.1 52.0563C 10.1 52.057 10.1 52.0578 10.1 52.0586C 10.1 52.0594 10.1 52.0602 10.1 52.0609C 10.1 52.0617 10.1 52.0625 10.1 52.0633C 10.1 52.0641 10.1 52.0648 10.1 52.0656C 10.1 52.0664 10.1 52.0672 10.1 52.068C 10.1 52.0688 10.1 52.0695 10.1 52.0703C 10.1 52.0711 10.1 52.0719 10.1 52.0727C 10.1 52.0734 10.1 52.0742 10.1 52.075C 10.1 52.0758 10.1 52.0766 10.1 52.0773C 10.1 52.0781 10.1 52.0789 10.1 52.0797C 10.1 52.0805 10.1 52.0813 10.1 52.082C 10.1 52.0828 10.1 52.0836 10.1 52.0844C 10.1 52.0852 10.1 52.0859 10.1 52.0867C 10.1 52.0875 10.1 52.0883 10.1 52.0891C 10.1 52.0898 10.1 52.0906 10.1 52.0914C 10.1 52.0922 10.1 52.093 10.1 52.0938C 10.1 52.0945 10.1 52.0953 10.1 52.0961C 10.1 52.0969 10.1 52.0977 10.1 52.0984C 10.1 52.0992 10.1 52.1 10.1 52.1008C 10.1 52.1016 10.1 52.1023 10.1 52.1031C 10.1 52.1039 10.1 52.1047 10.1 52.1055C 10.1 52.1063 10.1 52.107 10.1 52.1078C 10.1 52.1086 10.1 52.1094 10.1 52.1102C 10.1 52.1109 10.1 52.1117 10.1 52.1125C 10.1 52.1133 10.1 52.1141 10.1 52.1148C 10.1 52.1156 10.1 52.1164 10.1 52.1172C 10.1 52.118 10.1 52.1188 10.1 52.1195C 10.1 52.1203 10.1 52.1211 10.1 52.1219C 10.1 52.1227 10.1 52.1234 10.1 52.1242C 10.1 52.125 10.1 52.1258 10.1 52.1266C 10.1 52.1273 10.1 52.1281 10.1 52.1289C 10.1 52.1297 10.1 52.1305 10.1 52.1313C 10.1 52.132 10.1 52.1328 10.1 52.1336C 10.1 52.1344 10.1 52.1352 10.1 52.1359C 10.1 52.1367 10.1 52.1375 10.1 52.1383C 10.1 52.1391 10.1 52.1398 10.1 52.1406C 10.1 52.1414 10.1 52.1422 10.1 52.143C 10.1 52.1438 10.1 52.1445 10.1 52.1453C 10.1 52.1461 10.1 52.1469 10.1 52.1477C 10.1 52.1484 10.1 52.1492 10.1 52.15C 10.1 52.1508 10.1 52.1516 10.1 52.1523C 10.1 52.1531 10.1 52.1539 10.1 52.1547C 10.1 52.1555 10.1 52.1563 10.1 52.157C 10.1 52.1578 10.1 52.1586 10.1 52.1594C 10.1 52.1602 10.1 52.1609 10.1 52.1617C 10.1 52.1625 10.1 52.1633 10.1 52.1641C 10.1 52.1648 10.1 52.1656 10.1 52.1664C 10.1 52.1672 10.1 52.168 10.1 52.1688C 10.1 52.1695 10.1 52.1703 10.1 52.1711C 10.1 52.1719 10.1 52.1727 10.1 52.1734C 10.1 52.1742 10.1 52.175 10.1 52.1758C 10.1 52.1766 10.1 52.1773 10.1 52.1781C 10.1 52.1789 10.1 52.1797 10.1 52.1805C 10.1 52.1813 10.1 52.182 10.1 52.1828C 10.1 52.1836 10.1 52.1844 10.1 52.1852C 10.1 52.1859 10.1 52.1867 10.1 52.1875C 10.1 52.1883 10.1 52.1891 10.1 52.1898C 10.1 52.1906 10.1 52.1914 10.1 52.1922C 10.1 52.193 10.1 52.1938 10.1 52.1945C 10.1 52.1953 10.1 52.1961 10.1 52.1969C 10.1 52.1977 10.1 52.1984 10.1 52.1992C 10.1 52.2 10.1 52.2008 10.1 52.2016C 10.1 52.2023 10.1 52.2031 10.1 52.2039C 10.1 52.2047 10.1 52.2055 10.1 52.2063C 10.1 52.207 10.1 52.2078 10.1 52.2086C 10.1 52.2094 10.1 52.2102 10.1 52.2109C 10.1 52.2117 10.1 52.2125 10.1 52.2133C 10.1 52.2141 10.1 52.2148 10.1 52.2156C 10.1 52.2164 10.1 52.2172 10.1 52.218C 10.1 52.2188 10.1 52.2195 10.1 52.2203C 10.1 52.2211 10.1 52.2219 10.1 52.2227C 10.1 52.2234 10.1 52.2242 10.1 52.225C 10.1 52.2258 10.1 52.2266 10.1 52.2273C 10.1 52.2281 10.1 52.2289 10.1 52.2297C 10.1 52.2305 10.1 52.2313 10.1 52.232C 10.1 52.2328 10.1 52.2336 10.1 52.2344C 10.1 52.2352 10.1 52.2359 10.1 52.2367C 10.1 52.2375 10.1 52.2383 10.1 52.2391C 10.1 52.2398 10.1 52.2406 10.1 52.2414C 10.1 52.2422 10.1 52.243 10.1 52.2438C 10.1 52.2445 10.1 52.2453 10.1 52.2461C 10.1 52.2469 10.1 52.2477 10.1 52.2484C 10.1 52.2492 10.1 52.25 10.1 52.2508C 10.1 52.2516 10.1 52.2523 10.1 52.2531C 10.1 52.2539 10.1 52.2547 10.1 52.2555C 10.1 52.2563 10.1 52.257 10.1 52.2578C 10.1 52.2586 10.1 52.2594 10.1 52.2602C 10.1 52.2609 10.1 52.2617 10.1 52.2625C 10.1 52.2633 10.1 52.2641 10.1 52.2648C 10.1 52.2656 10.1 52.2664 10.1 52.2672C 10.1 52.268 10.1 52.2688 10.1 52.2695C 10.1 52.2703 10.1 52.2711 10.1 52.2719C 10.1 52.2727 10.1 52.2734 10.1 52.2742C 10.1 52.275 10.1 52.2758 10.1 52.2766C 10.1 52.2773 10.1 52.2781 10.1 52.2789C 10.1 52.2797 10.1 52.2805 10.1 52.2813C 10.1 52.282 10.1 52.2828 10.1 52.2836C 10.1 52.2844 10.1 52.2852 10.1 52.2859C 10.1 52.2867 10.1 52.2875 10.1 52.2883C 10.1 52.2891 10.1 52.2898 10.1 52.2906C 10.1 52.2914 10.1 52.2922 10.1 52.293C 10.1 52.2938 10.1 52.2945 10.1 52.2953C 10.1 52.2961 10.1 52.2969 10.1 52.2977C 10.1 52.2984 10.1 52.2992 10.1 52.3C 10.1 52.3008 10.1 52.3016 10.1 52.3023C 10.1 52.3031 10.1 52.3039 10.1 52.3047C 10.1 52.3055 10.1 52.3063 10.1 52.307C 10.1 52.3078 10.1 52.3086 10.1 52.3094C 10.1 52.3102 10.1 52.3109 10.1 52.3117C 10.1 52.3125 10.1 52.3133 10.1 52.3141C 10.1 52.3148 10.1 52.3156 10.1 52.3164C 10.1 52.3172 10.1 52.318 10.1 52.3188C 10.1 52.3195 10.1 52.3203 10.1 52.3211C 10.1 52.3219 10.1 52.3227 10.1 52.3234C 10.1 52.3242 10.1 52.325 10.1 52.3258C 10.1 52.3266 10.1 52.3273 10.1 52.3281C 10.1 52.3289 10.1 52.3297 10.1 52.3305C 10.1 52.3313 10.1 52.332 10.1 52.3328C 10.1 52.3336 10.1 52.3344 10.1 52.3352C 10.1 52.3359 10.1 52.3367 10.1 52.3375C 10.1 52.3383 10.1 52.3391 10.1 52.3398C 10.1 52.3406 10.1 52.3414 10.1 52.3422C 10.1 52.343 10.1 52.3438 10.1 52.3445C 10.1 52.3453 10.1 52.3461 10.1 52.3469C 10.1 52.3477 10.1 52.3484 10.1 52.3492C 10.1 52.35 10.1 52.3508 10.1 52.3516C 10.1 52.3523 10.1 52.3531 10.1 52.3539C 10.1 52.3547 10.1 52.3555 10.1 52.3563C 10.1 52.357 10.1 52.3578 10.1 52.3586C 10.1 52.3594 10.1 52.3602 10.1 52.3609C 10.1 52.3617 10.1 52.3625 10.1 52.3633C 10.1 52.3641 10.1 52.3648 10.1 52.3656C 10.1 52.3664 10.1 52.3672 10.1 52.368C 10.1 52.3688 10.1 52.3695 10.1 52.3703C 10.1 52.3711 10.1 52.3719 10.1 52.3727C 10.1 52.3734 10.1 52.3742 10.1 52.375C 10.1 52.3758 10.1 52.3766 10.1 52.3773C 10.1 52.3781 10.1 52.3789 10.1 52.3797C 10.1 52.3805 10.1 52.3813 10.1 52.382C 10.1 52.3828 10.1 52.3836 10.1 52.3844C 10.1 52.3852 10.1 52.3859 10.1 52.3867C 10.1 52.3875 10.1 52.3883 10.1 52.3891C 10.1 52.3898 10.1 52.3906 10.1 52.3914C 10.1 52.3922 10.1 52.393 10.1 52.3938C 10.1 52.3945 10.1 52.3953 10.1 52.3961C 10.1 52.3969 10.1 52.3977 10.1 52.3984C 10.1 52.3992 10.1 52.4 10.1 52.4008C 10.1 52.4016 10.1 52.4023 10.1 52.4031C 10.1 52.4039 10.1 52.4047 10.1 52.4055C 10.1 52.4063 10.1 52.407 10.1 52.4078C 10.1 52.4086 10.1 52.4094 10.1 52.4102C 10.1 52.4109 10.1 52.4117 10.1 52.4125C 10.1 52.4133 10.1 52.4141 10.1 52.4148C 10.1 52.4156 10.1 52.4164 10.1 52.4172C 10.1 52.418 10.1 52.4188 10.1 52.4195C 10.1 52.4203 10.1 52.4211 10.1 52.4219C 10.1 52.4227 10.1 52.4234 10.1 52.4242C 10.1 52.425 10.1 52.4258 10.1 52.4266C 10.1 52.4273 10.1 52.4281 10.1 52.4289C 10.1 52.4297 10.1 52.4305 10.1 52.4313C 10.1 52.432 10.1 52.4328 10.1 52.4336C 10.1 52.4344 10.1 52.4352 10.1 52.4359C 10.1 52.4367 10.1 52.4375 10.1 52.4383C 10.1 52.4391 10.1 52.4398 10.1 52.4406C 10.1 52.4414 10.1 52.4422 10.1 52.443C 10.1 52.4438 10.1 52.4445 10.1 52.4453C 10.1 52.4461 10.1 52.4469 10.1 52.4477C 10.1 52.4484 10.1 52.4492 10.1 52.45C 10.1 52.4508 10.1 52.4516 10.1 52.4523C 10.1 52.4531 10.1 52.4539 10.1 52.4547C 10.1 52.4555 10.1 52.4563 10.1 52.457C 10.1 52.4578 10.1 52.4586 10.1 52.4594C 10.1 52.4602 10.1 52.4609 10.1 52.4617C 10.1 52.4625 10.1 52.4633 10.1 52.4641C 10.1 52.4648 10.1 52.4656 10.1 52.4664C 10.1 52.4672 10.1 52.468 10.1 52.4688C 10.1 52.4695 10.1 52.4703 10.1 52.4711C 10.1 52.4719 10.1 52.4727 10.1 52.4734C 10.1 52.4742 10.1 52.475 10.1 52.4758C 10.1 52.4766 10.1 52.4773 10.1 52.4781C 10.1 52.4789 10.1 52.4797 10.1 52.4805C 10.1 52.4813 10.1 52.482 10.1 52.4828C 10.1 52.4836 10.1 52.4844 10.1 52.4852C 10.1 52.4859 10.1 52.4867 10.1 52.4875C 10.1 52.4883 10.1 52.4891 10.1 52.4898C 10.1 52.4906 10.1 52.4914 10.1 52.4922C 10.1 52.493 10.1 52.4938 10.1 52.4945C 10.1 52.4953 10.1 52.4961 10.1 52.4969C 10.1 52.4977 10.1 52.4984 10.1 52.4992C 10.1 52.5 10.1 52.5008 10.1 52.5016C 10.1 52.5023 10.1 52.5031 10.1 52.5039C 10.1 52.5047 10.1 52.5055 10.1 52.5063C 10.1 52.507 10.1 52.5078 10.1 52.5086C 10.1 52.5094 10.1 52.5102 10.1 52.5109C 10.1 52.5117 10.1 52.5125 10.1 52.5133C 10.1 52.5141 10.1 52.5148 10.1 52.5156C 10.1 52.5164 10.1 52.5172 10.1 52.518C 10.1 52.5188 10.1 52.5195 10.1 52.5203C 10.1 52.5211 10.1 52.5219 10.1 52.5227C 10.1 52.5234 10.1 52.5242 10.1 52.525C 10.1 52.5258 10.1 52.5266 10.1 52.5273C 10.1 52.5281 10.1 52.5289 10.1 52.5297C 10.1 52.5305 10.1 52.5313 10.1 52.532C 10.1 52.5328 10.1 52.5336 10.1 52.5344C 10.1 52.5352 10.1 52.5359 10.1 52.5367C 10.1 52.5375 10.1 52.5383 10.1 52.5391C 10.1 52.5398 10.1 52.5406 10.1 52.5414C 10.1 52.5422 10.1 52.543 10.1 52.5438C 10.1 52.5445 10.1 52.5453 10.1 52.5461C 10.1 52.5469 10.1 52.5477 10.1 52.5484C 10.1 52.5492 10.1 52.55 10.1 52.5508C 10.1 52.5516 10.1 52.5523 10.1 52.5531C 10.1 52.5539 10.1 52.5547 10.1 52.5555C 10.1 52.5563 10.1 52.557 10.1 52.5578C 10.1 52.5586 10.1 52.5594 10.1 52.5602C 10.1 52.5609 10.1 52.5617 10.1 52.5625C 10.1 52.5633 10.1 52.5641 10.1 52.5648C 10.1 52.5656 10.1 52.5664 10.1 52.5672C 10.1 52.568 10.1 52.5688 10.1 52.5695C 10.1 52.5703 10.1 52.5711 10.1 52.5719C 10.1 52.5727 10.1 52.5734 10.1 52.5742C 10.1 52.575 10.1 52.5758 10.1 52.5766C 10.1 52.5773 10.1 52.5781 10.1 52.5789C 10.1 52.5797 10.1 52.5805 10.1 52.5813C 10.1 52.582 10.1 52.5828 10.1 52.5836C 10.1 52.5844 10.1 52.5852 10.1 52.5859C 10.1 52.5867 10.1 52.5875 10.1 52.5883C 10.1 52.5891 10.1 52.5898 10.1 52.5906C 10.1 52.5914 10.1 52.5922 10.1 52.593C 10.1 52.5938 10.1 52.5945 10.1 52.5953C 10.1 52.5961 10.1 52.5969 10.1 52.5977C 10.1 52.5984 10.1 52.5992 10.1 52.6C 10.1 52.6008 10.1 52.6016 10.1 52.6023C 10.1 52.6031 10.1 52.6039 10.1 52.6047C 10.1 52.6055 10.1 52.6063 10.1 52.607C 10.1 52.6078 10.1 52.6086 10.1 52.6094C 10.1 52.6102 10.1 52.6109 10.1 52.6117C 10.1 52.6125 10.1 52.6133 10.1 52.6141C 10.1 52.6148 10.1 52.6156 10.1 52.6164C 10.1 52.6172 10.1 52.618 10.1 52.6188C 10.1 52.6195 10.1 52.6203 10.1 52.6211C 10.1 52.6219 10.1 52.6227 10.1 52.6234C 10.1 52.6242 10.1 52.625 10.1 52.6258C 10.1 52.6266 10.1 52.6273 10.1 52.6281C 10.1 52.6289 10.1 52.6297 10.1 52.6305C 10.1 52.6313 10.1 52.632 10.1 52.6328C 10.1 52.6336 10.1 52.6344 10.1 52.6352C 10.1 52.6359 10.1 52.6367 10.1 52.6375C 10.1 52.6383 10.1 52.6391 10.1 52.6398C 10.1 52.6406 10.1 52.6414 10.1 52.6422C 10.1 52.643 10.1 52.6438 10.1 52.6445C 10.1 52.6453 10.1 52.6461 10.1 52.6469C 10.1 52.6477 10.1 52.6484 10.1 52.6492C 10.1 52.65 10.1 52.6508 10.1 52.6516C 10.1 52.6523 10.1 52.6531 10.1 52.6539C 10.1 52.6547 10.1 52.6555 10.1 52.6563C 10.1 52.657 10.1 52.6578 10.1 52.6586C 10.1 52.6594 10.1 52.6602 10.1 52.6609C 10.1 52.6617 10.1 52.6625 10.1 52.6633C 10.1 52.6641 10.1 52.6648 10.1 52.6656C 10.1 52.6664 10.1 52.6672 10.1 52.668C 10.1 52.6688 10.1 52.6695 10.1 52.6703C 10.1 52.6711 10.1 52.6719 10.1 52.6727C 10.1 52.6734 10.1 52.6742 10.1 52.675C 10.1 52.6758 10.1 52.6766 10.1 52.6773C 10.1 52.6781 10.1 52.6789 10.1 52.6797C 10.1 52.6805 10.1 52.6813 10.1 52.682C 10.1 52.6828 10.1 52.6836 10.1 52.6844C 10.1 52.6852 10.1 52.6859 10.1 52.6867C 10.1 52.6875 10.1 52.6883 10.1 52.6891C 10.1 52.6898 10.1 52.6906 10.1 52.6914C 10.1 52.6922 10.1 52.693 10.1 52.6938C 10.1 52.6945 10.1 52.6953 10.1 52.6961C 10.1 52.6969 10.1 52.6977 10.1 52.6984C 10.1 52.6992 10.1 52.7 10.1 52.7008C 10.1 52.7016 10.1 52.7023 10.1 52.7031C 10.1 52.7039 10.1 52.7047 10.1 52.7055C 10.1 52.7063 10.1 52.707 10.1 52.7078C 10.1 52.7086 10.1 52.7094 10.1 52.7102C 10.1 52.7109 10.1 52.7117 10.1 52.7125C 10.1 52.7133 10.1 52.7141 10.1 52.7148C 10.1 52.7156 10.1 52.7164 10.1 52.7172C 10.1 52.718 10.1 52.7188 10.1 52.7195C 10.1 52.7203 10.1 52.7211 10.1 52.7219C 10.1 52.7227 10.1 52.7234 10.1 52.7242C 10.1 52.725 10.1 52.7258 10.1 52.7266C 10.1 52.7273 10.1 52.7281 10.1 52.7289C 10.1 52.7297 10.1 52.7305 10.1 52.7313C 10.1 52.732 10.1 52.7328 10.1 52.7336C 10.1 52.7344 10.1 52.7352 10.1 52.7359C 10.1 52.7367 10.1 52.7375 10.1 52.7383C 10.1 52.7391 10.1 52.7398 10.1 52.7406C 10.1 52.7414 10.1 52.7422 10.1 52.743C 10.1 52.7438 10.1 52.7445 10.1 52.7453C 10.1 52.7461 10.1 52.7469 10.1 52.7477C 10.1 52.7484 10.1 52.7492 10.1 52.75C 10.1 52.7508 10.1 52.7516 10.1 52.7523C 10.1 52.7531 10.1 52.7539 10.1 52.7547C 10.1 52.7555 10.1 52.7563 10.1 52.757C 10.1 52.7578 10.1 52.7586 10.1 52.7594C 10.1 52.7602 10.1 52.7609 10.1 52.7617C 10.1 52.7625 10.1 52.7633 10.1 52.7641C 10.1 52.7648 10.1 52.7656 10.1 52.7664C 10.1 52.7672 10.1 52.768 10.1 52.7688C 10.1 52.7695 10.1 52.7703 10.1 52.7711C 10.1 52.7719 10.1 52.7727 10.1 52.7734C 10.1 52.7742 10.1 52.775 10.1 52.7758C 10.1 52.7766 10.1 52.7773 10.1 52.7781C 10.1 52.7789 10.1 52.7797 10.1 52.7805C 10.1 52.7813 10.1 52.782 10.1 52.7828C 10.1 52.7836 10.1 52.7844 10.1 52.7852C 10.1 52.7859 10.1 52.7867 10.1 52.7875C 10.1 52.7883 10.1 52.7891 10.1 52.7898C 10.1 52.7906 10.1 52.7914 10.1 52.7922C 10.1 52.793 10.1 52.7938 10.1 52.7945C 10.1 52.7953 10.1 52.7961 10.1 52.7969C 10.1 52.7977 10.1 52.7984 10.1 52.7992C 10.1 52.8 10.1 52.8008 10.1 52.8016C 10.1 52.8023 10.1 52.8031 10.1 52.8039C 10.1 52.8047 10.1 52.8055 10.1 52.8063C 10.1 52.807 10.1 52.8078 10.1 52.8086C 10.1 52.8094 10.1 52.8102 10.1 52.8109C 10.1 52.8117 10.1 52.8125 10.1 52.8133C 10.1 52.8141 10.1 52.8148 10.1 52.8156C 10.1 52.8164 10.1 52.8172 10.1 52.818C 10.1 52.8188 10.1 52.8195 10.1 52.8203C 10.1 52.8211 10.1 52.8219 10.1 52.8227C 10.1 52.8234 10.1 52.8242 10.1 52.825C 10.1 52.8258 10.1 52.8266 10.1 52.8273C 10.1 52.8281 10.1 52.8289 10.1 52.8297C 10.1 52.8305 10.1 52.8313 10.1 52.832C 10.1 52.8328 10.1 52.8336 10.1 52.8344C 10.1 52.8352 10.1 52.8359 10.1 52.8367C 10.1 52.8375 10.1 52.8383 10.1 52.8391C 10.1 52.8398 10.1 52.8406 10.1 52.8414C 10.1 52.8422 10.1 52.843 10.1 52.8438C 10.1 52.8445 10.1 52.8453 10.1 52.8461C 10.1 52.8469 10.1 52.8477 10.1 52.8484C 10.1 52.8492 10.1 52.85 10.1 52.8508C 10.1 52.8516 10.1 52.8523 10.1 52.8531C 10.1 52.8539 10.1 52.8547 10.1 52.8555C 10.1 52.8563 10.1 52.857 10.1 52.8578C 10.1 52.8586 10.1 52.8594 10.1 52.8602C 10.1 52.8609 10.1 52.8617 10.1 52.8625C 10.1 52.8633 10.1 52.8641 10.1 52.8648C 10.1 52.8656 10.1 52.8664 10.1 52.8672C 10.1 52.868 10.1 52.8688 10.1 52.8695C 10.1 52.8703 10.1 52.8711 10.1 52.8719C 10.1 52.8727 10.1 52.8734 10.1 52.8742C 10.1 52.875 10.1 52.8758 10.1 52.8766C 10.1 52.8773 10.1 52.8781 10.1 52.8789C 10.1 52.8797 10.1 52.8805 10.1 52.8813C 10.1 52.882 10.1 52.8828 10.1 52.8836C 10.1 52.8844 10.1 52.8852 10.1 52.8859C 10.1 52.8867 10.1 52.8875 10.1 52.8883C 10.1 52.8891 10.1 52.8898 10.1 52.8906C 10.1 52.8914 10.1 52.8922 10.1 52.893C 10.1 52.8938 10.1 52.8945 10.1 52.8953C 10.1 52.8961 10.1 52.8969 10.1 52.8977C 10.1 52.8984 10.1 52.8992 10.1 52.9L 11.1 52.9ZM 11.0999 51.69C 11.0021 46.7991 12.4686 42.3038 15.1076 38.5896L 14.2924 38.0104C 11.5314 41.8962 9.99792 46.6009 10.1001 51.71L 11.0999 51.69Z"/>
<path id="path4_stroke" d="M 45.7 14.2L 46.1373 14.4424L 46.2417 14.254L 46.1766 14.0487L 45.7 14.2ZM 33 -7.62939e-07L 33.2052 -0.455962L 32.8422 -0.619297L 32.6017 -0.302194L 33 -7.62939e-07ZM 13.8 -7.62939e-07L 14.1983 -0.302194L 13.9646 -0.610266L 13.6077 -0.461539L 13.8 -7.62939e-07ZM 10.5 1.8L 10.2133 1.39038L 10 1.53967L 10 1.8L 10.5 1.8ZM 4.2 8L 4.2 7.5L 3.9419 7.5L 3.79241 7.7104L 4.2 8ZM 3.8147e-07 22.6L -0.5 22.6L -0.5 22.8319L -0.322971 22.9817L 3.8147e-07 22.6ZM 46.1766 14.0487C 44.1328 7.6108 39.3326 2.30136 33.2052 -0.455962L 32.7948 0.45596C 38.6674 3.09864 43.2672 8.18919 45.2234 14.3513L 46.1766 14.0487ZM 32.6017 -0.302194C 30.4893 2.48221 27.2326 4.3 23.4 4.3L 23.4 5.3C 27.5674 5.3 31.1107 3.31779 33.3983 0.302192L 32.6017 -0.302194ZM 23.4 4.3C 19.5674 4.3 16.3107 2.48221 14.1983 -0.302194L 13.4017 0.302192C 15.6893 3.31779 19.2326 5.3 23.4 5.3L 23.4 4.3ZM 13.6077 -0.461539C 12.3766 0.0514224 11.2446 0.668433 10.2133 1.39038L 10.7867 2.20961C 11.7554 1.53156 12.8234 0.948576 13.9923 0.461538L 13.6077 -0.461539ZM 10 1.8L 10 6.6L 11 6.6L 11 1.8L 10 1.8ZM 10 6.6C 10 7.12386 9.62386 7.5 9.1 7.5L 9.1 8.5C 10.1761 8.5 11 7.67614 11 6.6L 10 6.6ZM 9.1 7.5L 4.2 7.5L 4.2 8.5L 9.1 8.5L 9.1 7.5ZM 3.79241 7.7104C 1.03141 11.5963 -0.5 16.2978 -0.5 21.4L 0.5 21.4C 0.5 16.5022 1.96859 12.0037 4.60759 8.2896L 3.79241 7.7104ZM -0.5 21.4C -0.5 21.4008 -0.5 21.4016 -0.5 21.4023C -0.5 21.4031 -0.5 21.4039 -0.5 21.4047C -0.5 21.4055 -0.5 21.4063 -0.5 21.407C -0.5 21.4078 -0.5 21.4086 -0.5 21.4094C -0.5 21.4102 -0.5 21.4109 -0.5 21.4117C -0.5 21.4125 -0.5 21.4133 -0.5 21.4141C -0.5 21.4148 -0.5 21.4156 -0.5 21.4164C -0.5 21.4172 -0.5 21.418 -0.5 21.4188C -0.5 21.4195 -0.5 21.4203 -0.5 21.4211C -0.5 21.4219 -0.5 21.4227 -0.5 21.4234C -0.5 21.4242 -0.5 21.425 -0.5 21.4258C -0.5 21.4266 -0.5 21.4273 -0.5 21.4281C -0.5 21.4289 -0.5 21.4297 -0.5 21.4305C -0.5 21.4313 -0.5 21.432 -0.5 21.4328C -0.5 21.4336 -0.5 21.4344 -0.5 21.4352C -0.5 21.4359 -0.5 21.4367 -0.5 21.4375C -0.5 21.4383 -0.5 21.4391 -0.5 21.4398C -0.5 21.4406 -0.5 21.4414 -0.5 21.4422C -0.5 21.443 -0.5 21.4438 -0.5 21.4445C -0.5 21.4453 -0.5 21.4461 -0.5 21.4469C -0.5 21.4477 -0.5 21.4484 -0.5 21.4492C -0.5 21.45 -0.5 21.4508 -0.5 21.4516C -0.5 21.4523 -0.5 21.4531 -0.5 21.4539C -0.5 21.4547 -0.5 21.4555 -0.5 21.4563C -0.5 21.457 -0.5 21.4578 -0.5 21.4586C -0.5 21.4594 -0.5 21.4602 -0.5 21.4609C -0.5 21.4617 -0.5 21.4625 -0.5 21.4633C -0.5 21.4641 -0.5 21.4648 -0.5 21.4656C -0.5 21.4664 -0.5 21.4672 -0.5 21.468C -0.5 21.4688 -0.5 21.4695 -0.5 21.4703C -0.5 21.4711 -0.5 21.4719 -0.5 21.4727C -0.5 21.4734 -0.5 21.4742 -0.5 21.475C -0.5 21.4758 -0.5 21.4766 -0.5 21.4773C -0.5 21.4781 -0.5 21.4789 -0.5 21.4797C -0.5 21.4805 -0.5 21.4813 -0.5 21.482C -0.5 21.4828 -0.5 21.4836 -0.5 21.4844C -0.5 21.4852 -0.5 21.4859 -0.5 21.4867C -0.5 21.4875 -0.5 21.4883 -0.5 21.4891C -0.5 21.4898 -0.5 21.4906 -0.5 21.4914C -0.5 21.4922 -0.5 21.493 -0.5 21.4938C -0.5 21.4945 -0.5 21.4953 -0.5 21.4961C -0.5 21.4969 -0.5 21.4977 -0.5 21.4984C -0.5 21.4992 -0.5 21.5 -0.5 21.5008C -0.5 21.5016 -0.5 21.5023 -0.5 21.5031C -0.5 21.5039 -0.5 21.5047 -0.5 21.5055C -0.5 21.5063 -0.5 21.507 -0.5 21.5078C -0.5 21.5086 -0.5 21.5094 -0.5 21.5102C -0.5 21.5109 -0.5 21.5117 -0.5 21.5125C -0.5 21.5133 -0.5 21.5141 -0.5 21.5148C -0.5 21.5156 -0.5 21.5164 -0.5 21.5172C -0.5 21.518 -0.5 21.5188 -0.5 21.5195C -0.5 21.5203 -0.5 21.5211 -0.5 21.5219C -0.5 21.5227 -0.5 21.5234 -0.5 21.5242C -0.5 21.525 -0.5 21.5258 -0.5 21.5266C -0.5 21.5273 -0.5 21.5281 -0.5 21.5289C -0.5 21.5297 -0.5 21.5305 -0.5 21.5313C -0.5 21.532 -0.5 21.5328 -0.5 21.5336C -0.5 21.5344 -0.5 21.5352 -0.5 21.5359C -0.5 21.5367 -0.5 21.5375 -0.5 21.5383C -0.5 21.5391 -0.5 21.5398 -0.5 21.5406C -0.5 21.5414 -0.5 21.5422 -0.5 21.543C -0.5 21.5438 -0.5 21.5445 -0.5 21.5453C -0.5 21.5461 -0.5 21.5469 -0.5 21.5477C -0.5 21.5484 -0.5 21.5492 -0.5 21.55C -0.5 21.5508 -0.5 21.5516 -0.5 21.5523C -0.5 21.5531 -0.5 21.5539 -0.5 21.5547C -0.5 21.5555 -0.5 21.5563 -0.5 21.557C -0.5 21.5578 -0.5 21.5586 -0.5 21.5594C -0.5 21.5602 -0.5 21.5609 -0.5 21.5617C -0.5 21.5625 -0.5 21.5633 -0.5 21.5641C -0.5 21.5648 -0.5 21.5656 -0.5 21.5664C -0.5 21.5672 -0.5 21.568 -0.5 21.5688C -0.5 21.5695 -0.5 21.5703 -0.5 21.5711C -0.5 21.5719 -0.5 21.5727 -0.5 21.5734C -0.5 21.5742 -0.5 21.575 -0.5 21.5758C -0.5 21.5766 -0.5 21.5773 -0.5 21.5781C -0.5 21.5789 -0.5 21.5797 -0.5 21.5805C -0.5 21.5813 -0.5 21.582 -0.5 21.5828C -0.5 21.5836 -0.5 21.5844 -0.5 21.5852C -0.5 21.5859 -0.5 21.5867 -0.5 21.5875C -0.5 21.5883 -0.5 21.5891 -0.5 21.5898C -0.5 21.5906 -0.5 21.5914 -0.5 21.5922C -0.5 21.593 -0.5 21.5938 -0.5 21.5945C -0.5 21.5953 -0.5 21.5961 -0.5 21.5969C -0.5 21.5977 -0.5 21.5984 -0.5 21.5992C -0.5 21.6 -0.5 21.6008 -0.5 21.6016C -0.5 21.6023 -0.5 21.6031 -0.5 21.6039C -0.5 21.6047 -0.5 21.6055 -0.5 21.6063C -0.5 21.607 -0.5 21.6078 -0.5 21.6086C -0.5 21.6094 -0.5 21.6102 -0.5 21.6109C -0.5 21.6117 -0.5 21.6125 -0.5 21.6133C -0.5 21.6141 -0.5 21.6148 -0.5 21.6156C -0.5 21.6164 -0.5 21.6172 -0.5 21.618C -0.5 21.6188 -0.5 21.6195 -0.5 21.6203C -0.5 21.6211 -0.5 21.6219 -0.5 21.6227C -0.5 21.6234 -0.5 21.6242 -0.5 21.625C -0.5 21.6258 -0.5 21.6266 -0.5 21.6273C -0.5 21.6281 -0.5 21.6289 -0.5 21.6297C -0.5 21.6305 -0.5 21.6313 -0.5 21.632C -0.5 21.6328 -0.5 21.6336 -0.5 21.6344C -0.5 21.6352 -0.5 21.6359 -0.5 21.6367C -0.5 21.6375 -0.5 21.6383 -0.5 21.6391C -0.5 21.6398 -0.5 21.6406 -0.5 21.6414C -0.5 21.6422 -0.5 21.643 -0.5 21.6438C -0.5 21.6445 -0.5 21.6453 -0.5 21.6461C -0.5 21.6469 -0.5 21.6477 -0.5 21.6484C -0.5 21.6492 -0.5 21.65 -0.5 21.6508C -0.5 21.6516 -0.5 21.6523 -0.5 21.6531C -0.5 21.6539 -0.5 21.6547 -0.5 21.6555C -0.5 21.6563 -0.5 21.657 -0.5 21.6578C -0.5 21.6586 -0.5 21.6594 -0.5 21.6602C -0.5 21.6609 -0.5 21.6617 -0.5 21.6625C -0.5 21.6633 -0.5 21.6641 -0.5 21.6648C -0.5 21.6656 -0.5 21.6664 -0.5 21.6672C -0.5 21.668 -0.5 21.6688 -0.5 21.6695C -0.5 21.6703 -0.5 21.6711 -0.5 21.6719C -0.5 21.6727 -0.5 21.6734 -0.5 21.6742C -0.5 21.675 -0.5 21.6758 -0.5 21.6766C -0.5 21.6773 -0.5 21.6781 -0.5 21.6789C -0.5 21.6797 -0.5 21.6805 -0.5 21.6813C -0.5 21.682 -0.5 21.6828 -0.5 21.6836C -0.5 21.6844 -0.5 21.6852 -0.5 21.6859C -0.5 21.6867 -0.5 21.6875 -0.5 21.6883C -0.5 21.6891 -0.5 21.6898 -0.5 21.6906C -0.5 21.6914 -0.5 21.6922 -0.5 21.693C -0.5 21.6938 -0.5 21.6945 -0.5 21.6953C -0.5 21.6961 -0.5 21.6969 -0.5 21.6977C -0.5 21.6984 -0.5 21.6992 -0.5 21.7C -0.5 21.7008 -0.5 21.7016 -0.5 21.7023C -0.5 21.7031 -0.5 21.7039 -0.5 21.7047C -0.5 21.7055 -0.5 21.7063 -0.5 21.707C -0.5 21.7078 -0.5 21.7086 -0.5 21.7094C -0.5 21.7102 -0.5 21.7109 -0.5 21.7117C -0.5 21.7125 -0.5 21.7133 -0.5 21.7141C -0.5 21.7148 -0.5 21.7156 -0.5 21.7164C -0.5 21.7172 -0.5 21.718 -0.5 21.7188C -0.5 21.7195 -0.5 21.7203 -0.5 21.7211C -0.5 21.7219 -0.5 21.7227 -0.5 21.7234C -0.5 21.7242 -0.5 21.725 -0.5 21.7258C -0.5 21.7266 -0.5 21.7273 -0.5 21.7281C -0.5 21.7289 -0.5 21.7297 -0.5 21.7305C -0.5 21.7313 -0.5 21.732 -0.5 21.7328C -0.5 21.7336 -0.5 21.7344 -0.5 21.7352C -0.5 21.7359 -0.5 21.7367 -0.5 21.7375C -0.5 21.7383 -0.5 21.7391 -0.5 21.7398C -0.5 21.7406 -0.5 21.7414 -0.5 21.7422C -0.5 21.743 -0.5 21.7438 -0.5 21.7445C -0.5 21.7453 -0.5 21.7461 -0.5 21.7469C -0.5 21.7477 -0.5 21.7484 -0.5 21.7492C -0.5 21.75 -0.5 21.7508 -0.5 21.7516C -0.5 21.7523 -0.5 21.7531 -0.5 21.7539C -0.5 21.7547 -0.5 21.7555 -0.5 21.7563C -0.5 21.757 -0.5 21.7578 -0.5 21.7586C -0.5 21.7594 -0.5 21.7602 -0.5 21.7609C -0.5 21.7617 -0.5 21.7625 -0.5 21.7633C -0.5 21.7641 -0.5 21.7648 -0.5 21.7656C -0.5 21.7664 -0.5 21.7672 -0.5 21.768C -0.5 21.7688 -0.5 21.7695 -0.5 21.7703C -0.5 21.7711 -0.5 21.7719 -0.5 21.7727C -0.5 21.7734 -0.5 21.7742 -0.5 21.775C -0.5 21.7758 -0.5 21.7766 -0.5 21.7773C -0.5 21.7781 -0.5 21.7789 -0.5 21.7797C -0.5 21.7805 -0.5 21.7813 -0.5 21.782C -0.5 21.7828 -0.5 21.7836 -0.5 21.7844C -0.5 21.7852 -0.5 21.7859 -0.5 21.7867C -0.5 21.7875 -0.5 21.7883 -0.5 21.7891C -0.5 21.7898 -0.5 21.7906 -0.5 21.7914C -0.5 21.7922 -0.5 21.793 -0.5 21.7938C -0.5 21.7945 -0.5 21.7953 -0.5 21.7961C -0.5 21.7969 -0.5 21.7977 -0.5 21.7984C -0.5 21.7992 -0.5 21.8 -0.5 21.8008C -0.5 21.8016 -0.5 21.8023 -0.5 21.8031C -0.5 21.8039 -0.5 21.8047 -0.5 21.8055C -0.5 21.8063 -0.5 21.807 -0.5 21.8078C -0.5 21.8086 -0.5 21.8094 -0.5 21.8102C -0.5 21.8109 -0.5 21.8117 -0.5 21.8125C -0.5 21.8133 -0.5 21.8141 -0.5 21.8148C -0.5 21.8156 -0.5 21.8164 -0.5 21.8172C -0.5 21.818 -0.5 21.8188 -0.5 21.8195C -0.5 21.8203 -0.5 21.8211 -0.5 21.8219C -0.5 21.8227 -0.5 21.8234 -0.5 21.8242C -0.5 21.825 -0.5 21.8258 -0.5 21.8266C -0.5 21.8273 -0.5 21.8281 -0.5 21.8289C -0.5 21.8297 -0.5 21.8305 -0.5 21.8313C -0.5 21.832 -0.5 21.8328 -0.5 21.8336C -0.5 21.8344 -0.5 21.8352 -0.5 21.8359C -0.5 21.8367 -0.5 21.8375 -0.5 21.8383C -0.5 21.8391 -0.5 21.8398 -0.5 21.8406C -0.5 21.8414 -0.5 21.8422 -0.5 21.843C -0.5 21.8438 -0.5 21.8445 -0.5 21.8453C -0.5 21.8461 -0.5 21.8469 -0.5 21.8477C -0.5 21.8484 -0.5 21.8492 -0.5 21.85C -0.5 21.8508 -0.5 21.8516 -0.5 21.8523C -0.5 21.8531 -0.5 21.8539 -0.5 21.8547C -0.5 21.8555 -0.5 21.8563 -0.5 21.857C -0.5 21.8578 -0.5 21.8586 -0.5 21.8594C -0.5 21.8602 -0.5 21.8609 -0.5 21.8617C -0.5 21.8625 -0.5 21.8633 -0.5 21.8641C -0.5 21.8648 -0.5 21.8656 -0.5 21.8664C -0.5 21.8672 -0.5 21.868 -0.5 21.8688C -0.5 21.8695 -0.5 21.8703 -0.5 21.8711C -0.5 21.8719 -0.5 21.8727 -0.5 21.8734C -0.5 21.8742 -0.5 21.875 -0.5 21.8758C -0.5 21.8766 -0.5 21.8773 -0.5 21.8781C -0.5 21.8789 -0.5 21.8797 -0.5 21.8805C -0.5 21.8813 -0.5 21.882 -0.5 21.8828C -0.5 21.8836 -0.5 21.8844 -0.5 21.8852C -0.5 21.8859 -0.5 21.8867 -0.5 21.8875C -0.5 21.8883 -0.5 21.8891 -0.5 21.8898C -0.5 21.8906 -0.5 21.8914 -0.5 21.8922C -0.5 21.893 -0.5 21.8938 -0.5 21.8945C -0.5 21.8953 -0.5 21.8961 -0.5 21.8969C -0.5 21.8977 -0.5 21.8984 -0.5 21.8992C -0.5 21.9 -0.5 21.9008 -0.5 21.9016C -0.5 21.9023 -0.5 21.9031 -0.5 21.9039C -0.5 21.9047 -0.5 21.9055 -0.5 21.9063C -0.5 21.907 -0.5 21.9078 -0.5 21.9086C -0.5 21.9094 -0.5 21.9102 -0.5 21.9109C -0.5 21.9117 -0.5 21.9125 -0.5 21.9133C -0.5 21.9141 -0.5 21.9148 -0.5 21.9156C -0.5 21.9164 -0.5 21.9172 -0.5 21.918C -0.5 21.9188 -0.5 21.9195 -0.5 21.9203C -0.5 21.9211 -0.5 21.9219 -0.5 21.9227C -0.5 21.9234 -0.5 21.9242 -0.5 21.925C -0.5 21.9258 -0.5 21.9266 -0.5 21.9273C -0.5 21.9281 -0.5 21.9289 -0.5 21.9297C -0.5 21.9305 -0.5 21.9313 -0.5 21.932C -0.5 21.9328 -0.5 21.9336 -0.5 21.9344C -0.5 21.9352 -0.5 21.9359 -0.5 21.9367C -0.5 21.9375 -0.5 21.9383 -0.5 21.9391C -0.5 21.9398 -0.5 21.9406 -0.5 21.9414C -0.5 21.9422 -0.5 21.943 -0.5 21.9438C -0.5 21.9445 -0.5 21.9453 -0.5 21.9461C -0.5 21.9469 -0.5 21.9477 -0.5 21.9484C -0.5 21.9492 -0.5 21.95 -0.5 21.9508C -0.5 21.9516 -0.5 21.9523 -0.5 21.9531C -0.5 21.9539 -0.5 21.9547 -0.5 21.9555C -0.5 21.9563 -0.5 21.957 -0.5 21.9578C -0.5 21.9586 -0.5 21.9594 -0.5 21.9602C -0.5 21.9609 -0.5 21.9617 -0.5 21.9625C -0.5 21.9633 -0.5 21.9641 -0.5 21.9648C -0.5 21.9656 -0.5 21.9664 -0.5 21.9672C -0.5 21.968 -0.5 21.9688 -0.5 21.9695C -0.5 21.9703 -0.5 21.9711 -0.5 21.9719C -0.5 21.9727 -0.5 21.9734 -0.5 21.9742C -0.5 21.975 -0.5 21.9758 -0.5 21.9766C -0.5 21.9773 -0.5 21.9781 -0.5 21.9789C -0.5 21.9797 -0.5 21.9805 -0.5 21.9813C -0.5 21.982 -0.5 21.9828 -0.5 21.9836C -0.5 21.9844 -0.5 21.9852 -0.5 21.9859C -0.5 21.9867 -0.5 21.9875 -0.5 21.9883C -0.5 21.9891 -0.5 21.9898 -0.5 21.9906C -0.5 21.9914 -0.5 21.9922 -0.5 21.993C -0.5 21.9938 -0.5 21.9945 -0.5 21.9953C -0.5 21.9961 -0.5 21.9969 -0.5 21.9977C -0.5 21.9984 -0.5 21.9992 -0.5 22C -0.5 22.0008 -0.5 22.0016 -0.5 22.0023C -0.5 22.0031 -0.5 22.0039 -0.5 22.0047C -0.5 22.0055 -0.5 22.0063 -0.5 22.007C -0.5 22.0078 -0.5 22.0086 -0.5 22.0094C -0.5 22.0102 -0.5 22.0109 -0.5 22.0117C -0.5 22.0125 -0.5 22.0133 -0.5 22.0141C -0.5 22.0148 -0.5 22.0156 -0.5 22.0164C -0.5 22.0172 -0.5 22.018 -0.5 22.0188C -0.5 22.0195 -0.5 22.0203 -0.5 22.0211C -0.5 22.0219 -0.5 22.0227 -0.5 22.0234C -0.5 22.0242 -0.5 22.025 -0.5 22.0258C -0.5 22.0266 -0.5 22.0273 -0.5 22.0281C -0.5 22.0289 -0.5 22.0297 -0.5 22.0305C -0.5 22.0313 -0.5 22.032 -0.5 22.0328C -0.5 22.0336 -0.5 22.0344 -0.5 22.0352C -0.5 22.0359 -0.5 22.0367 -0.5 22.0375C -0.5 22.0383 -0.5 22.0391 -0.5 22.0398C -0.5 22.0406 -0.5 22.0414 -0.5 22.0422C -0.5 22.043 -0.5 22.0438 -0.5 22.0445C -0.5 22.0453 -0.5 22.0461 -0.5 22.0469C -0.5 22.0477 -0.5 22.0484 -0.5 22.0492C -0.5 22.05 -0.5 22.0508 -0.5 22.0516C -0.5 22.0523 -0.5 22.0531 -0.5 22.0539C -0.5 22.0547 -0.5 22.0555 -0.5 22.0563C -0.5 22.057 -0.5 22.0578 -0.5 22.0586C -0.5 22.0594 -0.5 22.0602 -0.5 22.0609C -0.5 22.0617 -0.5 22.0625 -0.5 22.0633C -0.5 22.0641 -0.5 22.0648 -0.5 22.0656C -0.5 22.0664 -0.5 22.0672 -0.5 22.068C -0.5 22.0688 -0.5 22.0695 -0.5 22.0703C -0.5 22.0711 -0.5 22.0719 -0.5 22.0727C -0.5 22.0734 -0.5 22.0742 -0.5 22.075C -0.5 22.0758 -0.5 22.0766 -0.5 22.0773C -0.5 22.0781 -0.5 22.0789 -0.5 22.0797C -0.5 22.0805 -0.5 22.0813 -0.5 22.082C -0.5 22.0828 -0.5 22.0836 -0.5 22.0844C -0.5 22.0852 -0.5 22.0859 -0.5 22.0867C -0.5 22.0875 -0.5 22.0883 -0.5 22.0891C -0.5 22.0898 -0.5 22.0906 -0.5 22.0914C -0.5 22.0922 -0.5 22.093 -0.5 22.0938C -0.5 22.0945 -0.5 22.0953 -0.5 22.0961C -0.5 22.0969 -0.5 22.0977 -0.5 22.0984C -0.5 22.0992 -0.5 22.1 -0.5 22.1008C -0.5 22.1016 -0.5 22.1023 -0.5 22.1031C -0.5 22.1039 -0.5 22.1047 -0.5 22.1055C -0.5 22.1063 -0.5 22.107 -0.5 22.1078C -0.5 22.1086 -0.5 22.1094 -0.5 22.1102C -0.5 22.1109 -0.5 22.1117 -0.5 22.1125C -0.5 22.1133 -0.5 22.1141 -0.5 22.1148C -0.5 22.1156 -0.5 22.1164 -0.5 22.1172C -0.5 22.118 -0.5 22.1188 -0.5 22.1195C -0.5 22.1203 -0.5 22.1211 -0.5 22.1219C -0.5 22.1227 -0.5 22.1234 -0.5 22.1242C -0.5 22.125 -0.5 22.1258 -0.5 22.1266C -0.5 22.1273 -0.5 22.1281 -0.5 22.1289C -0.5 22.1297 -0.5 22.1305 -0.5 22.1313C -0.5 22.132 -0.5 22.1328 -0.5 22.1336C -0.5 22.1344 -0.5 22.1352 -0.5 22.1359C -0.5 22.1367 -0.5 22.1375 -0.5 22.1383C -0.5 22.1391 -0.5 22.1398 -0.5 22.1406C -0.5 22.1414 -0.5 22.1422 -0.5 22.143C -0.5 22.1438 -0.5 22.1445 -0.5 22.1453C -0.5 22.1461 -0.5 22.1469 -0.5 22.1477C -0.5 22.1484 -0.5 22.1492 -0.5 22.15C -0.5 22.1508 -0.5 22.1516 -0.5 22.1523C -0.5 22.1531 -0.5 22.1539 -0.5 22.1547C -0.5 22.1555 -0.5 22.1563 -0.5 22.157C -0.5 22.1578 -0.5 22.1586 -0.5 22.1594C -0.5 22.1602 -0.5 22.1609 -0.5 22.1617C -0.5 22.1625 -0.5 22.1633 -0.5 22.1641C -0.5 22.1648 -0.5 22.1656 -0.5 22.1664C -0.5 22.1672 -0.5 22.168 -0.5 22.1688C -0.5 22.1695 -0.5 22.1703 -0.5 22.1711C -0.5 22.1719 -0.5 22.1727 -0.5 22.1734C -0.5 22.1742 -0.5 22.175 -0.5 22.1758C -0.5 22.1766 -0.5 22.1773 -0.5 22.1781C -0.5 22.1789 -0.5 22.1797 -0.5 22.1805C -0.5 22.1813 -0.5 22.182 -0.5 22.1828C -0.5 22.1836 -0.5 22.1844 -0.5 22.1852C -0.5 22.1859 -0.5 22.1867 -0.5 22.1875C -0.5 22.1883 -0.5 22.1891 -0.5 22.1898C -0.5 22.1906 -0.5 22.1914 -0.5 22.1922C -0.5 22.193 -0.5 22.1938 -0.5 22.1945C -0.5 22.1953 -0.5 22.1961 -0.5 22.1969C -0.5 22.1977 -0.5 22.1984 -0.5 22.1992C -0.5 22.2 -0.5 22.2008 -0.5 22.2016C -0.5 22.2023 -0.5 22.2031 -0.5 22.2039C -0.5 22.2047 -0.5 22.2055 -0.5 22.2063C -0.5 22.207 -0.5 22.2078 -0.5 22.2086C -0.5 22.2094 -0.5 22.2102 -0.5 22.2109C -0.5 22.2117 -0.5 22.2125 -0.5 22.2133C -0.5 22.2141 -0.5 22.2148 -0.5 22.2156C -0.5 22.2164 -0.5 22.2172 -0.5 22.218C -0.5 22.2188 -0.5 22.2195 -0.5 22.2203C -0.5 22.2211 -0.5 22.2219 -0.5 22.2227C -0.5 22.2234 -0.5 22.2242 -0.5 22.225C -0.5 22.2258 -0.5 22.2266 -0.5 22.2273C -0.5 22.2281 -0.5 22.2289 -0.5 22.2297C -0.5 22.2305 -0.5 22.2313 -0.5 22.232C -0.5 22.2328 -0.5 22.2336 -0.5 22.2344C -0.5 22.2352 -0.5 22.2359 -0.5 22.2367C -0.5 22.2375 -0.5 22.2383 -0.5 22.2391C -0.5 22.2398 -0.5 22.2406 -0.5 22.2414C -0.5 22.2422 -0.5 22.243 -0.5 22.2438C -0.5 22.2445 -0.5 22.2453 -0.5 22.2461C -0.5 22.2469 -0.5 22.2477 -0.5 22.2484C -0.5 22.2492 -0.5 22.25 -0.5 22.2508C -0.5 22.2516 -0.5 22.2523 -0.5 22.2531C -0.5 22.2539 -0.5 22.2547 -0.5 22.2555C -0.5 22.2563 -0.5 22.257 -0.5 22.2578C -0.5 22.2586 -0.5 22.2594 -0.5 22.2602C -0.5 22.2609 -0.5 22.2617 -0.5 22.2625C -0.5 22.2633 -0.5 22.2641 -0.5 22.2648C -0.5 22.2656 -0.5 22.2664 -0.5 22.2672C -0.5 22.268 -0.5 22.2688 -0.5 22.2695C -0.5 22.2703 -0.5 22.2711 -0.5 22.2719C -0.5 22.2727 -0.5 22.2734 -0.5 22.2742C -0.5 22.275 -0.5 22.2758 -0.5 22.2766C -0.5 22.2773 -0.5 22.2781 -0.5 22.2789C -0.5 22.2797 -0.5 22.2805 -0.5 22.2813C -0.5 22.282 -0.5 22.2828 -0.5 22.2836C -0.5 22.2844 -0.5 22.2852 -0.5 22.2859C -0.5 22.2867 -0.5 22.2875 -0.5 22.2883C -0.5 22.2891 -0.5 22.2898 -0.5 22.2906C -0.5 22.2914 -0.5 22.2922 -0.5 22.293C -0.5 22.2938 -0.5 22.2945 -0.5 22.2953C -0.5 22.2961 -0.5 22.2969 -0.5 22.2977C -0.5 22.2984 -0.5 22.2992 -0.5 22.3C -0.5 22.3008 -0.5 22.3016 -0.5 22.3023C -0.5 22.3031 -0.5 22.3039 -0.5 22.3047C -0.5 22.3055 -0.5 22.3063 -0.5 22.307C -0.5 22.3078 -0.5 22.3086 -0.5 22.3094C -0.5 22.3102 -0.5 22.3109 -0.5 22.3117C -0.5 22.3125 -0.5 22.3133 -0.5 22.3141C -0.5 22.3148 -0.5 22.3156 -0.5 22.3164C -0.5 22.3172 -0.5 22.318 -0.5 22.3188C -0.5 22.3195 -0.5 22.3203 -0.5 22.3211C -0.5 22.3219 -0.5 22.3227 -0.5 22.3234C -0.5 22.3242 -0.5 22.325 -0.5 22.3258C -0.5 22.3266 -0.5 22.3273 -0.5 22.3281C -0.5 22.3289 -0.5 22.3297 -0.5 22.3305C -0.5 22.3313 -0.5 22.332 -0.5 22.3328C -0.5 22.3336 -0.5 22.3344 -0.5 22.3352C -0.5 22.3359 -0.5 22.3367 -0.5 22.3375C -0.5 22.3383 -0.5 22.3391 -0.5 22.3398C -0.5 22.3406 -0.5 22.3414 -0.5 22.3422C -0.5 22.343 -0.5 22.3438 -0.5 22.3445C -0.5 22.3453 -0.5 22.3461 -0.5 22.3469C -0.5 22.3477 -0.5 22.3484 -0.5 22.3492C -0.5 22.35 -0.5 22.3508 -0.5 22.3516C -0.5 22.3523 -0.5 22.3531 -0.5 22.3539C -0.5 22.3547 -0.5 22.3555 -0.5 22.3563C -0.5 22.357 -0.5 22.3578 -0.5 22.3586C -0.5 22.3594 -0.5 22.3602 -0.5 22.3609C -0.5 22.3617 -0.5 22.3625 -0.5 22.3633C -0.5 22.3641 -0.5 22.3648 -0.5 22.3656C -0.5 22.3664 -0.5 22.3672 -0.5 22.368C -0.5 22.3688 -0.5 22.3695 -0.5 22.3703C -0.5 22.3711 -0.5 22.3719 -0.5 22.3727C -0.5 22.3734 -0.5 22.3742 -0.5 22.375C -0.5 22.3758 -0.5 22.3766 -0.5 22.3773C -0.5 22.3781 -0.5 22.3789 -0.5 22.3797C -0.5 22.3805 -0.5 22.3813 -0.5 22.382C -0.5 22.3828 -0.5 22.3836 -0.5 22.3844C -0.5 22.3852 -0.5 22.3859 -0.5 22.3867C -0.5 22.3875 -0.5 22.3883 -0.5 22.3891C -0.5 22.3898 -0.5 22.3906 -0.5 22.3914C -0.5 22.3922 -0.5 22.393 -0.5 22.3938C -0.5 22.3945 -0.5 22.3953 -0.5 22.3961C -0.5 22.3969 -0.5 22.3977 -0.5 22.3984C -0.5 22.3992 -0.5 22.4 -0.5 22.4008C -0.5 22.4016 -0.5 22.4023 -0.5 22.4031C -0.5 22.4039 -0.5 22.4047 -0.5 22.4055C -0.5 22.4063 -0.5 22.407 -0.5 22.4078C -0.5 22.4086 -0.5 22.4094 -0.5 22.4102C -0.5 22.4109 -0.5 22.4117 -0.5 22.4125C -0.5 22.4133 -0.5 22.4141 -0.5 22.4148C -0.5 22.4156 -0.5 22.4164 -0.5 22.4172C -0.5 22.418 -0.5 22.4188 -0.5 22.4195C -0.5 22.4203 -0.5 22.4211 -0.5 22.4219C -0.5 22.4227 -0.5 22.4234 -0.5 22.4242C -0.5 22.425 -0.5 22.4258 -0.5 22.4266C -0.5 22.4273 -0.5 22.4281 -0.5 22.4289C -0.5 22.4297 -0.5 22.4305 -0.5 22.4313C -0.5 22.432 -0.5 22.4328 -0.5 22.4336C -0.5 22.4344 -0.5 22.4352 -0.5 22.4359C -0.5 22.4367 -0.5 22.4375 -0.5 22.4383C -0.5 22.4391 -0.5 22.4398 -0.5 22.4406C -0.5 22.4414 -0.5 22.4422 -0.5 22.443C -0.5 22.4438 -0.5 22.4445 -0.5 22.4453C -0.5 22.4461 -0.5 22.4469 -0.5 22.4477C -0.5 22.4484 -0.5 22.4492 -0.5 22.45C -0.5 22.4508 -0.5 22.4516 -0.5 22.4523C -0.5 22.4531 -0.5 22.4539 -0.5 22.4547C -0.5 22.4555 -0.5 22.4563 -0.5 22.457C -0.5 22.4578 -0.5 22.4586 -0.5 22.4594C -0.5 22.4602 -0.5 22.4609 -0.5 22.4617C -0.5 22.4625 -0.5 22.4633 -0.5 22.4641C -0.5 22.4648 -0.5 22.4656 -0.5 22.4664C -0.5 22.4672 -0.5 22.468 -0.5 22.4688C -0.5 22.4695 -0.5 22.4703 -0.5 22.4711C -0.5 22.4719 -0.5 22.4727 -0.5 22.4734C -0.5 22.4742 -0.5 22.475 -0.5 22.4758C -0.5 22.4766 -0.5 22.4773 -0.5 22.4781C -0.5 22.4789 -0.5 22.4797 -0.5 22.4805C -0.5 22.4813 -0.5 22.482 -0.5 22.4828C -0.5 22.4836 -0.5 22.4844 -0.5 22.4852C -0.5 22.4859 -0.5 22.4867 -0.5 22.4875C -0.5 22.4883 -0.5 22.4891 -0.5 22.4898C -0.5 22.4906 -0.5 22.4914 -0.5 22.4922C -0.5 22.493 -0.5 22.4938 -0.5 22.4945C -0.5 22.4953 -0.5 22.4961 -0.5 22.4969C -0.5 22.4977 -0.5 22.4984 -0.5 22.4992C -0.5 22.5 -0.5 22.5008 -0.5 22.5016C -0.5 22.5023 -0.5 22.5031 -0.5 22.5039C -0.5 22.5047 -0.5 22.5055 -0.5 22.5063C -0.5 22.507 -0.5 22.5078 -0.5 22.5086C -0.5 22.5094 -0.5 22.5102 -0.5 22.5109C -0.5 22.5117 -0.5 22.5125 -0.5 22.5133C -0.5 22.5141 -0.5 22.5148 -0.5 22.5156C -0.5 22.5164 -0.5 22.5172 -0.5 22.518C -0.5 22.5188 -0.5 22.5195 -0.5 22.5203C -0.5 22.5211 -0.5 22.5219 -0.5 22.5227C -0.5 22.5234 -0.5 22.5242 -0.5 22.525C -0.5 22.5258 -0.5 22.5266 -0.5 22.5273C -0.5 22.5281 -0.5 22.5289 -0.5 22.5297C -0.5 22.5305 -0.5 22.5313 -0.5 22.532C -0.5 22.5328 -0.5 22.5336 -0.5 22.5344C -0.5 22.5352 -0.5 22.5359 -0.5 22.5367C -0.5 22.5375 -0.5 22.5383 -0.5 22.5391C -0.5 22.5398 -0.5 22.5406 -0.5 22.5414C -0.5 22.5422 -0.5 22.543 -0.5 22.5438C -0.5 22.5445 -0.5 22.5453 -0.5 22.5461C -0.5 22.5469 -0.5 22.5477 -0.5 22.5484C -0.5 22.5492 -0.5 22.55 -0.5 22.5508C -0.5 22.5516 -0.5 22.5523 -0.5 22.5531C -0.5 22.5539 -0.5 22.5547 -0.5 22.5555C -0.5 22.5563 -0.5 22.557 -0.5 22.5578C -0.5 22.5586 -0.5 22.5594 -0.5 22.5602C -0.5 22.5609 -0.5 22.5617 -0.5 22.5625C -0.5 22.5633 -0.5 22.5641 -0.5 22.5648C -0.5 22.5656 -0.5 22.5664 -0.5 22.5672C -0.5 22.568 -0.5 22.5688 -0.5 22.5695C -0.5 22.5703 -0.5 22.5711 -0.5 22.5719C -0.5 22.5727 -0.5 22.5734 -0.5 22.5742C -0.5 22.575 -0.5 22.5758 -0.5 22.5766C -0.5 22.5773 -0.5 22.5781 -0.5 22.5789C -0.5 22.5797 -0.5 22.5805 -0.5 22.5813C -0.5 22.582 -0.5 22.5828 -0.5 22.5836C -0.5 22.5844 -0.5 22.5852 -0.5 22.5859C -0.5 22.5867 -0.5 22.5875 -0.5 22.5883C -0.5 22.5891 -0.5 22.5898 -0.5 22.5906C -0.5 22.5914 -0.5 22.5922 -0.5 22.593C -0.5 22.5938 -0.5 22.5945 -0.5 22.5953C -0.5 22.5961 -0.5 22.5969 -0.5 22.5977C -0.5 22.5984 -0.5 22.5992 -0.5 22.6L 0.5 22.6C 0.5 22.5992 0.5 22.5984 0.5 22.5977C 0.5 22.5969 0.5 22.5961 0.5 22.5953C 0.5 22.5945 0.5 22.5938 0.5 22.593C 0.5 22.5922 0.5 22.5914 0.5 22.5906C 0.5 22.5898 0.5 22.5891 0.5 22.5883C 0.5 22.5875 0.5 22.5867 0.5 22.5859C 0.5 22.5852 0.5 22.5844 0.5 22.5836C 0.5 22.5828 0.5 22.582 0.5 22.5813C 0.5 22.5805 0.5 22.5797 0.5 22.5789C 0.5 22.5781 0.5 22.5773 0.5 22.5766C 0.5 22.5758 0.5 22.575 0.5 22.5742C 0.5 22.5734 0.5 22.5727 0.5 22.5719C 0.5 22.5711 0.5 22.5703 0.5 22.5695C 0.5 22.5688 0.5 22.568 0.5 22.5672C 0.5 22.5664 0.5 22.5656 0.5 22.5648C 0.5 22.5641 0.5 22.5633 0.5 22.5625C 0.5 22.5617 0.5 22.5609 0.5 22.5602C 0.5 22.5594 0.5 22.5586 0.5 22.5578C 0.5 22.557 0.5 22.5563 0.5 22.5555C 0.5 22.5547 0.5 22.5539 0.5 22.5531C 0.5 22.5523 0.5 22.5516 0.5 22.5508C 0.5 22.55 0.5 22.5492 0.5 22.5484C 0.5 22.5477 0.5 22.5469 0.5 22.5461C 0.5 22.5453 0.5 22.5445 0.5 22.5438C 0.5 22.543 0.5 22.5422 0.5 22.5414C 0.5 22.5406 0.5 22.5398 0.5 22.5391C 0.5 22.5383 0.5 22.5375 0.5 22.5367C 0.5 22.5359 0.5 22.5352 0.5 22.5344C 0.5 22.5336 0.5 22.5328 0.5 22.532C 0.5 22.5313 0.5 22.5305 0.5 22.5297C 0.5 22.5289 0.5 22.5281 0.5 22.5273C 0.5 22.5266 0.5 22.5258 0.5 22.525C 0.5 22.5242 0.5 22.5234 0.5 22.5227C 0.5 22.5219 0.5 22.5211 0.5 22.5203C 0.5 22.5195 0.5 22.5188 0.5 22.518C 0.5 22.5172 0.5 22.5164 0.5 22.5156C 0.5 22.5148 0.5 22.5141 0.5 22.5133C 0.5 22.5125 0.5 22.5117 0.5 22.5109C 0.5 22.5102 0.5 22.5094 0.5 22.5086C 0.5 22.5078 0.5 22.507 0.5 22.5063C 0.5 22.5055 0.5 22.5047 0.5 22.5039C 0.5 22.5031 0.5 22.5023 0.5 22.5016C 0.5 22.5008 0.5 22.5 0.5 22.4992C 0.5 22.4984 0.5 22.4977 0.5 22.4969C 0.5 22.4961 0.5 22.4953 0.5 22.4945C 0.5 22.4938 0.5 22.493 0.5 22.4922C 0.5 22.4914 0.5 22.4906 0.5 22.4898C 0.5 22.4891 0.5 22.4883 0.5 22.4875C 0.5 22.4867 0.5 22.4859 0.5 22.4852C 0.5 22.4844 0.5 22.4836 0.5 22.4828C 0.5 22.482 0.5 22.4813 0.5 22.4805C 0.5 22.4797 0.5 22.4789 0.5 22.4781C 0.5 22.4773 0.5 22.4766 0.5 22.4758C 0.5 22.475 0.5 22.4742 0.5 22.4734C 0.5 22.4727 0.5 22.4719 0.5 22.4711C 0.5 22.4703 0.5 22.4695 0.5 22.4688C 0.5 22.468 0.5 22.4672 0.5 22.4664C 0.5 22.4656 0.5 22.4648 0.5 22.4641C 0.5 22.4633 0.5 22.4625 0.5 22.4617C 0.5 22.4609 0.5 22.4602 0.5 22.4594C 0.5 22.4586 0.5 22.4578 0.5 22.457C 0.5 22.4563 0.5 22.4555 0.5 22.4547C 0.5 22.4539 0.5 22.4531 0.5 22.4523C 0.5 22.4516 0.5 22.4508 0.5 22.45C 0.5 22.4492 0.5 22.4484 0.5 22.4477C 0.5 22.4469 0.5 22.4461 0.5 22.4453C 0.5 22.4445 0.5 22.4438 0.5 22.443C 0.5 22.4422 0.5 22.4414 0.5 22.4406C 0.5 22.4398 0.5 22.4391 0.5 22.4383C 0.5 22.4375 0.5 22.4367 0.5 22.4359C 0.5 22.4352 0.5 22.4344 0.5 22.4336C 0.5 22.4328 0.5 22.432 0.5 22.4313C 0.5 22.4305 0.5 22.4297 0.5 22.4289C 0.5 22.4281 0.5 22.4273 0.5 22.4266C 0.5 22.4258 0.5 22.425 0.5 22.4242C 0.5 22.4234 0.5 22.4227 0.5 22.4219C 0.5 22.4211 0.5 22.4203 0.5 22.4195C 0.5 22.4188 0.5 22.418 0.5 22.4172C 0.5 22.4164 0.5 22.4156 0.5 22.4148C 0.5 22.4141 0.5 22.4133 0.5 22.4125C 0.5 22.4117 0.5 22.4109 0.5 22.4102C 0.5 22.4094 0.5 22.4086 0.5 22.4078C 0.5 22.407 0.5 22.4063 0.5 22.4055C 0.5 22.4047 0.5 22.4039 0.5 22.4031C 0.5 22.4023 0.5 22.4016 0.5 22.4008C 0.5 22.4 0.5 22.3992 0.5 22.3984C 0.5 22.3977 0.5 22.3969 0.5 22.3961C 0.5 22.3953 0.5 22.3945 0.5 22.3938C 0.5 22.393 0.5 22.3922 0.5 22.3914C 0.5 22.3906 0.5 22.3898 0.5 22.3891C 0.5 22.3883 0.5 22.3875 0.5 22.3867C 0.5 22.3859 0.5 22.3852 0.5 22.3844C 0.5 22.3836 0.5 22.3828 0.5 22.382C 0.5 22.3813 0.5 22.3805 0.5 22.3797C 0.5 22.3789 0.5 22.3781 0.5 22.3773C 0.5 22.3766 0.5 22.3758 0.5 22.375C 0.5 22.3742 0.5 22.3734 0.5 22.3727C 0.5 22.3719 0.5 22.3711 0.5 22.3703C 0.5 22.3695 0.5 22.3688 0.5 22.368C 0.5 22.3672 0.5 22.3664 0.5 22.3656C 0.5 22.3648 0.5 22.3641 0.5 22.3633C 0.5 22.3625 0.5 22.3617 0.5 22.3609C 0.5 22.3602 0.5 22.3594 0.5 22.3586C 0.5 22.3578 0.5 22.357 0.5 22.3563C 0.5 22.3555 0.5 22.3547 0.5 22.3539C 0.5 22.3531 0.5 22.3523 0.5 22.3516C 0.5 22.3508 0.5 22.35 0.5 22.3492C 0.5 22.3484 0.5 22.3477 0.5 22.3469C 0.5 22.3461 0.5 22.3453 0.5 22.3445C 0.5 22.3438 0.5 22.343 0.5 22.3422C 0.5 22.3414 0.5 22.3406 0.5 22.3398C 0.5 22.3391 0.5 22.3383 0.5 22.3375C 0.5 22.3367 0.5 22.3359 0.5 22.3352C 0.5 22.3344 0.5 22.3336 0.5 22.3328C 0.5 22.332 0.5 22.3313 0.5 22.3305C 0.5 22.3297 0.5 22.3289 0.5 22.3281C 0.5 22.3273 0.5 22.3266 0.5 22.3258C 0.5 22.325 0.5 22.3242 0.5 22.3234C 0.5 22.3227 0.5 22.3219 0.5 22.3211C 0.5 22.3203 0.5 22.3195 0.5 22.3188C 0.5 22.318 0.5 22.3172 0.5 22.3164C 0.5 22.3156 0.5 22.3148 0.5 22.3141C 0.5 22.3133 0.5 22.3125 0.5 22.3117C 0.5 22.3109 0.5 22.3102 0.5 22.3094C 0.5 22.3086 0.5 22.3078 0.5 22.307C 0.5 22.3063 0.5 22.3055 0.5 22.3047C 0.5 22.3039 0.5 22.3031 0.5 22.3023C 0.5 22.3016 0.5 22.3008 0.5 22.3C 0.5 22.2992 0.5 22.2984 0.5 22.2977C 0.5 22.2969 0.5 22.2961 0.5 22.2953C 0.5 22.2945 0.5 22.2938 0.5 22.293C 0.5 22.2922 0.5 22.2914 0.5 22.2906C 0.5 22.2898 0.5 22.2891 0.5 22.2883C 0.5 22.2875 0.5 22.2867 0.5 22.2859C 0.5 22.2852 0.5 22.2844 0.5 22.2836C 0.5 22.2828 0.5 22.282 0.5 22.2813C 0.5 22.2805 0.5 22.2797 0.5 22.2789C 0.5 22.2781 0.5 22.2773 0.5 22.2766C 0.5 22.2758 0.5 22.275 0.5 22.2742C 0.5 22.2734 0.5 22.2727 0.5 22.2719C 0.5 22.2711 0.5 22.2703 0.5 22.2695C 0.5 22.2688 0.5 22.268 0.5 22.2672C 0.5 22.2664 0.5 22.2656 0.5 22.2648C 0.5 22.2641 0.5 22.2633 0.5 22.2625C 0.5 22.2617 0.5 22.2609 0.5 22.2602C 0.5 22.2594 0.5 22.2586 0.5 22.2578C 0.5 22.257 0.5 22.2563 0.5 22.2555C 0.5 22.2547 0.5 22.2539 0.5 22.2531C 0.5 22.2523 0.5 22.2516 0.5 22.2508C 0.5 22.25 0.5 22.2492 0.5 22.2484C 0.5 22.2477 0.5 22.2469 0.5 22.2461C 0.5 22.2453 0.5 22.2445 0.5 22.2438C 0.5 22.243 0.5 22.2422 0.5 22.2414C 0.5 22.2406 0.5 22.2398 0.5 22.2391C 0.5 22.2383 0.5 22.2375 0.5 22.2367C 0.5 22.2359 0.5 22.2352 0.5 22.2344C 0.5 22.2336 0.5 22.2328 0.5 22.232C 0.5 22.2313 0.5 22.2305 0.5 22.2297C 0.5 22.2289 0.5 22.2281 0.5 22.2273C 0.5 22.2266 0.5 22.2258 0.5 22.225C 0.5 22.2242 0.5 22.2234 0.5 22.2227C 0.5 22.2219 0.5 22.2211 0.5 22.2203C 0.5 22.2195 0.5 22.2188 0.5 22.218C 0.5 22.2172 0.5 22.2164 0.5 22.2156C 0.5 22.2148 0.5 22.2141 0.5 22.2133C 0.5 22.2125 0.5 22.2117 0.5 22.2109C 0.5 22.2102 0.5 22.2094 0.5 22.2086C 0.5 22.2078 0.5 22.207 0.5 22.2063C 0.5 22.2055 0.5 22.2047 0.5 22.2039C 0.5 22.2031 0.5 22.2023 0.5 22.2016C 0.5 22.2008 0.5 22.2 0.5 22.1992C 0.5 22.1984 0.5 22.1977 0.5 22.1969C 0.5 22.1961 0.5 22.1953 0.5 22.1945C 0.5 22.1938 0.5 22.193 0.5 22.1922C 0.5 22.1914 0.5 22.1906 0.5 22.1898C 0.5 22.1891 0.5 22.1883 0.5 22.1875C 0.5 22.1867 0.5 22.1859 0.5 22.1852C 0.5 22.1844 0.5 22.1836 0.5 22.1828C 0.5 22.182 0.5 22.1813 0.5 22.1805C 0.5 22.1797 0.5 22.1789 0.5 22.1781C 0.5 22.1773 0.5 22.1766 0.5 22.1758C 0.5 22.175 0.5 22.1742 0.5 22.1734C 0.5 22.1727 0.5 22.1719 0.5 22.1711C 0.5 22.1703 0.5 22.1695 0.5 22.1688C 0.5 22.168 0.5 22.1672 0.5 22.1664C 0.5 22.1656 0.5 22.1648 0.5 22.1641C 0.5 22.1633 0.5 22.1625 0.5 22.1617C 0.5 22.1609 0.5 22.1602 0.5 22.1594C 0.5 22.1586 0.5 22.1578 0.5 22.157C 0.5 22.1563 0.5 22.1555 0.5 22.1547C 0.5 22.1539 0.5 22.1531 0.5 22.1523C 0.5 22.1516 0.5 22.1508 0.5 22.15C 0.5 22.1492 0.5 22.1484 0.5 22.1477C 0.5 22.1469 0.5 22.1461 0.5 22.1453C 0.5 22.1445 0.5 22.1438 0.5 22.143C 0.5 22.1422 0.5 22.1414 0.5 22.1406C 0.5 22.1398 0.5 22.1391 0.5 22.1383C 0.5 22.1375 0.5 22.1367 0.5 22.1359C 0.5 22.1352 0.5 22.1344 0.5 22.1336C 0.5 22.1328 0.5 22.132 0.5 22.1313C 0.5 22.1305 0.5 22.1297 0.5 22.1289C 0.5 22.1281 0.5 22.1273 0.5 22.1266C 0.5 22.1258 0.5 22.125 0.5 22.1242C 0.5 22.1234 0.5 22.1227 0.5 22.1219C 0.5 22.1211 0.5 22.1203 0.5 22.1195C 0.5 22.1188 0.5 22.118 0.5 22.1172C 0.5 22.1164 0.5 22.1156 0.5 22.1148C 0.5 22.1141 0.5 22.1133 0.5 22.1125C 0.5 22.1117 0.5 22.1109 0.5 22.1102C 0.5 22.1094 0.5 22.1086 0.5 22.1078C 0.5 22.107 0.5 22.1063 0.5 22.1055C 0.5 22.1047 0.5 22.1039 0.5 22.1031C 0.5 22.1023 0.5 22.1016 0.5 22.1008C 0.5 22.1 0.5 22.0992 0.5 22.0984C 0.5 22.0977 0.5 22.0969 0.5 22.0961C 0.5 22.0953 0.5 22.0945 0.5 22.0938C 0.5 22.093 0.5 22.0922 0.5 22.0914C 0.5 22.0906 0.5 22.0898 0.5 22.0891C 0.5 22.0883 0.5 22.0875 0.5 22.0867C 0.5 22.0859 0.5 22.0852 0.5 22.0844C 0.5 22.0836 0.5 22.0828 0.5 22.082C 0.5 22.0813 0.5 22.0805 0.5 22.0797C 0.5 22.0789 0.5 22.0781 0.5 22.0773C 0.5 22.0766 0.5 22.0758 0.5 22.075C 0.5 22.0742 0.5 22.0734 0.5 22.0727C 0.5 22.0719 0.5 22.0711 0.5 22.0703C 0.5 22.0695 0.5 22.0688 0.5 22.068C 0.5 22.0672 0.5 22.0664 0.5 22.0656C 0.5 22.0648 0.5 22.0641 0.5 22.0633C 0.5 22.0625 0.5 22.0617 0.5 22.0609C 0.5 22.0602 0.5 22.0594 0.5 22.0586C 0.5 22.0578 0.5 22.057 0.5 22.0563C 0.5 22.0555 0.5 22.0547 0.5 22.0539C 0.5 22.0531 0.5 22.0523 0.5 22.0516C 0.5 22.0508 0.5 22.05 0.5 22.0492C 0.5 22.0484 0.5 22.0477 0.5 22.0469C 0.5 22.0461 0.5 22.0453 0.5 22.0445C 0.5 22.0438 0.5 22.043 0.5 22.0422C 0.5 22.0414 0.5 22.0406 0.5 22.0398C 0.5 22.0391 0.5 22.0383 0.5 22.0375C 0.5 22.0367 0.5 22.0359 0.5 22.0352C 0.5 22.0344 0.5 22.0336 0.5 22.0328C 0.5 22.032 0.5 22.0313 0.5 22.0305C 0.5 22.0297 0.5 22.0289 0.5 22.0281C 0.5 22.0273 0.5 22.0266 0.5 22.0258C 0.5 22.025 0.5 22.0242 0.5 22.0234C 0.5 22.0227 0.5 22.0219 0.5 22.0211C 0.5 22.0203 0.5 22.0195 0.5 22.0188C 0.5 22.018 0.5 22.0172 0.5 22.0164C 0.5 22.0156 0.5 22.0148 0.5 22.0141C 0.5 22.0133 0.5 22.0125 0.5 22.0117C 0.5 22.0109 0.5 22.0102 0.5 22.0094C 0.5 22.0086 0.5 22.0078 0.5 22.007C 0.5 22.0063 0.5 22.0055 0.5 22.0047C 0.5 22.0039 0.5 22.0031 0.5 22.0023C 0.5 22.0016 0.5 22.0008 0.5 22C 0.5 21.9992 0.5 21.9984 0.5 21.9977C 0.5 21.9969 0.5 21.9961 0.5 21.9953C 0.5 21.9945 0.5 21.9938 0.5 21.993C 0.5 21.9922 0.5 21.9914 0.5 21.9906C 0.5 21.9898 0.5 21.9891 0.5 21.9883C 0.5 21.9875 0.5 21.9867 0.5 21.9859C 0.5 21.9852 0.5 21.9844 0.5 21.9836C 0.5 21.9828 0.5 21.982 0.5 21.9813C 0.5 21.9805 0.5 21.9797 0.5 21.9789C 0.5 21.9781 0.5 21.9773 0.5 21.9766C 0.5 21.9758 0.5 21.975 0.5 21.9742C 0.5 21.9734 0.5 21.9727 0.5 21.9719C 0.5 21.9711 0.5 21.9703 0.5 21.9695C 0.5 21.9688 0.5 21.968 0.5 21.9672C 0.5 21.9664 0.5 21.9656 0.5 21.9648C 0.5 21.9641 0.5 21.9633 0.5 21.9625C 0.5 21.9617 0.5 21.9609 0.5 21.9602C 0.5 21.9594 0.5 21.9586 0.5 21.9578C 0.5 21.957 0.5 21.9563 0.5 21.9555C 0.5 21.9547 0.5 21.9539 0.5 21.9531C 0.5 21.9523 0.5 21.9516 0.5 21.9508C 0.5 21.95 0.5 21.9492 0.5 21.9484C 0.5 21.9477 0.5 21.9469 0.5 21.9461C 0.5 21.9453 0.5 21.9445 0.5 21.9438C 0.5 21.943 0.5 21.9422 0.5 21.9414C 0.5 21.9406 0.5 21.9398 0.5 21.9391C 0.5 21.9383 0.5 21.9375 0.5 21.9367C 0.5 21.9359 0.5 21.9352 0.5 21.9344C 0.5 21.9336 0.5 21.9328 0.5 21.932C 0.5 21.9313 0.5 21.9305 0.5 21.9297C 0.5 21.9289 0.5 21.9281 0.5 21.9273C 0.5 21.9266 0.5 21.9258 0.5 21.925C 0.5 21.9242 0.5 21.9234 0.5 21.9227C 0.5 21.9219 0.5 21.9211 0.5 21.9203C 0.5 21.9195 0.5 21.9188 0.5 21.918C 0.5 21.9172 0.5 21.9164 0.5 21.9156C 0.5 21.9148 0.5 21.9141 0.5 21.9133C 0.5 21.9125 0.5 21.9117 0.5 21.9109C 0.5 21.9102 0.5 21.9094 0.5 21.9086C 0.5 21.9078 0.5 21.907 0.5 21.9063C 0.5 21.9055 0.5 21.9047 0.5 21.9039C 0.5 21.9031 0.5 21.9023 0.5 21.9016C 0.5 21.9008 0.5 21.9 0.5 21.8992C 0.5 21.8984 0.5 21.8977 0.5 21.8969C 0.5 21.8961 0.5 21.8953 0.5 21.8945C 0.5 21.8938 0.5 21.893 0.5 21.8922C 0.5 21.8914 0.5 21.8906 0.5 21.8898C 0.5 21.8891 0.5 21.8883 0.5 21.8875C 0.5 21.8867 0.5 21.8859 0.5 21.8852C 0.5 21.8844 0.5 21.8836 0.5 21.8828C 0.5 21.882 0.5 21.8813 0.5 21.8805C 0.5 21.8797 0.5 21.8789 0.5 21.8781C 0.5 21.8773 0.5 21.8766 0.5 21.8758C 0.5 21.875 0.5 21.8742 0.5 21.8734C 0.5 21.8727 0.5 21.8719 0.5 21.8711C 0.5 21.8703 0.5 21.8695 0.5 21.8688C 0.5 21.868 0.5 21.8672 0.5 21.8664C 0.5 21.8656 0.5 21.8648 0.5 21.8641C 0.5 21.8633 0.5 21.8625 0.5 21.8617C 0.5 21.8609 0.5 21.8602 0.5 21.8594C 0.5 21.8586 0.5 21.8578 0.5 21.857C 0.5 21.8563 0.5 21.8555 0.5 21.8547C 0.5 21.8539 0.5 21.8531 0.5 21.8523C 0.5 21.8516 0.5 21.8508 0.5 21.85C 0.5 21.8492 0.5 21.8484 0.5 21.8477C 0.5 21.8469 0.5 21.8461 0.5 21.8453C 0.5 21.8445 0.5 21.8438 0.5 21.843C 0.5 21.8422 0.5 21.8414 0.5 21.8406C 0.5 21.8398 0.5 21.8391 0.5 21.8383C 0.5 21.8375 0.5 21.8367 0.5 21.8359C 0.5 21.8352 0.5 21.8344 0.5 21.8336C 0.5 21.8328 0.5 21.832 0.5 21.8313C 0.5 21.8305 0.5 21.8297 0.5 21.8289C 0.5 21.8281 0.5 21.8273 0.5 21.8266C 0.5 21.8258 0.5 21.825 0.5 21.8242C 0.5 21.8234 0.5 21.8227 0.5 21.8219C 0.5 21.8211 0.5 21.8203 0.5 21.8195C 0.5 21.8188 0.5 21.818 0.5 21.8172C 0.5 21.8164 0.5 21.8156 0.5 21.8148C 0.5 21.8141 0.5 21.8133 0.5 21.8125C 0.5 21.8117 0.5 21.8109 0.5 21.8102C 0.5 21.8094 0.5 21.8086 0.5 21.8078C 0.5 21.807 0.5 21.8063 0.5 21.8055C 0.5 21.8047 0.5 21.8039 0.5 21.8031C 0.5 21.8023 0.5 21.8016 0.5 21.8008C 0.5 21.8 0.5 21.7992 0.5 21.7984C 0.5 21.7977 0.5 21.7969 0.5 21.7961C 0.5 21.7953 0.5 21.7945 0.5 21.7938C 0.5 21.793 0.5 21.7922 0.5 21.7914C 0.5 21.7906 0.5 21.7898 0.5 21.7891C 0.5 21.7883 0.5 21.7875 0.5 21.7867C 0.5 21.7859 0.5 21.7852 0.5 21.7844C 0.5 21.7836 0.5 21.7828 0.5 21.782C 0.5 21.7813 0.5 21.7805 0.5 21.7797C 0.5 21.7789 0.5 21.7781 0.5 21.7773C 0.5 21.7766 0.5 21.7758 0.5 21.775C 0.5 21.7742 0.5 21.7734 0.5 21.7727C 0.5 21.7719 0.5 21.7711 0.5 21.7703C 0.5 21.7695 0.5 21.7688 0.5 21.768C 0.5 21.7672 0.5 21.7664 0.5 21.7656C 0.5 21.7648 0.5 21.7641 0.5 21.7633C 0.5 21.7625 0.5 21.7617 0.5 21.7609C 0.5 21.7602 0.5 21.7594 0.5 21.7586C 0.5 21.7578 0.5 21.757 0.5 21.7563C 0.5 21.7555 0.5 21.7547 0.5 21.7539C 0.5 21.7531 0.5 21.7523 0.5 21.7516C 0.5 21.7508 0.5 21.75 0.5 21.7492C 0.5 21.7484 0.5 21.7477 0.5 21.7469C 0.5 21.7461 0.5 21.7453 0.5 21.7445C 0.5 21.7438 0.5 21.743 0.5 21.7422C 0.5 21.7414 0.5 21.7406 0.5 21.7398C 0.5 21.7391 0.5 21.7383 0.5 21.7375C 0.5 21.7367 0.5 21.7359 0.5 21.7352C 0.5 21.7344 0.5 21.7336 0.5 21.7328C 0.5 21.732 0.5 21.7313 0.5 21.7305C 0.5 21.7297 0.5 21.7289 0.5 21.7281C 0.5 21.7273 0.5 21.7266 0.5 21.7258C 0.5 21.725 0.5 21.7242 0.5 21.7234C 0.5 21.7227 0.5 21.7219 0.5 21.7211C 0.5 21.7203 0.5 21.7195 0.5 21.7188C 0.5 21.718 0.5 21.7172 0.5 21.7164C 0.5 21.7156 0.5 21.7148 0.5 21.7141C 0.5 21.7133 0.5 21.7125 0.5 21.7117C 0.5 21.7109 0.5 21.7102 0.5 21.7094C 0.5 21.7086 0.5 21.7078 0.5 21.707C 0.5 21.7063 0.5 21.7055 0.5 21.7047C 0.5 21.7039 0.5 21.7031 0.5 21.7023C 0.5 21.7016 0.5 21.7008 0.5 21.7C 0.5 21.6992 0.5 21.6984 0.5 21.6977C 0.5 21.6969 0.5 21.6961 0.5 21.6953C 0.5 21.6945 0.5 21.6938 0.5 21.693C 0.5 21.6922 0.5 21.6914 0.5 21.6906C 0.5 21.6898 0.5 21.6891 0.5 21.6883C 0.5 21.6875 0.5 21.6867 0.5 21.6859C 0.5 21.6852 0.5 21.6844 0.5 21.6836C 0.5 21.6828 0.5 21.682 0.5 21.6813C 0.5 21.6805 0.5 21.6797 0.5 21.6789C 0.5 21.6781 0.5 21.6773 0.5 21.6766C 0.5 21.6758 0.5 21.675 0.5 21.6742C 0.5 21.6734 0.5 21.6727 0.5 21.6719C 0.5 21.6711 0.5 21.6703 0.5 21.6695C 0.5 21.6688 0.5 21.668 0.5 21.6672C 0.5 21.6664 0.5 21.6656 0.5 21.6648C 0.5 21.6641 0.5 21.6633 0.5 21.6625C 0.5 21.6617 0.5 21.6609 0.5 21.6602C 0.5 21.6594 0.5 21.6586 0.5 21.6578C 0.5 21.657 0.5 21.6563 0.5 21.6555C 0.5 21.6547 0.5 21.6539 0.5 21.6531C 0.5 21.6523 0.5 21.6516 0.5 21.6508C 0.5 21.65 0.5 21.6492 0.5 21.6484C 0.5 21.6477 0.5 21.6469 0.5 21.6461C 0.5 21.6453 0.5 21.6445 0.5 21.6438C 0.5 21.643 0.5 21.6422 0.5 21.6414C 0.5 21.6406 0.5 21.6398 0.5 21.6391C 0.5 21.6383 0.5 21.6375 0.5 21.6367C 0.5 21.6359 0.5 21.6352 0.5 21.6344C 0.5 21.6336 0.5 21.6328 0.5 21.632C 0.5 21.6313 0.5 21.6305 0.5 21.6297C 0.5 21.6289 0.5 21.6281 0.5 21.6273C 0.5 21.6266 0.5 21.6258 0.5 21.625C 0.5 21.6242 0.5 21.6234 0.5 21.6227C 0.5 21.6219 0.5 21.6211 0.5 21.6203C 0.5 21.6195 0.5 21.6188 0.5 21.618C 0.5 21.6172 0.5 21.6164 0.5 21.6156C 0.5 21.6148 0.5 21.6141 0.5 21.6133C 0.5 21.6125 0.5 21.6117 0.5 21.6109C 0.5 21.6102 0.5 21.6094 0.5 21.6086C 0.5 21.6078 0.5 21.607 0.5 21.6063C 0.5 21.6055 0.5 21.6047 0.5 21.6039C 0.5 21.6031 0.5 21.6023 0.5 21.6016C 0.5 21.6008 0.5 21.6 0.5 21.5992C 0.5 21.5984 0.5 21.5977 0.5 21.5969C 0.5 21.5961 0.5 21.5953 0.5 21.5945C 0.5 21.5938 0.5 21.593 0.5 21.5922C 0.5 21.5914 0.5 21.5906 0.5 21.5898C 0.5 21.5891 0.5 21.5883 0.5 21.5875C 0.5 21.5867 0.5 21.5859 0.5 21.5852C 0.5 21.5844 0.5 21.5836 0.5 21.5828C 0.5 21.582 0.5 21.5813 0.5 21.5805C 0.5 21.5797 0.5 21.5789 0.5 21.5781C 0.5 21.5773 0.5 21.5766 0.5 21.5758C 0.5 21.575 0.5 21.5742 0.5 21.5734C 0.5 21.5727 0.5 21.5719 0.5 21.5711C 0.5 21.5703 0.5 21.5695 0.5 21.5688C 0.5 21.568 0.5 21.5672 0.5 21.5664C 0.5 21.5656 0.5 21.5648 0.5 21.5641C 0.5 21.5633 0.5 21.5625 0.5 21.5617C 0.5 21.5609 0.5 21.5602 0.5 21.5594C 0.5 21.5586 0.5 21.5578 0.5 21.557C 0.5 21.5563 0.5 21.5555 0.5 21.5547C 0.5 21.5539 0.5 21.5531 0.5 21.5523C 0.5 21.5516 0.5 21.5508 0.5 21.55C 0.5 21.5492 0.5 21.5484 0.5 21.5477C 0.5 21.5469 0.5 21.5461 0.5 21.5453C 0.5 21.5445 0.5 21.5438 0.5 21.543C 0.5 21.5422 0.5 21.5414 0.5 21.5406C 0.5 21.5398 0.5 21.5391 0.5 21.5383C 0.5 21.5375 0.5 21.5367 0.5 21.5359C 0.5 21.5352 0.5 21.5344 0.5 21.5336C 0.5 21.5328 0.5 21.532 0.5 21.5313C 0.5 21.5305 0.5 21.5297 0.5 21.5289C 0.5 21.5281 0.5 21.5273 0.5 21.5266C 0.5 21.5258 0.5 21.525 0.5 21.5242C 0.5 21.5234 0.5 21.5227 0.5 21.5219C 0.5 21.5211 0.5 21.5203 0.5 21.5195C 0.5 21.5188 0.5 21.518 0.5 21.5172C 0.5 21.5164 0.5 21.5156 0.5 21.5148C 0.5 21.5141 0.5 21.5133 0.5 21.5125C 0.5 21.5117 0.5 21.5109 0.5 21.5102C 0.5 21.5094 0.5 21.5086 0.5 21.5078C 0.5 21.507 0.5 21.5063 0.5 21.5055C 0.5 21.5047 0.5 21.5039 0.5 21.5031C 0.5 21.5023 0.5 21.5016 0.5 21.5008C 0.5 21.5 0.5 21.4992 0.5 21.4984C 0.5 21.4977 0.5 21.4969 0.5 21.4961C 0.5 21.4953 0.5 21.4945 0.5 21.4938C 0.5 21.493 0.5 21.4922 0.5 21.4914C 0.5 21.4906 0.5 21.4898 0.5 21.4891C 0.5 21.4883 0.5 21.4875 0.5 21.4867C 0.5 21.4859 0.5 21.4852 0.5 21.4844C 0.5 21.4836 0.5 21.4828 0.5 21.482C 0.5 21.4813 0.5 21.4805 0.5 21.4797C 0.5 21.4789 0.5 21.4781 0.5 21.4773C 0.5 21.4766 0.5 21.4758 0.5 21.475C 0.5 21.4742 0.5 21.4734 0.5 21.4727C 0.5 21.4719 0.5 21.4711 0.5 21.4703C 0.5 21.4695 0.5 21.4688 0.5 21.468C 0.5 21.4672 0.5 21.4664 0.5 21.4656C 0.5 21.4648 0.5 21.4641 0.5 21.4633C 0.5 21.4625 0.5 21.4617 0.5 21.4609C 0.5 21.4602 0.5 21.4594 0.5 21.4586C 0.5 21.4578 0.5 21.457 0.5 21.4563C 0.5 21.4555 0.5 21.4547 0.5 21.4539C 0.5 21.4531 0.5 21.4523 0.5 21.4516C 0.5 21.4508 0.5 21.45 0.5 21.4492C 0.5 21.4484 0.5 21.4477 0.5 21.4469C 0.5 21.4461 0.5 21.4453 0.5 21.4445C 0.5 21.4438 0.5 21.443 0.5 21.4422C 0.5 21.4414 0.5 21.4406 0.5 21.4398C 0.5 21.4391 0.5 21.4383 0.5 21.4375C 0.5 21.4367 0.5 21.4359 0.5 21.4352C 0.5 21.4344 0.5 21.4336 0.5 21.4328C 0.5 21.432 0.5 21.4313 0.5 21.4305C 0.5 21.4297 0.5 21.4289 0.5 21.4281C 0.5 21.4273 0.5 21.4266 0.5 21.4258C 0.5 21.425 0.5 21.4242 0.5 21.4234C 0.5 21.4227 0.5 21.4219 0.5 21.4211C 0.5 21.4203 0.5 21.4195 0.5 21.4188C 0.5 21.418 0.5 21.4172 0.5 21.4164C 0.5 21.4156 0.5 21.4148 0.5 21.4141C 0.5 21.4133 0.5 21.4125 0.5 21.4117C 0.5 21.4109 0.5 21.4102 0.5 21.4094C 0.5 21.4086 0.5 21.4078 0.5 21.407C 0.5 21.4063 0.5 21.4055 0.5 21.4047C 0.5 21.4039 0.5 21.4031 0.5 21.4023C 0.5 21.4016 0.5 21.4008 0.5 21.4L -0.5 21.4ZM -0.322971 22.9817C 4.96358 27.4549 11.877 30.2 19.4 30.2L 19.4 29.2C 12.123 29.2 5.43642 26.5451 0.322972 22.2183L -0.322971 22.9817ZM 19.4 30.2C 30.8892 30.2 40.9529 23.7947 46.1373 14.4424L 45.2627 13.9576C 40.2471 23.0053 30.5108 29.2 19.4 29.2L 19.4 30.2Z"/>
</defs>
</svg>
