<svg width="16" height="16" viewBox="0 0 16 16" version="1.1" xmlns="http://www.w3.org/2000/svg" xmlns:xlink="http://www.w3.org/1999/xlink">
<g id="Canvas" fill="none">
<g id="slack">
<g id="home">
<g id="footer">
<g id="items">
<g id="slack_2">
<path d="M 15.9265 8.4249C 15.68 7.69241 14.8863 7.29848 14.1538 7.54504L 12.6683 8.04502L 11.6615 5.05372L 13.1083 4.56677C 13.8408 4.32024 14.2347 3.52657 13.9882 2.79411C 13.7416 2.06162 12.948 1.6677 12.2155 1.91425L 10.7687 2.4012L 10.2814 0.953356C 10.0349 0.220867 9.24124 -0.173056 8.50878 0.0734982C 7.77629 0.32002 7.38237 1.1137 7.62892 1.84615L 8.11623 3.294L 5.06188 4.32205L 4.58045 2.89172C 4.3339 2.15923 3.54025 1.76531 2.80779 2.01187C 2.07531 2.25842 1.68138 3.05206 1.92793 3.78452L 2.40936 5.21484L 0.953347 5.7049C 0.220858 5.95146 -0.173069 6.7451 0.0734864 7.47756C 0.320008 8.21005 1.11369 8.60397 1.84615 8.35742L 3.30216 7.86736L 4.30897 10.8587L 2.89168 11.3357C 2.15919 11.5822 1.76529 12.3759 2.01185 13.1083C 2.25837 13.8408 3.05202 14.2348 3.78448 13.9882L 5.20177 13.5112L 5.71859 15.0467C 5.96515 15.7792 6.7588 16.1731 7.49125 15.9265C 8.22374 15.68 8.61767 14.8863 8.37111 14.1539L 7.85429 12.6184L 10.9086 11.5903L 11.4196 13.1083C 11.6661 13.8408 12.4598 14.2347 13.1922 13.9882C 13.9247 13.7416 14.3187 12.948 14.0721 12.2155L 13.5612 10.6975L 15.0467 10.1975C 15.7791 9.95103 16.1731 9.15738 15.9265 8.4249ZM 6.96142 9.96587L 5.9546 6.97456L 9.00896 5.94651L 10.0158 8.93782L 6.96142 9.96587Z" fill="#666666"/>
</g>
</g>
</g>
</g>
</g>
</g>
</svg>

