<?xml version="1.0" encoding="UTF-8"?>
<svg width="20px" height="20px" viewBox="0 0 20 20" version="1.1" xmlns="http://www.w3.org/2000/svg" xmlns:xlink="http://www.w3.org/1999/xlink">
    <!-- Generator: Sketch 48.1 (47250) - http://www.bohemiancoding.com/sketch -->
    <title>slack</title>
    <desc>Created with Sketch.</desc>
    <defs></defs>
    <g id="home" stroke="none" stroke-width="1" fill="none" fill-rule="evenodd" transform="translate(-840.000000, -5105.000000)">
        <g id="footer" transform="translate(0.000000, 4854.000000)" fill="#AFBBBF" fill-rule="nonzero">
            <g id="items" transform="translate(572.000000, 251.000000)">
                <path d="M287.908086,10.531096 C287.599935,9.61548668 286.607841,9.12308361 285.692273,9.43127569 L283.835382,10.0562583 L282.576859,6.31713134 L284.385353,5.70844483 C285.300963,5.4002937 285.793366,4.40819938 285.485174,3.49263103 C285.177022,2.57702174 284.184928,2.08461868 283.26936,2.39281075 L281.460906,3.00149726 L280.85177,1.19169285 C280.543578,0.276083553 279.551524,-0.216319512 278.635956,0.0918725612 C277.720347,0.40002369 277.227943,1.39211801 277.536136,2.30768636 L278.145272,4.11749077 L274.327327,5.40254567 L273.72556,3.61464676 C273.417368,2.69903747 272.425314,2.2066344 271.509746,2.51482648 C270.594137,2.82301855 270.101734,3.81507192 270.409926,4.73064027 L271.011693,6.51853918 L269.191693,7.13111545 C268.276084,7.43930752 267.78368,8.4313609 268.091873,9.34692925 C268.400024,10.2625385 269.392118,10.7549416 270.307686,10.4467495 L272.127686,9.83417326 L273.386209,13.5733002 L271.614606,14.1695804 C270.698997,14.4777725 270.206593,15.4698258 270.514786,16.3853942 C270.822937,17.3010035 271.815031,17.7934065 272.730599,17.4852145 L274.502202,16.8889343 L275.14823,18.8083072 C275.456422,19.7239164 276.448476,20.2163195 277.364044,19.9081274 C278.279653,19.5999354 278.772057,18.607882 278.463864,17.6923136 L277.817836,15.7729407 L281.635782,14.4878858 L282.27444,16.3853532 C282.582632,17.3009625 283.574686,17.7933656 284.490254,17.4851735 C285.405863,17.1769814 285.898266,16.1849281 285.590074,15.2693597 L284.951416,13.3718923 L286.808307,12.7469098 C287.723835,12.4387586 288.216279,11.4467053 287.908086,10.531096 Z M276.701761,12.4573067 L275.443238,8.71817975 L279.261184,7.43312485 L280.519707,11.1722518 L276.701761,12.4573067 Z" id="slack"></path>
            </g>
        </g>
    </g>
</svg>