<?xml version="1.0" encoding="UTF-8"?>
<svg width="23px" height="20px" viewBox="0 0 23 20" version="1.1" xmlns="http://www.w3.org/2000/svg" xmlns:xlink="http://www.w3.org/1999/xlink">
    <!-- Generator: Sketch 48.1 (47250) - http://www.bohemiancoding.com/sketch -->
    <title>telegram</title>
    <desc>Created with Sketch.</desc>
    <defs></defs>
    <g id="home" stroke="none" stroke-width="1" fill="none" fill-rule="evenodd" transform="translate(-771.000000, -5107.000000)">
        <g id="footer" transform="translate(0.000000, 4854.000000)" fill="#AFBBBF" fill-rule="nonzero">
            <g id="items" transform="translate(572.000000, 251.000000)">
                <path d="M221.199891,2.21362998 C220.883115,1.94558802 220.371398,1.92122057 219.49417,2.18926253 C219.49417,2.18926253 219.49417,2.18926253 219.49417,2.18926253 C218.884984,2.38420213 213.475409,4.431068 208.699389,6.40483151 C204.410718,8.18365542 200.926172,9.74317226 200.511926,9.93811187 C200.048944,10.0843166 199.049879,10.5229307 199.001144,11.2052193 C198.976776,11.6438334 199.342288,12.0337126 200.048944,12.3504895 C200.804335,12.7403687 204.142676,13.8612714 204.849332,14.0805785 C205.093006,14.9090718 206.530686,19.7581945 206.603788,20.0506039 C206.701258,20.4892181 206.993668,20.7328926 207.139872,20.8303624 C207.16424,20.8547298 207.212975,20.9034647 207.26171,20.9278322 C207.334812,20.9765671 207.432282,21.0009345 207.554119,21.0009345 C207.724691,21.0009345 207.919631,20.9278322 208.090203,20.8059949 C208.991799,20.0749714 210.551315,18.4423522 210.989929,17.9793706 C212.914958,19.4901526 215.010559,21.1715067 215.205498,21.3664463 C215.205498,21.3664463 215.229866,21.3908137 215.229866,21.3908137 C215.692847,21.7806929 216.180197,22 216.618811,22 C216.765015,22 216.91122,21.9756325 217.057425,21.9268976 C217.569141,21.7563255 217.934653,21.2689765 218.05649,20.6110553 C218.05649,20.5866879 218.080858,20.4892181 218.129593,20.3186459 C218.958086,16.7122632 219.616007,13.5444946 220.152091,10.8884425 C220.663807,8.28112522 221.078054,5.72254289 221.321729,4.35796565 C221.370464,4.01682133 221.419198,3.74877938 221.443566,3.57820722 C221.516668,3.09085821 221.565403,2.53040684 221.199891,2.21362998 Z M205.361048,14.0074761 L216.984322,6.30736171 C217.00869,6.28299426 217.057425,6.25862681 217.081792,6.23425935 C217.081792,6.23425935 217.081792,6.23425935 217.081792,6.23425935 C217.10616,6.23425935 217.10616,6.2098919 217.130527,6.2098919 C217.154895,6.2098919 217.154895,6.2098919 217.179262,6.18552445 C217.154895,6.2098919 217.130527,6.28299426 217.081792,6.33172916 L214.133331,9.08525109 C212.086465,10.9615448 209.406045,13.4226573 207.627221,15.0309091 C207.627221,15.0309091 207.627221,15.0309091 207.627221,15.0552765 C207.627221,15.0552765 207.602854,15.079644 207.602854,15.079644 C207.602854,15.079644 207.602854,15.1040114 207.578486,15.1040114 C207.578486,15.1283789 207.578486,15.1283789 207.554119,15.1527463 C207.554119,15.1527463 207.554119,15.1771138 207.554119,15.1771138 C207.554119,15.1771138 207.554119,15.1771138 207.554119,15.2014812 C207.432282,16.5660585 207.212975,18.9053338 207.115505,19.9531341 C207.115505,19.9531341 207.115505,19.9531341 207.115505,19.9287667 C207.018035,19.6363573 205.653458,14.9821742 205.361048,14.0074761 Z" id="telegram"></path>
            </g>
        </g>
    </g>
</svg>