<svg width="16" height="15" viewBox="0 0 16 15" version="1.1" xmlns="http://www.w3.org/2000/svg" xmlns:xlink="http://www.w3.org/1999/xlink">
<title>telegram.v2</title>
<desc>Created using Figma</desc>
<g id="Canvas" transform="translate(-811 -374)">
<g id="telegram.v2">
<g id="home">
<g id="footer">
<g id="items">
<g id="telegram">
<use xlink:href="#path0_fill" transform="translate(811 374)" fill="#444444"/>
</g>
</g>
</g>
</g>
</g>
</g>
<defs>
<path id="path0_fill" d="M 15.7901 0.151949C 15.5648 -0.0387016 15.2008 -0.0560334 14.5769 0.134617C 14.1436 0.273272 10.2959 1.72915 6.89888 3.13303C 3.84848 4.39825 1.37003 5.50749 1.07539 5.64614C 0.746087 5.75013 0.0354776 6.06211 0.000813817 6.5474C -0.0165184 6.85937 0.243464 7.13668 0.746087 7.362C 1.28337 7.6393 3.65783 8.43657 4.16046 8.59256C 4.33378 9.18184 5.35635 12.6309 5.40835 12.8389C 5.47768 13.1508 5.68566 13.3241 5.78965 13.3935C 5.80698 13.4108 5.84164 13.4455 5.8763 13.4628C 5.9283 13.4975 5.99763 13.5148 6.08429 13.5148C 6.20562 13.5148 6.34427 13.4628 6.4656 13.3761C 7.10687 12.8562 8.21611 11.695 8.52808 11.3657C 9.8973 12.4402 11.3878 13.6361 11.5265 13.7748L 11.5438 13.7921C 11.8731 14.0694 12.2198 14.2254 12.5317 14.2254C 12.6357 14.2254 12.7397 14.2081 12.8437 14.1734C 13.2077 14.0521 13.4677 13.7054 13.5543 13.2375C 13.5543 13.2202 13.5716 13.1508 13.6063 13.0295C 14.1956 10.4644 14.6635 8.21126 15.0448 6.32208C 15.4088 4.46758 15.7035 2.64773 15.8768 1.67715C 15.9114 1.4345 15.9461 1.24385 15.9634 1.12253C 16.0154 0.775895 16.0501 0.377263 15.7901 0.151949ZM 4.52443 8.54056L 12.7917 3.0637C 12.8091 3.04637 12.8437 3.02903 12.861 3.0117C 12.8784 3.0117 12.8784 2.99437 12.8957 2.99437C 12.913 2.99437 12.913 2.99437 12.9304 2.97704C 12.913 2.99437 12.8957 3.04637 12.861 3.08103L 10.7639 5.03953C 9.30801 6.37408 7.40152 8.1246 6.13629 9.2685C 6.13629 9.2685 6.13629 9.2685 6.13629 9.28583L 6.11896 9.30316C 6.11896 9.30316 6.11896 9.32049 6.10163 9.32049C 6.10163 9.33782 6.10162 9.33782 6.08429 9.35516L 6.08429 9.37249C 6.08429 9.37249 6.08429 9.37249 6.08429 9.38982C 5.99763 10.3604 5.84165 12.0243 5.77232 12.7695C 5.77232 12.7695 5.77232 12.7695 5.77232 12.7522C 5.70299 12.5442 4.73241 9.23383 4.52443 8.54056Z"/>
</defs>
</svg>
