<?xml version="1.0" encoding="UTF-8"?>
<svg width="25px" height="20px" viewBox="0 0 25 20" version="1.1" xmlns="http://www.w3.org/2000/svg" xmlns:xlink="http://www.w3.org/1999/xlink">
    <!-- Generator: Sketch 48.1 (47250) - http://www.bohemiancoding.com/sketch -->
    <title>twitter</title>
    <desc>Created with Sketch.</desc>
    <defs></defs>
    <g id="home" stroke="none" stroke-width="1" fill="none" fill-rule="evenodd" transform="translate(-572.000000, -5108.000000)">
        <g id="footer" transform="translate(0.000000, 4854.000000)" fill="#AFBBBF">
            <g id="items" transform="translate(572.000000, 251.000000)">
                <path d="M24.625,5.375 C23.9375,6.375 23.078125,7.265625 22.09375,7.984375 C22.109375,8.203125 22.109375,8.421875 22.109375,8.640625 C22.109375,15.3125 17.03125,23 7.75,23 C4.890625,23 2.234375,22.171875 0,20.734375 C0.40625,20.78125 0.796875,20.796875 1.21875,20.796875 C3.578125,20.796875 5.75,20 7.484375,18.640625 C5.265625,18.59375 3.40625,17.140625 2.765625,15.140625 C3.078125,15.1875 3.390625,15.21875 3.71875,15.21875 C4.171875,15.21875 4.625,15.15625 5.046875,15.046875 C2.734375,14.578125 1,12.546875 1,10.09375 L1,10.03125 C1.671875,10.40625 2.453125,10.640625 3.28125,10.671875 C1.921875,9.765625 1.03125,8.21875 1.03125,6.46875 C1.03125,5.53125 1.28125,4.671875 1.71875,3.921875 C4.203125,6.984375 7.9375,8.984375 12.125,9.203125 C12.046875,8.828125 12,8.4375 12,8.046875 C12,5.265625 14.25,3 17.046875,3 C18.5,3 19.8125,3.609375 20.734375,4.59375 C21.875,4.375 22.96875,3.953125 23.9375,3.375 C23.5625,4.546875 22.765625,5.53125 21.71875,6.15625 C22.734375,6.046875 23.71875,5.765625 24.625,5.375 Z" id="twitter"></path>
            </g>
        </g>
    </g>
</svg>