<svg width="16" height="13" viewBox="0 0 16 13" version="1.1" xmlns="http://www.w3.org/2000/svg" xmlns:xlink="http://www.w3.org/1999/xlink">
<g id="Canvas" fill="none">
<g id="twitter">
<g id="home">
<g id="footer">
<g id="items">
<g id="twitter_2">
<path fill-rule="evenodd" clip-rule="evenodd" d="M 16 1.54315C 15.5533 2.19289 14.9949 2.77157 14.3553 3.23858C 14.3655 3.38071 14.3655 3.52284 14.3655 3.66497C 14.3655 8 11.066 12.9949 5.03553 12.9949C 3.17766 12.9949 1.45178 12.4569 0 11.5228C 0.263959 11.5533 0.517766 11.5635 0.791878 11.5635C 2.32487 11.5635 3.73604 11.0457 4.86294 10.1624C 3.42132 10.132 2.2132 9.18782 1.79695 7.88832C 2 7.91878 2.20305 7.93909 2.41624 7.93909C 2.71066 7.93909 3.00508 7.89848 3.27919 7.82741C 1.77665 7.52284 0.649746 6.20305 0.649746 4.60914L 0.649746 4.56853C 1.08629 4.81218 1.59391 4.96447 2.13198 4.98477C 1.24873 4.39594 0.670051 3.39086 0.670051 2.25381C 0.670051 1.64467 0.832487 1.08629 1.11675 0.598985C 2.73096 2.58883 5.15736 3.88832 7.87817 4.03046C 7.82741 3.7868 7.79695 3.53299 7.79695 3.27919C 7.79695 1.47208 9.25888 0 11.0761 0C 12.0203 0 12.8731 0.395939 13.4721 1.03553C 14.2132 0.893401 14.9239 0.619289 15.5533 0.243655C 15.3096 1.00508 14.7919 1.64467 14.1117 2.05076C 14.7716 1.9797 15.4112 1.79695 16 1.54315Z" fill="#666666"/>
</g>
</g>
</g>
</g>
</g>
</g>
</svg>

